{"glyphs":{"0":{"ha":899,"x_min":76,"x_max":822,"o":"m 346 -6 q 146 63 215 -6 q 76 260 76 131 l 76 760 q 148 965 76 893 q 347 1036 219 1036 l 561 1036 q 756 964 689 1036 q 822 760 822 892 l 822 260 q 753 63 822 132 q 561 -6 685 -6 l 346 -6 m 506 179 q 617 290 617 179 l 617 740 q 514 851 617 851 l 388 851 q 309 823 336 851 q 282 740 282 794 l 282 292 q 394 179 282 179 l 506 179 z "},"1":{"ha":517,"x_min":43,"x_max":431,"o":"m 225 840 l 43 817 l 43 949 l 247 1038 l 431 1038 l 431 0 l 225 0 l 225 840 z "},"2":{"ha":814,"x_min":64,"x_max":765,"o":"m 64 165 l 407 506 q 499 617 471 567 q 528 722 528 667 q 492 811 528 781 q 376 842 457 842 l 88 842 l 88 1003 q 252 1027 176 1018 q 417 1036 328 1036 q 661 966 589 1036 q 733 756 733 896 q 694 577 733 656 q 568 415 654 499 l 338 186 l 765 186 l 765 0 l 64 0 l 64 165 z "},"3":{"ha":804,"x_min":53,"x_max":739,"o":"m 446 -8 q 53 21 228 -8 l 53 186 l 368 186 q 494 207 456 186 q 532 282 532 228 l 532 325 q 397 428 532 422 l 144 438 l 144 596 l 389 610 q 488 633 454 613 q 521 699 521 654 l 521 733 q 483 815 521 789 q 361 842 446 842 l 75 842 l 75 1006 q 443 1036 286 1039 q 651 970 579 1035 q 724 782 724 906 l 724 706 q 689 583 724 629 q 596 517 654 536 q 698 440 657 499 q 739 297 739 382 l 739 244 q 662 57 739 122 q 446 -8 585 -8 z "},"4":{"ha":860,"x_min":32,"x_max":832,"o":"m 521 218 l 71 218 l 32 315 l 365 1028 l 575 1028 l 276 393 l 521 393 l 521 593 l 561 711 l 726 711 l 726 393 l 832 393 l 832 251 l 726 218 l 726 1 l 521 1 l 521 218 z "},"5":{"ha":843,"x_min":82,"x_max":782,"o":"m 436 -7 q 82 15 301 -7 l 82 178 l 444 178 q 544 211 514 178 q 575 294 575 244 l 575 365 q 469 471 575 471 l 389 471 q 320 452 343 471 q 290 394 297 433 l 96 394 l 125 1028 l 742 1028 l 742 843 l 301 843 l 290 599 q 348 633 311 621 q 431 644 385 644 l 543 644 q 720 577 658 644 q 782 403 782 510 l 782 251 q 694 56 782 118 q 436 -7 607 -7 z "},"6":{"ha":843,"x_min":71,"x_max":782,"o":"m 378 -7 q 206 38 272 -7 q 105 192 139 82 q 71 500 71 303 q 168 913 71 790 q 458 1036 265 1036 q 721 1014 611 1036 l 721 851 l 478 851 q 326 788 375 851 q 276 596 276 724 q 508 619 360 619 q 719 559 656 619 q 782 383 782 499 l 782 236 q 714 52 782 111 q 528 -7 646 -7 l 378 -7 m 481 178 q 552 201 528 178 q 576 276 576 224 l 576 344 q 548 424 576 403 q 451 444 519 444 l 276 444 q 292 283 276 340 q 338 201 307 225 q 419 178 368 178 l 481 178 z "},"7":{"ha":769,"x_min":32,"x_max":735,"o":"m 469 822 l 32 822 l 32 1028 l 681 1028 l 735 940 l 394 0 l 164 0 l 469 822 z "},"8":{"ha":872,"x_min":81,"x_max":792,"o":"m 351 -6 q 154 44 228 -6 q 81 218 81 93 l 81 358 q 111 465 81 419 q 194 524 142 511 q 119 594 136 551 q 101 704 101 638 l 101 821 q 168 984 101 932 q 342 1036 235 1036 l 536 1036 q 707 984 642 1036 q 772 821 772 932 l 772 704 q 750 603 772 656 q 681 540 728 550 q 767 474 743 526 q 792 363 792 422 l 792 218 q 724 44 792 93 q 539 -6 657 -6 l 351 -6 m 488 613 q 553 637 535 613 q 571 707 571 661 l 571 772 q 551 842 571 824 q 490 861 531 861 l 388 861 q 321 842 340 861 q 301 772 301 824 l 301 707 q 321 634 301 656 q 386 613 340 613 l 488 613 m 490 168 q 565 190 544 168 q 586 256 586 211 l 586 347 q 490 438 586 438 l 386 438 q 316 414 346 438 q 286 347 286 390 l 286 256 q 312 189 286 210 q 388 168 338 168 l 490 168 z "},"9":{"ha":843,"x_min":65,"x_max":776,"o":"m 388 -7 q 126 15 233 -7 l 126 178 l 368 178 q 520 242 471 178 q 569 433 569 306 q 469 415 525 419 q 338 410 414 410 q 128 470 190 410 q 65 646 65 531 l 65 793 q 133 976 65 918 q 319 1035 200 1035 l 468 1035 q 640 991 574 1035 q 742 836 707 947 q 776 528 776 725 q 678 115 776 238 q 388 -7 581 -7 m 569 585 q 555 747 569 689 q 510 827 540 804 q 428 850 479 850 l 365 850 q 294 827 318 850 q 271 751 271 804 l 271 685 q 299 606 271 626 q 396 585 328 585 l 569 585 z "},"\r":{"ha":358,"x_min":0,"x_max":0,"o":""}," ":{"ha":358,"x_min":0,"x_max":0,"o":""},"A":{"ha":951,"x_min":24,"x_max":928,"o":"m 346 1028 l 606 1028 l 928 0 l 714 0 l 649 215 l 299 215 l 235 0 l 24 0 l 346 1028 m 600 400 l 474 851 l 347 400 l 600 400 z "},"Á":{"ha":951,"x_min":24,"x_max":928,"o":"m 346 1028 l 606 1028 l 928 0 l 714 0 l 649 215 l 299 215 l 235 0 l 24 0 l 346 1028 m 600 400 l 474 851 l 347 400 l 600 400 m 536 1293 l 701 1293 l 542 1099 l 421 1099 l 536 1293 z "},"Ă":{"ha":951,"x_min":24,"x_max":928,"o":"m 346 1028 l 606 1028 l 928 0 l 714 0 l 649 215 l 299 215 l 235 0 l 24 0 l 346 1028 m 600 400 l 474 851 l 347 400 l 600 400 m 464 1088 q 322 1140 372 1088 q 271 1297 271 1192 l 367 1297 q 394 1209 367 1236 q 464 1182 422 1182 q 561 1297 561 1182 l 658 1297 q 608 1139 658 1190 q 464 1088 557 1088 z "},"Ắ":{"ha":951,"x_min":24,"x_max":928,"o":"m 346 1028 l 606 1028 l 928 0 l 714 0 l 649 215 l 299 215 l 235 0 l 24 0 l 346 1028 m 600 400 l 474 851 l 347 400 l 600 400 m 519 1463 l 685 1463 l 525 1268 l 404 1268 l 519 1463 m 367 1236 q 394 1171 367 1190 q 464 1151 421 1151 q 561 1236 561 1151 l 660 1236 q 609 1109 660 1150 q 464 1068 558 1068 q 321 1110 371 1068 q 271 1236 271 1151 l 367 1236 z "},"Ặ":{"ha":951,"x_min":24,"x_max":928,"o":"m 346 1028 l 606 1028 l 928 0 l 714 0 l 649 215 l 299 215 l 235 0 l 24 0 l 346 1028 m 600 400 l 474 851 l 347 400 l 600 400 m 464 1088 q 322 1140 372 1088 q 271 1297 271 1192 l 367 1297 q 394 1209 367 1236 q 464 1182 422 1182 q 561 1297 561 1182 l 658 1297 q 608 1139 658 1190 q 464 1088 557 1088 m 426 -314 q 406 -306 414 -314 q 397 -285 397 -299 l 397 -150 q 405 -128 397 -136 q 426 -119 413 -119 l 522 -119 q 542 -128 535 -119 q 550 -150 550 -137 l 550 -285 q 522 -314 550 -314 l 426 -314 z "},"Ằ":{"ha":951,"x_min":24,"x_max":928,"o":"m 346 1028 l 606 1028 l 928 0 l 714 0 l 649 215 l 299 215 l 235 0 l 24 0 l 346 1028 m 600 400 l 474 851 l 347 400 l 600 400 m 254 1463 l 421 1463 l 535 1268 l 414 1268 l 254 1463 m 367 1236 q 394 1171 367 1190 q 464 1151 421 1151 q 561 1236 561 1151 l 660 1236 q 609 1109 660 1150 q 464 1068 558 1068 q 321 1110 371 1068 q 271 1236 271 1151 l 367 1236 z "},"Ẳ":{"ha":951,"x_min":24,"x_max":928,"o":"m 346 1028 l 606 1028 l 928 0 l 714 0 l 649 215 l 299 215 l 235 0 l 24 0 l 346 1028 m 600 400 l 474 851 l 347 400 l 600 400 m 435 1300 q 490 1356 490 1315 q 444 1394 490 1394 q 399 1386 429 1394 l 399 1467 q 471 1478 432 1478 q 567 1448 535 1478 q 599 1363 599 1418 q 559 1270 599 1307 q 435 1210 519 1233 l 435 1300 m 464 1068 q 321 1110 371 1068 q 271 1236 271 1151 l 367 1236 q 394 1171 367 1190 q 464 1151 421 1151 q 561 1236 561 1151 l 660 1236 q 609 1109 660 1150 q 464 1068 558 1068 z "},"Ẵ":{"ha":951,"x_min":24,"x_max":928,"o":"m 346 1028 l 606 1028 l 928 0 l 714 0 l 649 215 l 299 215 l 235 0 l 24 0 l 346 1028 m 600 400 l 474 851 l 347 400 l 600 400 m 365 1426 q 463 1404 404 1426 q 497 1392 479 1397 q 529 1388 515 1388 q 569 1399 556 1388 q 583 1433 583 1411 l 686 1433 q 651 1320 679 1351 q 567 1289 624 1289 q 503 1299 536 1289 q 467 1311 471 1310 q 440 1320 463 1313 q 401 1328 417 1328 q 363 1317 378 1328 q 346 1288 349 1306 l 243 1288 q 281 1397 250 1368 q 365 1426 313 1426 m 367 1236 q 394 1171 367 1190 q 464 1151 421 1151 q 561 1236 561 1151 l 660 1236 q 609 1109 660 1150 q 464 1068 558 1068 q 321 1110 371 1068 q 271 1236 271 1151 l 367 1236 z "},"Â":{"ha":951,"x_min":24,"x_max":928,"o":"m 346 1028 l 606 1028 l 928 0 l 714 0 l 649 215 l 299 215 l 235 0 l 24 0 l 346 1028 m 600 400 l 474 851 l 347 400 l 600 400 m 407 1296 l 549 1296 l 685 1099 l 565 1099 l 474 1204 l 376 1099 l 257 1099 l 407 1296 z "},"Ấ":{"ha":951,"x_min":24,"x_max":928,"o":"m 346 1028 l 606 1028 l 928 0 l 714 0 l 649 215 l 299 215 l 235 0 l 24 0 l 346 1028 m 600 400 l 474 851 l 347 400 l 600 400 m 833 1390 l 725 1217 l 604 1217 l 667 1390 l 833 1390 m 549 1250 l 685 1099 l 565 1099 l 475 1158 l 378 1099 l 257 1099 l 408 1250 l 549 1250 z "},"Ậ":{"ha":951,"x_min":24,"x_max":928,"o":"m 346 1028 l 606 1028 l 928 0 l 714 0 l 649 215 l 299 215 l 235 0 l 24 0 l 346 1028 m 600 400 l 474 851 l 347 400 l 600 400 m 407 1296 l 549 1296 l 685 1099 l 565 1099 l 474 1204 l 376 1099 l 257 1099 l 407 1296 m 426 -314 q 406 -306 414 -314 q 397 -285 397 -299 l 397 -150 q 405 -128 397 -136 q 426 -119 413 -119 l 522 -119 q 542 -128 535 -119 q 550 -150 550 -137 l 550 -285 q 522 -314 550 -314 l 426 -314 z "},"Ầ":{"ha":951,"x_min":24,"x_max":928,"o":"m 346 1028 l 606 1028 l 928 0 l 714 0 l 649 215 l 299 215 l 235 0 l 24 0 l 346 1028 m 600 400 l 474 851 l 347 400 l 600 400 m 282 1390 l 346 1217 l 225 1217 l 115 1390 l 282 1390 m 549 1250 l 685 1099 l 565 1099 l 475 1158 l 378 1099 l 257 1099 l 408 1250 l 549 1250 z "},"Ẩ":{"ha":951,"x_min":24,"x_max":928,"o":"m 346 1028 l 606 1028 l 928 0 l 714 0 l 649 215 l 299 215 l 235 0 l 24 0 l 346 1028 m 600 400 l 474 851 l 347 400 l 600 400 m 638 1265 q 681 1311 681 1278 q 673 1335 681 1328 q 646 1343 665 1343 q 601 1335 622 1343 l 601 1406 q 674 1417 635 1417 q 751 1392 725 1417 q 778 1325 778 1368 q 744 1233 778 1269 q 638 1175 711 1196 l 638 1265 m 408 1250 l 549 1250 l 685 1099 l 565 1099 l 475 1158 l 378 1099 l 257 1099 l 408 1250 z "},"Ẫ":{"ha":951,"x_min":24,"x_max":928,"o":"m 346 1028 l 606 1028 l 928 0 l 714 0 l 649 215 l 299 215 l 235 0 l 24 0 l 346 1028 m 600 400 l 474 851 l 347 400 l 600 400 m 365 1447 q 461 1425 406 1447 q 488 1416 467 1424 q 529 1408 510 1408 q 569 1420 556 1408 q 583 1454 583 1432 l 686 1454 q 651 1341 679 1372 q 567 1310 624 1310 q 501 1320 535 1310 q 460 1332 467 1331 q 431 1341 456 1333 q 390 1349 407 1349 q 360 1337 371 1349 q 346 1307 349 1325 l 243 1307 q 281 1417 250 1388 q 365 1447 313 1447 m 685 1099 l 565 1099 l 475 1158 l 378 1099 l 257 1099 l 408 1250 l 549 1250 l 685 1099 z "},"Ȁ":{"ha":951,"x_min":24,"x_max":928,"o":"m 346 1028 l 606 1028 l 928 0 l 714 0 l 649 215 l 299 215 l 235 0 l 24 0 l 346 1028 m 600 400 l 474 851 l 347 400 l 600 400 m 151 1293 l 318 1293 l 432 1099 l 311 1099 l 151 1293 m 400 1293 l 565 1293 l 681 1099 l 558 1099 l 400 1293 z "},"Ä":{"ha":951,"x_min":24,"x_max":928,"o":"m 346 1028 l 606 1028 l 928 0 l 714 0 l 649 215 l 299 215 l 235 0 l 24 0 l 346 1028 m 600 400 l 474 851 l 347 400 l 600 400 m 269 1107 q 249 1115 257 1107 q 240 1136 240 1122 l 240 1271 q 248 1293 240 1285 q 269 1301 256 1301 l 365 1301 q 385 1292 378 1301 q 393 1271 393 1283 l 393 1136 q 365 1107 393 1107 l 269 1107 m 564 1107 q 544 1115 551 1107 q 536 1136 536 1122 l 536 1271 q 543 1293 536 1285 q 564 1301 550 1301 l 660 1301 q 680 1292 672 1301 q 688 1271 688 1283 l 688 1136 q 660 1107 688 1107 l 564 1107 z "},"Ạ":{"ha":951,"x_min":24,"x_max":928,"o":"m 346 1028 l 606 1028 l 928 0 l 714 0 l 649 215 l 299 215 l 235 0 l 24 0 l 346 1028 m 600 400 l 474 851 l 347 400 l 600 400 m 426 -314 q 406 -306 414 -314 q 397 -285 397 -299 l 397 -150 q 405 -128 397 -136 q 426 -119 413 -119 l 522 -119 q 542 -128 535 -119 q 550 -150 550 -137 l 550 -285 q 522 -314 550 -314 l 426 -314 z "},"À":{"ha":951,"x_min":24,"x_max":928,"o":"m 346 1028 l 606 1028 l 928 0 l 714 0 l 649 215 l 299 215 l 235 0 l 24 0 l 346 1028 m 600 400 l 474 851 l 347 400 l 600 400 m 278 1293 l 444 1293 l 558 1099 l 438 1099 l 278 1293 z "},"Ả":{"ha":951,"x_min":24,"x_max":928,"o":"m 346 1028 l 606 1028 l 928 0 l 714 0 l 649 215 l 299 215 l 235 0 l 24 0 l 346 1028 m 600 400 l 474 851 l 347 400 l 600 400 m 432 1158 q 488 1214 488 1174 q 442 1253 488 1253 q 396 1244 426 1253 l 396 1325 q 468 1336 429 1336 q 564 1306 532 1336 q 596 1221 596 1276 q 556 1128 596 1165 q 432 1068 517 1092 l 432 1158 z "},"Ȃ":{"ha":951,"x_min":24,"x_max":928,"o":"m 346 1028 l 606 1028 l 928 0 l 714 0 l 649 215 l 299 215 l 235 0 l 24 0 l 346 1028 m 600 400 l 474 851 l 347 400 l 600 400 m 475 1301 q 617 1249 567 1301 q 668 1092 668 1197 l 572 1092 q 544 1180 572 1153 q 475 1207 517 1207 q 378 1092 378 1207 l 281 1092 q 331 1250 281 1199 q 475 1301 382 1301 z "},"Ā":{"ha":951,"x_min":24,"x_max":928,"o":"m 346 1028 l 606 1028 l 928 0 l 714 0 l 649 215 l 299 215 l 235 0 l 24 0 l 346 1028 m 600 400 l 474 851 l 347 400 l 600 400 m 271 1243 l 661 1243 l 661 1121 l 271 1121 l 271 1243 z "},"Ą":{"ha":951,"x_min":24,"x_max":928,"o":"m 346 1028 l 606 1028 l 928 0 l 714 0 l 649 215 l 299 215 l 235 0 l 24 0 l 346 1028 m 600 400 l 474 851 l 347 400 l 600 400 m 771 -267 q 659 -230 696 -267 q 622 -142 622 -193 q 715 0 622 -49 l 790 0 q 738 -44 754 -22 q 722 -94 722 -67 q 744 -147 722 -128 q 803 -165 767 -165 l 815 -165 l 815 -261 q 771 -267 803 -267 z "},"Å":{"ha":951,"x_min":24,"x_max":928,"o":"m 346 1028 l 606 1028 l 928 0 l 714 0 l 649 215 l 299 215 l 235 0 l 24 0 l 346 1028 m 600 400 l 474 851 l 347 400 l 600 400 m 475 1065 q 345 1101 388 1065 q 303 1222 303 1136 q 346 1344 303 1308 q 475 1381 389 1381 q 603 1344 561 1381 q 644 1222 644 1308 q 603 1101 644 1136 q 475 1065 561 1065 m 475 1142 q 533 1160 515 1142 q 550 1222 550 1178 q 532 1287 550 1268 q 475 1306 514 1306 q 416 1287 435 1306 q 397 1222 397 1268 q 416 1160 397 1178 q 475 1142 435 1142 z "},"Ǻ":{"ha":951,"x_min":24,"x_max":928,"o":"m 475 1065 q 345 1101 388 1065 q 303 1222 303 1136 q 335 1333 303 1296 q 431 1378 367 1369 l 536 1557 l 701 1557 l 550 1372 q 621 1324 597 1360 q 644 1222 644 1288 q 603 1101 644 1136 q 475 1065 561 1065 m 475 1306 q 416 1287 435 1306 q 397 1222 397 1268 q 416 1160 397 1178 q 475 1142 435 1142 q 533 1160 515 1142 q 550 1222 550 1178 q 532 1287 550 1268 q 475 1306 514 1306 m 928 0 l 714 0 l 649 215 l 299 215 l 235 0 l 24 0 l 346 1028 l 606 1028 l 928 0 m 600 400 l 474 851 l 347 400 l 600 400 z "},"Ã":{"ha":951,"x_min":24,"x_max":928,"o":"m 346 1028 l 606 1028 l 928 0 l 714 0 l 649 215 l 299 215 l 235 0 l 24 0 l 346 1028 m 600 400 l 474 851 l 347 400 l 600 400 m 213 1096 q 258 1233 218 1190 q 358 1276 297 1276 q 419 1267 393 1276 q 479 1239 446 1257 q 526 1217 510 1224 q 561 1211 542 1211 q 604 1230 589 1211 q 621 1283 619 1249 l 724 1283 q 683 1144 719 1192 q 581 1097 646 1097 q 519 1107 547 1097 q 456 1135 492 1117 q 413 1156 431 1149 q 376 1163 394 1163 q 334 1144 350 1163 q 315 1096 318 1126 l 213 1096 z "},"Æ":{"ha":1363,"x_min":24,"x_max":1300,"o":"m 894 -7 q 721 30 779 -7 q 653 158 663 67 l 653 214 l 351 214 l 225 0 l 24 0 l 440 763 q 617 969 518 910 q 876 1028 715 1028 q 1300 1010 1033 1028 l 1300 838 l 921 838 q 857 819 876 838 q 838 761 838 800 l 838 604 l 1235 593 l 1235 431 l 838 419 l 838 278 q 865 204 838 222 q 943 186 892 186 l 1300 186 l 1300 15 q 894 -7 1090 -7 m 653 389 l 653 781 l 443 389 l 653 389 z "},"Ǽ":{"ha":1363,"x_min":24,"x_max":1300,"o":"m 894 -7 q 721 30 779 -7 q 653 158 663 67 l 653 214 l 351 214 l 225 0 l 24 0 l 440 763 q 617 969 518 910 q 876 1028 715 1028 q 1300 1010 1033 1028 l 1300 838 l 921 838 q 857 819 876 838 q 838 761 838 800 l 838 604 l 1235 593 l 1235 431 l 838 419 l 838 278 q 865 204 838 222 q 943 186 892 186 l 1300 186 l 1300 15 q 894 -7 1090 -7 m 653 389 l 653 781 l 443 389 l 653 389 m 801 1293 l 967 1293 l 807 1099 l 686 1099 l 801 1293 z "},"B":{"ha":871,"x_min":89,"x_max":819,"o":"m 89 1028 l 493 1028 q 786 758 786 1028 q 749 609 786 667 q 643 533 711 551 q 769 453 718 515 q 819 283 819 390 q 742 65 819 131 q 511 0 665 0 l 89 0 l 89 1028 m 494 604 q 565 638 539 604 q 590 726 590 671 q 563 815 590 788 q 492 843 536 843 l 294 843 l 294 604 l 494 604 m 506 185 q 624 319 624 185 q 591 412 624 378 q 506 446 558 446 l 294 446 l 294 185 l 506 185 z "},"Ḃ":{"ha":871,"x_min":89,"x_max":819,"o":"m 89 1028 l 493 1028 q 786 758 786 1028 q 749 609 786 667 q 643 533 711 551 q 769 453 718 515 q 819 283 819 390 q 742 65 819 131 q 511 0 665 0 l 89 0 l 89 1028 m 494 604 q 565 638 539 604 q 590 726 590 671 q 563 815 590 788 q 492 843 536 843 l 294 843 l 294 604 l 494 604 m 506 185 q 624 319 624 185 q 591 412 624 378 q 506 446 558 446 l 294 446 l 294 185 l 506 185 m 357 1117 q 336 1124 344 1117 q 328 1146 328 1132 l 328 1281 q 335 1303 328 1294 q 357 1311 343 1311 l 453 1311 q 473 1302 465 1311 q 481 1281 481 1293 l 481 1146 q 453 1117 481 1117 l 357 1117 z "},"C":{"ha":814,"x_min":63,"x_max":758,"o":"m 435 -8 q 226 33 306 -8 q 105 188 147 74 q 63 517 63 303 q 106 836 63 722 q 231 994 150 950 q 438 1038 311 1038 q 615 1023 532 1038 q 758 989 699 1008 l 758 829 q 640 846 717 839 q 481 853 564 853 q 353 827 397 853 q 288 730 308 801 q 268 515 268 658 q 286 303 268 374 q 349 204 304 232 q 481 176 393 176 q 758 190 650 176 l 758 32 q 435 -8 635 -8 z "},"Ć":{"ha":814,"x_min":63,"x_max":758,"o":"m 435 -8 q 226 33 306 -8 q 105 188 147 74 q 63 517 63 303 q 106 836 63 722 q 231 994 150 950 q 438 1038 311 1038 q 615 1023 532 1038 q 758 989 699 1008 l 758 829 q 640 846 717 839 q 481 853 564 853 q 353 827 397 853 q 288 730 308 801 q 268 515 268 658 q 286 303 268 374 q 349 204 304 232 q 481 176 393 176 q 758 190 650 176 l 758 32 q 435 -8 635 -8 m 500 1293 l 665 1293 l 506 1099 l 385 1099 l 500 1293 z "},"Č":{"ha":814,"x_min":63,"x_max":758,"o":"m 435 -8 q 226 33 306 -8 q 105 188 147 74 q 63 517 63 303 q 106 836 63 722 q 231 994 150 950 q 438 1038 311 1038 q 615 1023 532 1038 q 758 989 699 1008 l 758 829 q 640 846 717 839 q 481 853 564 853 q 353 827 397 853 q 288 730 308 801 q 268 515 268 658 q 286 303 268 374 q 349 204 304 232 q 481 176 393 176 q 758 190 650 176 l 758 32 q 435 -8 635 -8 m 226 1296 l 346 1296 l 438 1190 l 535 1296 l 654 1296 l 504 1099 l 364 1099 l 226 1296 z "},"Ç":{"ha":814,"x_min":63,"x_max":758,"o":"m 481 853 q 353 827 397 853 q 288 730 308 801 q 268 515 268 658 q 286 303 268 374 q 349 204 304 232 q 481 176 393 176 q 758 190 650 176 l 758 32 q 528 -6 664 0 l 486 -71 q 554 -99 529 -75 q 579 -164 579 -122 q 542 -246 579 -217 q 431 -275 504 -275 l 364 -275 l 364 -190 l 389 -186 q 446 -139 446 -181 q 382 -89 446 -97 l 433 -8 q 225 33 304 -8 q 104 189 146 75 q 63 517 63 303 q 106 836 63 722 q 231 994 150 950 q 438 1038 311 1038 q 615 1023 532 1038 q 758 989 699 1008 l 758 829 q 640 846 717 839 q 481 853 564 853 z "},"Ḉ":{"ha":814,"x_min":63,"x_max":758,"o":"m 506 1099 l 385 1099 l 500 1293 l 665 1293 l 506 1099 m 481 853 q 353 827 397 853 q 288 730 308 801 q 268 515 268 658 q 286 303 268 374 q 349 204 304 232 q 481 176 393 176 q 758 190 650 176 l 758 32 q 528 -6 664 0 l 486 -71 q 554 -99 529 -75 q 579 -164 579 -122 q 542 -246 579 -217 q 431 -275 504 -275 l 364 -275 l 364 -190 l 389 -186 q 446 -139 446 -181 q 382 -89 446 -97 l 433 -8 q 225 33 304 -8 q 104 189 146 75 q 63 517 63 303 q 106 836 63 722 q 231 994 150 950 q 438 1038 311 1038 q 615 1023 532 1038 q 758 989 699 1008 l 758 829 q 640 846 717 839 q 481 853 564 853 z "},"Ĉ":{"ha":814,"x_min":63,"x_max":758,"o":"m 435 -8 q 226 33 306 -8 q 105 188 147 74 q 63 517 63 303 q 106 836 63 722 q 231 994 150 950 q 438 1038 311 1038 q 615 1023 532 1038 q 758 989 699 1008 l 758 829 q 640 846 717 839 q 481 853 564 853 q 353 827 397 853 q 288 730 308 801 q 268 515 268 658 q 286 303 268 374 q 349 204 304 232 q 481 176 393 176 q 758 190 650 176 l 758 32 q 435 -8 635 -8 m 371 1296 l 513 1296 l 649 1099 l 529 1099 l 438 1204 l 340 1099 l 221 1099 l 371 1296 z "},"Ċ":{"ha":814,"x_min":63,"x_max":758,"o":"m 435 -8 q 226 33 306 -8 q 105 188 147 74 q 63 517 63 303 q 106 836 63 722 q 231 994 150 950 q 438 1038 311 1038 q 615 1023 532 1038 q 758 989 699 1008 l 758 829 q 640 846 717 839 q 481 853 564 853 q 353 827 397 853 q 288 730 308 801 q 268 515 268 658 q 286 303 268 374 q 349 204 304 232 q 481 176 393 176 q 758 190 650 176 l 758 32 q 435 -8 635 -8 m 386 1117 q 365 1124 374 1117 q 357 1146 357 1132 l 357 1281 q 365 1303 357 1294 q 386 1311 372 1311 l 482 1311 q 502 1302 494 1311 q 510 1281 510 1293 l 510 1146 q 482 1117 510 1117 l 386 1117 z "},"D":{"ha":944,"x_min":89,"x_max":882,"o":"m 89 1028 l 524 1028 q 801 894 721 1028 q 882 514 882 761 q 793 127 882 254 q 524 0 704 0 l 89 0 l 89 1028 m 503 185 q 636 266 596 185 q 676 514 676 347 q 658 716 676 644 q 601 815 639 788 q 503 843 564 843 l 294 843 l 294 185 l 503 185 z "},"Ð":{"ha":944,"x_min":17,"x_max":882,"o":"m 524 1028 q 801 894 721 1028 q 882 514 882 761 q 793 127 882 254 q 524 0 704 0 l 89 0 l 89 450 l 17 450 l 17 585 l 89 585 l 89 1028 l 524 1028 m 503 185 q 636 266 596 185 q 676 514 676 347 q 658 716 676 644 q 601 815 639 788 q 503 843 564 843 l 294 843 l 294 585 l 460 585 l 460 450 l 294 450 l 294 185 l 503 185 z "},"Ď":{"ha":944,"x_min":89,"x_max":882,"o":"m 89 1028 l 524 1028 q 801 894 721 1028 q 882 514 882 761 q 793 127 882 254 q 524 0 704 0 l 89 0 l 89 1028 m 503 185 q 636 266 596 185 q 676 514 676 347 q 658 716 676 644 q 601 815 639 788 q 503 843 564 843 l 294 843 l 294 185 l 503 185 m 244 1296 l 364 1296 l 456 1190 l 553 1296 l 672 1296 l 522 1099 l 382 1099 l 244 1296 z "},"Đ":{"ha":944,"x_min":17,"x_max":882,"o":"m 524 1028 q 801 894 721 1028 q 882 514 882 761 q 793 127 882 254 q 524 0 704 0 l 89 0 l 89 450 l 17 450 l 17 585 l 89 585 l 89 1028 l 524 1028 m 503 185 q 636 266 596 185 q 676 514 676 347 q 658 716 676 644 q 601 815 639 788 q 503 843 564 843 l 294 843 l 294 585 l 460 585 l 460 450 l 294 450 l 294 185 l 503 185 z "},"Ḋ":{"ha":944,"x_min":89,"x_max":882,"o":"m 89 1028 l 524 1028 q 801 894 721 1028 q 882 514 882 761 q 793 127 882 254 q 524 0 704 0 l 89 0 l 89 1028 m 503 185 q 636 266 596 185 q 676 514 676 347 q 658 716 676 644 q 601 815 639 788 q 503 843 564 843 l 294 843 l 294 185 l 503 185 m 404 1117 q 383 1124 392 1117 q 375 1146 375 1132 l 375 1281 q 383 1303 375 1294 q 404 1311 390 1311 l 500 1311 q 520 1302 513 1311 q 528 1281 528 1293 l 528 1146 q 500 1117 528 1117 l 404 1117 z "},"Ḍ":{"ha":944,"x_min":89,"x_max":882,"o":"m 89 1028 l 524 1028 q 801 894 721 1028 q 882 514 882 761 q 793 127 882 254 q 524 0 704 0 l 89 0 l 89 1028 m 503 185 q 636 266 596 185 q 676 514 676 347 q 658 716 676 644 q 601 815 639 788 q 503 843 564 843 l 294 843 l 294 185 l 503 185 m 363 -314 q 342 -306 350 -314 q 333 -285 333 -299 l 333 -150 q 341 -128 333 -136 q 363 -119 349 -119 l 458 -119 q 478 -128 471 -119 q 486 -150 486 -137 l 486 -285 q 458 -314 486 -314 l 363 -314 z "},"Ḏ":{"ha":944,"x_min":89,"x_max":882,"o":"m 89 1028 l 524 1028 q 801 894 721 1028 q 882 514 882 761 q 793 127 882 254 q 524 0 704 0 l 89 0 l 89 1028 m 503 185 q 636 266 596 185 q 676 514 676 347 q 658 716 676 644 q 601 815 639 788 q 503 843 564 843 l 294 843 l 294 185 l 503 185 m 217 -174 l 607 -174 l 607 -296 l 217 -296 l 217 -174 z "},"E":{"ha":829,"x_min":89,"x_max":768,"o":"m 339 -7 q 164 38 239 -7 q 89 219 89 82 l 89 793 q 158 973 89 918 q 324 1028 226 1028 q 768 1010 536 1028 l 768 838 l 385 838 q 294 753 294 838 l 294 604 l 701 593 l 701 431 l 294 419 l 294 278 q 381 186 294 186 l 768 186 l 768 14 q 339 -7 583 -7 z "},"É":{"ha":829,"x_min":89,"x_max":768,"o":"m 339 -7 q 164 38 239 -7 q 89 219 89 82 l 89 793 q 158 973 89 918 q 324 1028 226 1028 q 768 1010 536 1028 l 768 838 l 385 838 q 294 753 294 838 l 294 604 l 701 593 l 701 431 l 294 419 l 294 278 q 381 186 294 186 l 768 186 l 768 14 q 339 -7 583 -7 m 497 1293 l 663 1293 l 503 1099 l 382 1099 l 497 1293 z "},"Ĕ":{"ha":829,"x_min":89,"x_max":768,"o":"m 339 -7 q 164 38 239 -7 q 89 219 89 82 l 89 793 q 158 973 89 918 q 324 1028 226 1028 q 768 1010 536 1028 l 768 838 l 385 838 q 294 753 294 838 l 294 604 l 701 593 l 701 431 l 294 419 l 294 278 q 381 186 294 186 l 768 186 l 768 14 q 339 -7 583 -7 m 425 1088 q 283 1140 333 1088 q 232 1297 232 1192 l 328 1297 q 356 1209 328 1236 q 425 1182 383 1182 q 522 1297 522 1182 l 619 1297 q 569 1139 619 1190 q 425 1088 518 1088 z "},"Ě":{"ha":829,"x_min":89,"x_max":768,"o":"m 339 -7 q 164 38 239 -7 q 89 219 89 82 l 89 793 q 158 973 89 918 q 324 1028 226 1028 q 768 1010 536 1028 l 768 838 l 385 838 q 294 753 294 838 l 294 604 l 701 593 l 701 431 l 294 419 l 294 278 q 381 186 294 186 l 768 186 l 768 14 q 339 -7 583 -7 m 224 1296 l 343 1296 l 435 1190 l 532 1296 l 651 1296 l 501 1099 l 361 1099 l 224 1296 z "},"Ḝ":{"ha":829,"x_min":89,"x_max":768,"o":"m 425 1088 q 283 1140 333 1088 q 232 1297 232 1192 l 328 1297 q 356 1209 328 1236 q 425 1182 383 1182 q 522 1297 522 1182 l 619 1297 q 569 1139 619 1190 q 425 1088 518 1088 m 385 838 q 294 753 294 838 l 294 604 l 701 593 l 701 431 l 294 419 l 294 278 q 381 186 294 186 l 768 186 l 768 14 q 524 -3 665 1 l 481 -71 q 549 -99 524 -75 q 574 -164 574 -122 q 536 -246 574 -217 q 425 -275 499 -275 l 358 -275 l 358 -190 l 383 -186 q 440 -139 440 -181 q 376 -89 440 -97 l 429 -6 q 339 -7 397 -7 q 164 38 239 -7 q 89 219 89 82 l 89 793 q 158 973 89 918 q 324 1028 226 1028 q 768 1010 536 1028 l 768 838 l 385 838 z "},"Ê":{"ha":829,"x_min":89,"x_max":768,"o":"m 339 -7 q 164 38 239 -7 q 89 219 89 82 l 89 793 q 158 973 89 918 q 324 1028 226 1028 q 768 1010 536 1028 l 768 838 l 385 838 q 294 753 294 838 l 294 604 l 701 593 l 701 431 l 294 419 l 294 278 q 381 186 294 186 l 768 186 l 768 14 q 339 -7 583 -7 m 368 1296 l 510 1296 l 646 1099 l 526 1099 l 435 1204 l 338 1099 l 218 1099 l 368 1296 z "},"Ế":{"ha":829,"x_min":89,"x_max":794,"o":"m 339 -7 q 164 38 239 -7 q 89 219 89 82 l 89 793 q 158 973 89 918 q 324 1028 226 1028 q 768 1010 536 1028 l 768 838 l 385 838 q 294 753 294 838 l 294 604 l 701 593 l 701 431 l 294 419 l 294 278 q 381 186 294 186 l 768 186 l 768 14 q 339 -7 583 -7 m 794 1390 l 686 1217 l 565 1217 l 628 1390 l 794 1390 m 510 1250 l 646 1099 l 526 1099 l 436 1158 l 339 1099 l 218 1099 l 369 1250 l 510 1250 z "},"Ệ":{"ha":829,"x_min":89,"x_max":768,"o":"m 339 -7 q 164 38 239 -7 q 89 219 89 82 l 89 793 q 158 973 89 918 q 324 1028 226 1028 q 768 1010 536 1028 l 768 838 l 385 838 q 294 753 294 838 l 294 604 l 701 593 l 701 431 l 294 419 l 294 278 q 381 186 294 186 l 768 186 l 768 14 q 339 -7 583 -7 m 368 1296 l 510 1296 l 646 1099 l 526 1099 l 435 1204 l 338 1099 l 218 1099 l 368 1296 m 415 -314 q 394 -306 403 -314 q 386 -285 386 -299 l 386 -150 q 394 -128 386 -136 q 415 -119 401 -119 l 511 -119 q 531 -128 524 -119 q 539 -150 539 -137 l 539 -285 q 511 -314 539 -314 l 415 -314 z "},"Ề":{"ha":829,"x_min":76,"x_max":768,"o":"m 339 -7 q 164 38 239 -7 q 89 219 89 82 l 89 793 q 158 973 89 918 q 324 1028 226 1028 q 768 1010 536 1028 l 768 838 l 385 838 q 294 753 294 838 l 294 604 l 701 593 l 701 431 l 294 419 l 294 278 q 381 186 294 186 l 768 186 l 768 14 q 339 -7 583 -7 m 243 1390 l 307 1217 l 186 1217 l 76 1390 l 243 1390 m 510 1250 l 646 1099 l 526 1099 l 436 1158 l 339 1099 l 218 1099 l 369 1250 l 510 1250 z "},"Ể":{"ha":829,"x_min":89,"x_max":768,"o":"m 339 -7 q 164 38 239 -7 q 89 219 89 82 l 89 793 q 158 973 89 918 q 324 1028 226 1028 q 768 1010 536 1028 l 768 838 l 385 838 q 294 753 294 838 l 294 604 l 701 593 l 701 431 l 294 419 l 294 278 q 381 186 294 186 l 768 186 l 768 14 q 339 -7 583 -7 m 599 1265 q 642 1311 642 1278 q 634 1335 642 1328 q 607 1343 626 1343 q 563 1335 583 1343 l 563 1406 q 635 1417 596 1417 q 713 1392 686 1417 q 739 1325 739 1368 q 706 1233 739 1269 q 599 1175 672 1196 l 599 1265 m 369 1250 l 510 1250 l 646 1099 l 526 1099 l 436 1158 l 339 1099 l 218 1099 l 369 1250 z "},"Ễ":{"ha":829,"x_min":89,"x_max":768,"o":"m 339 -7 q 164 38 239 -7 q 89 219 89 82 l 89 793 q 158 973 89 918 q 324 1028 226 1028 q 768 1010 536 1028 l 768 838 l 385 838 q 294 753 294 838 l 294 604 l 701 593 l 701 431 l 294 419 l 294 278 q 381 186 294 186 l 768 186 l 768 14 q 339 -7 583 -7 m 326 1447 q 422 1425 367 1447 q 449 1416 428 1424 q 490 1408 471 1408 q 531 1420 517 1408 q 544 1454 544 1432 l 647 1454 q 613 1341 640 1372 q 528 1310 585 1310 q 462 1320 496 1310 q 421 1332 428 1331 q 392 1341 417 1333 q 351 1349 368 1349 q 321 1337 332 1349 q 307 1307 310 1325 l 204 1307 q 242 1417 211 1388 q 326 1447 274 1447 m 646 1099 l 526 1099 l 436 1158 l 339 1099 l 218 1099 l 369 1250 l 510 1250 l 646 1099 z "},"Ȅ":{"ha":829,"x_min":89,"x_max":768,"o":"m 339 -7 q 164 38 239 -7 q 89 219 89 82 l 89 793 q 158 973 89 918 q 324 1028 226 1028 q 768 1010 536 1028 l 768 838 l 385 838 q 294 753 294 838 l 294 604 l 701 593 l 701 431 l 294 419 l 294 278 q 381 186 294 186 l 768 186 l 768 14 q 339 -7 583 -7 m 113 1293 l 279 1293 l 393 1099 l 272 1099 l 113 1293 m 361 1293 l 526 1293 l 642 1099 l 519 1099 l 361 1293 z "},"Ë":{"ha":829,"x_min":89,"x_max":768,"o":"m 339 -7 q 164 38 239 -7 q 89 219 89 82 l 89 793 q 158 973 89 918 q 324 1028 226 1028 q 768 1010 536 1028 l 768 838 l 385 838 q 294 753 294 838 l 294 604 l 701 593 l 701 431 l 294 419 l 294 278 q 381 186 294 186 l 768 186 l 768 14 q 339 -7 583 -7 m 231 1107 q 210 1115 218 1107 q 201 1136 201 1122 l 201 1271 q 209 1293 201 1285 q 231 1301 217 1301 l 326 1301 q 347 1292 339 1301 q 354 1271 354 1283 l 354 1136 q 326 1107 354 1107 l 231 1107 m 525 1107 q 505 1115 513 1107 q 497 1136 497 1122 l 497 1271 q 504 1293 497 1285 q 525 1301 511 1301 l 621 1301 q 641 1292 633 1301 q 649 1271 649 1283 l 649 1136 q 621 1107 649 1107 l 525 1107 z "},"Ė":{"ha":829,"x_min":89,"x_max":768,"o":"m 339 -7 q 164 38 239 -7 q 89 219 89 82 l 89 793 q 158 973 89 918 q 324 1028 226 1028 q 768 1010 536 1028 l 768 838 l 385 838 q 294 753 294 838 l 294 604 l 701 593 l 701 431 l 294 419 l 294 278 q 381 186 294 186 l 768 186 l 768 14 q 339 -7 583 -7 m 383 1117 q 363 1124 371 1117 q 354 1146 354 1132 l 354 1281 q 362 1303 354 1294 q 383 1311 369 1311 l 479 1311 q 499 1302 492 1311 q 507 1281 507 1293 l 507 1146 q 479 1117 507 1117 l 383 1117 z "},"Ẹ":{"ha":829,"x_min":89,"x_max":768,"o":"m 339 -7 q 164 38 239 -7 q 89 219 89 82 l 89 793 q 158 973 89 918 q 324 1028 226 1028 q 768 1010 536 1028 l 768 838 l 385 838 q 294 753 294 838 l 294 604 l 701 593 l 701 431 l 294 419 l 294 278 q 381 186 294 186 l 768 186 l 768 14 q 339 -7 583 -7 m 415 -314 q 394 -306 403 -314 q 386 -285 386 -299 l 386 -150 q 394 -128 386 -136 q 415 -119 401 -119 l 511 -119 q 531 -128 524 -119 q 539 -150 539 -137 l 539 -285 q 511 -314 539 -314 l 415 -314 z "},"È":{"ha":829,"x_min":89,"x_max":768,"o":"m 339 -7 q 164 38 239 -7 q 89 219 89 82 l 89 793 q 158 973 89 918 q 324 1028 226 1028 q 768 1010 536 1028 l 768 838 l 385 838 q 294 753 294 838 l 294 604 l 701 593 l 701 431 l 294 419 l 294 278 q 381 186 294 186 l 768 186 l 768 14 q 339 -7 583 -7 m 239 1293 l 406 1293 l 519 1099 l 399 1099 l 239 1293 z "},"Ẻ":{"ha":829,"x_min":89,"x_max":768,"o":"m 339 -7 q 164 38 239 -7 q 89 219 89 82 l 89 793 q 158 973 89 918 q 324 1028 226 1028 q 768 1010 536 1028 l 768 838 l 385 838 q 294 753 294 838 l 294 604 l 701 593 l 701 431 l 294 419 l 294 278 q 381 186 294 186 l 768 186 l 768 14 q 339 -7 583 -7 m 393 1158 q 449 1214 449 1174 q 403 1253 449 1253 q 357 1244 388 1253 l 357 1325 q 429 1336 390 1336 q 525 1306 493 1336 q 557 1221 557 1276 q 517 1128 557 1165 q 393 1068 478 1092 l 393 1158 z "},"Ȇ":{"ha":829,"x_min":89,"x_max":768,"o":"m 339 -7 q 164 38 239 -7 q 89 219 89 82 l 89 793 q 158 973 89 918 q 324 1028 226 1028 q 768 1010 536 1028 l 768 838 l 385 838 q 294 753 294 838 l 294 604 l 701 593 l 701 431 l 294 419 l 294 278 q 381 186 294 186 l 768 186 l 768 14 q 339 -7 583 -7 m 436 1301 q 578 1249 528 1301 q 629 1092 629 1197 l 533 1092 q 506 1180 533 1153 q 436 1207 478 1207 q 339 1092 339 1207 l 242 1092 q 292 1250 242 1199 q 436 1301 343 1301 z "},"Ē":{"ha":829,"x_min":89,"x_max":768,"o":"m 339 -7 q 164 38 239 -7 q 89 219 89 82 l 89 793 q 158 973 89 918 q 324 1028 226 1028 q 768 1010 536 1028 l 768 838 l 385 838 q 294 753 294 838 l 294 604 l 701 593 l 701 431 l 294 419 l 294 278 q 381 186 294 186 l 768 186 l 768 14 q 339 -7 583 -7 m 232 1243 l 622 1243 l 622 1121 l 232 1121 l 232 1243 z "},"Ḗ":{"ha":829,"x_min":89,"x_max":768,"o":"m 339 -7 q 164 38 239 -7 q 89 219 89 82 l 89 793 q 158 973 89 918 q 324 1028 226 1028 q 768 1010 536 1028 l 768 838 l 385 838 q 294 753 294 838 l 294 604 l 701 593 l 701 431 l 294 419 l 294 278 q 381 186 294 186 l 768 186 l 768 14 q 339 -7 583 -7 m 232 1243 l 622 1243 l 622 1121 l 232 1121 l 232 1243 m 483 1490 l 649 1490 l 489 1296 l 368 1296 l 483 1490 z "},"Ḕ":{"ha":829,"x_min":89,"x_max":768,"o":"m 339 -7 q 164 38 239 -7 q 89 219 89 82 l 89 793 q 158 973 89 918 q 324 1028 226 1028 q 768 1010 536 1028 l 768 838 l 385 838 q 294 753 294 838 l 294 604 l 701 593 l 701 431 l 294 419 l 294 278 q 381 186 294 186 l 768 186 l 768 14 q 339 -7 583 -7 m 232 1243 l 622 1243 l 622 1121 l 232 1121 l 232 1243 m 208 1490 l 375 1490 l 489 1296 l 368 1296 l 208 1490 z "},"Ę":{"ha":829,"x_min":89,"x_max":793,"o":"m 793 -151 l 793 -247 q 749 -253 781 -253 q 637 -216 674 -253 q 600 -128 600 -179 q 678 6 600 -43 q 339 -7 515 -7 q 164 38 239 -7 q 89 219 89 82 l 89 793 q 158 973 89 918 q 324 1028 226 1028 q 768 1010 536 1028 l 768 838 l 385 838 q 294 753 294 838 l 294 604 l 701 593 l 701 431 l 294 419 l 294 278 q 381 186 294 186 l 768 186 l 768 14 q 716 -31 732 -8 q 700 -81 700 -53 q 722 -133 700 -114 q 781 -151 744 -151 l 793 -151 z "},"Ẽ":{"ha":829,"x_min":89,"x_max":768,"o":"m 339 -7 q 164 38 239 -7 q 89 219 89 82 l 89 793 q 158 973 89 918 q 324 1028 226 1028 q 768 1010 536 1028 l 768 838 l 385 838 q 294 753 294 838 l 294 604 l 701 593 l 701 431 l 294 419 l 294 278 q 381 186 294 186 l 768 186 l 768 14 q 339 -7 583 -7 m 174 1096 q 219 1233 179 1190 q 319 1276 258 1276 q 381 1267 354 1276 q 440 1239 407 1257 q 487 1217 471 1224 q 522 1211 503 1211 q 565 1230 550 1211 q 582 1283 581 1249 l 685 1283 q 644 1144 681 1192 q 542 1097 607 1097 q 481 1107 508 1097 q 417 1135 453 1117 q 374 1156 392 1149 q 338 1163 356 1163 q 295 1144 311 1163 q 276 1096 279 1126 l 174 1096 z "},"F":{"ha":810,"x_min":89,"x_max":768,"o":"m 89 793 q 158 973 89 918 q 324 1028 226 1028 q 768 1010 600 1028 l 768 838 l 381 838 q 317 815 339 838 q 294 756 294 792 l 294 579 l 701 568 l 701 406 l 294 394 l 294 0 l 89 0 l 89 793 z "},"Ḟ":{"ha":810,"x_min":89,"x_max":768,"o":"m 89 793 q 158 973 89 918 q 324 1028 226 1028 q 768 1010 600 1028 l 768 838 l 381 838 q 317 815 339 838 q 294 756 294 792 l 294 579 l 701 568 l 701 406 l 294 394 l 294 0 l 89 0 l 89 793 m 383 1117 q 363 1124 371 1117 q 354 1146 354 1132 l 354 1281 q 362 1303 354 1294 q 383 1311 369 1311 l 479 1311 q 499 1302 492 1311 q 507 1281 507 1293 l 507 1146 q 479 1117 507 1117 l 383 1117 z "},"G":{"ha":925,"x_min":63,"x_max":836,"o":"m 378 -7 q 186 56 256 -7 q 90 231 117 118 q 63 514 63 344 q 94 804 63 692 q 208 977 125 917 q 442 1038 290 1038 q 619 1026 540 1038 q 789 992 699 1014 l 789 833 q 651 847 735 840 q 479 853 567 853 q 346 822 390 853 q 285 719 301 790 q 268 513 268 647 q 285 308 268 378 q 339 210 301 238 q 446 182 376 182 q 550 190 499 182 q 639 211 601 199 l 639 411 l 454 411 l 454 574 q 563 583 496 579 q 692 588 631 588 q 836 583 778 588 l 836 0 l 682 0 l 654 69 q 530 16 603 39 q 378 -7 457 -7 z "},"Ğ":{"ha":925,"x_min":63,"x_max":836,"o":"m 378 -7 q 186 56 256 -7 q 90 231 117 118 q 63 514 63 344 q 94 804 63 692 q 208 977 125 917 q 442 1038 290 1038 q 619 1026 540 1038 q 789 992 699 1014 l 789 833 q 651 847 735 840 q 479 853 567 853 q 346 822 390 853 q 285 719 301 790 q 268 513 268 647 q 285 308 268 378 q 339 210 301 238 q 446 182 376 182 q 550 190 499 182 q 639 211 601 199 l 639 411 l 454 411 l 454 574 q 563 583 496 579 q 692 588 631 588 q 836 583 778 588 l 836 0 l 682 0 l 654 69 q 530 16 603 39 q 378 -7 457 -7 m 443 1088 q 301 1140 351 1088 q 250 1297 250 1192 l 346 1297 q 374 1209 346 1236 q 443 1182 401 1182 q 540 1297 540 1182 l 638 1297 q 587 1139 638 1190 q 443 1088 536 1088 z "},"Ǧ":{"ha":925,"x_min":63,"x_max":836,"o":"m 378 -7 q 186 56 256 -7 q 90 231 117 118 q 63 514 63 344 q 94 804 63 692 q 208 977 125 917 q 442 1038 290 1038 q 619 1026 540 1038 q 789 992 699 1014 l 789 833 q 651 847 735 840 q 479 853 567 853 q 346 822 390 853 q 285 719 301 790 q 268 513 268 647 q 285 308 268 378 q 339 210 301 238 q 446 182 376 182 q 550 190 499 182 q 639 211 601 199 l 639 411 l 454 411 l 454 574 q 563 583 496 579 q 692 588 631 588 q 836 583 778 588 l 836 0 l 682 0 l 654 69 q 530 16 603 39 q 378 -7 457 -7 m 242 1296 l 361 1296 l 453 1190 l 550 1296 l 669 1296 l 519 1099 l 379 1099 l 242 1296 z "},"Ĝ":{"ha":925,"x_min":63,"x_max":836,"o":"m 378 -7 q 186 56 256 -7 q 90 231 117 118 q 63 514 63 344 q 94 804 63 692 q 208 977 125 917 q 442 1038 290 1038 q 619 1026 540 1038 q 789 992 699 1014 l 789 833 q 651 847 735 840 q 479 853 567 853 q 346 822 390 853 q 285 719 301 790 q 268 513 268 647 q 285 308 268 378 q 339 210 301 238 q 446 182 376 182 q 550 190 499 182 q 639 211 601 199 l 639 411 l 454 411 l 454 574 q 563 583 496 579 q 692 588 631 588 q 836 583 778 588 l 836 0 l 682 0 l 654 69 q 530 16 603 39 q 378 -7 457 -7 m 386 1296 l 528 1296 l 664 1099 l 544 1099 l 453 1204 l 356 1099 l 236 1099 l 386 1296 z "},"Ģ":{"ha":925,"x_min":63,"x_max":836,"o":"m 378 -7 q 186 56 256 -7 q 90 231 117 118 q 63 514 63 344 q 94 804 63 692 q 208 977 125 917 q 442 1038 290 1038 q 619 1026 540 1038 q 789 992 699 1014 l 789 833 q 651 847 735 840 q 479 853 567 853 q 346 822 390 853 q 285 719 301 790 q 268 513 268 647 q 285 308 268 378 q 339 210 301 238 q 446 182 376 182 q 550 190 499 182 q 639 211 601 199 l 639 411 l 454 411 l 454 574 q 563 583 496 579 q 692 588 631 588 q 836 583 778 588 l 836 0 l 682 0 l 654 69 q 530 16 603 39 q 378 -7 457 -7 m 369 -215 l 407 -206 q 451 -190 436 -199 q 472 -160 465 -181 q 478 -101 478 -140 l 603 -101 q 568 -255 603 -210 q 442 -300 533 -300 l 369 -300 l 369 -215 z "},"Ġ":{"ha":925,"x_min":63,"x_max":836,"o":"m 378 -7 q 186 56 256 -7 q 90 231 117 118 q 63 514 63 344 q 94 804 63 692 q 208 977 125 917 q 442 1038 290 1038 q 619 1026 540 1038 q 789 992 699 1014 l 789 833 q 651 847 735 840 q 479 853 567 853 q 346 822 390 853 q 285 719 301 790 q 268 513 268 647 q 285 308 268 378 q 339 210 301 238 q 446 182 376 182 q 550 190 499 182 q 639 211 601 199 l 639 411 l 454 411 l 454 574 q 563 583 496 579 q 692 588 631 588 q 836 583 778 588 l 836 0 l 682 0 l 654 69 q 530 16 603 39 q 378 -7 457 -7 m 401 1117 q 381 1124 389 1117 q 372 1146 372 1132 l 372 1281 q 380 1303 372 1294 q 401 1311 388 1311 l 497 1311 q 517 1302 510 1311 q 525 1281 525 1293 l 525 1146 q 497 1117 525 1117 l 401 1117 z "},"Ḡ":{"ha":925,"x_min":63,"x_max":836,"o":"m 378 -7 q 186 56 256 -7 q 90 231 117 118 q 63 514 63 344 q 94 804 63 692 q 208 977 125 917 q 442 1038 290 1038 q 619 1026 540 1038 q 789 992 699 1014 l 789 833 q 651 847 735 840 q 479 853 567 853 q 346 822 390 853 q 285 719 301 790 q 268 513 268 647 q 285 308 268 378 q 339 210 301 238 q 446 182 376 182 q 550 190 499 182 q 639 211 601 199 l 639 411 l 454 411 l 454 574 q 563 583 496 579 q 692 588 631 588 q 836 583 778 588 l 836 0 l 682 0 l 654 69 q 530 16 603 39 q 378 -7 457 -7 m 250 1243 l 640 1243 l 640 1121 l 250 1121 l 250 1243 z "},"H":{"ha":976,"x_min":89,"x_max":889,"o":"m 89 1028 l 294 1028 l 294 600 l 682 600 l 682 1028 l 889 1028 l 889 0 l 682 0 l 682 415 l 294 415 l 294 0 l 89 0 l 89 1028 z "},"Ħ":{"ha":976,"x_min":17,"x_max":961,"o":"m 961 719 l 889 719 l 889 0 l 682 0 l 682 415 l 294 415 l 294 0 l 89 0 l 89 719 l 17 719 l 17 822 l 89 822 l 89 1028 l 294 1028 l 294 822 l 682 822 l 682 1028 l 889 1028 l 889 822 l 961 822 l 961 719 m 682 719 l 294 719 l 294 600 l 682 600 l 682 719 z "},"Ḫ":{"ha":976,"x_min":89,"x_max":889,"o":"m 89 1028 l 294 1028 l 294 600 l 682 600 l 682 1028 l 889 1028 l 889 0 l 682 0 l 682 415 l 294 415 l 294 0 l 89 0 l 89 1028 m 490 -315 q 348 -263 399 -315 q 297 -106 297 -211 l 393 -106 q 421 -194 393 -167 q 490 -221 449 -221 q 588 -106 588 -221 l 685 -106 q 634 -264 685 -212 q 490 -315 583 -315 z "},"Ĥ":{"ha":976,"x_min":89,"x_max":889,"o":"m 89 1028 l 294 1028 l 294 600 l 682 600 l 682 1028 l 889 1028 l 889 0 l 682 0 l 682 415 l 294 415 l 294 0 l 89 0 l 89 1028 m 422 1296 l 564 1296 l 700 1099 l 581 1099 l 489 1204 l 392 1099 l 272 1099 l 422 1296 z "},"Ḥ":{"ha":976,"x_min":89,"x_max":889,"o":"m 89 1028 l 294 1028 l 294 600 l 682 600 l 682 1028 l 889 1028 l 889 0 l 682 0 l 682 415 l 294 415 l 294 0 l 89 0 l 89 1028 m 442 -314 q 421 -306 429 -314 q 413 -285 413 -299 l 413 -150 q 420 -128 413 -136 q 442 -119 428 -119 l 538 -119 q 558 -128 550 -119 q 565 -150 565 -137 l 565 -285 q 538 -314 565 -314 l 442 -314 z "},"I":{"ha":383,"x_min":89,"x_max":294,"o":"m 89 1028 l 294 1028 l 294 0 l 89 0 l 89 1028 z "},"Í":{"ha":383,"x_min":89,"x_max":419,"o":"m 89 1028 l 294 1028 l 294 0 l 89 0 l 89 1028 m 254 1293 l 419 1293 l 260 1099 l 139 1099 l 254 1293 z "},"Ĭ":{"ha":383,"x_min":-11,"x_max":376,"o":"m 89 1028 l 294 1028 l 294 0 l 89 0 l 89 1028 m 182 1088 q 40 1140 90 1088 q -11 1297 -11 1192 l 85 1297 q 113 1209 85 1236 q 182 1182 140 1182 q 279 1297 279 1182 l 376 1297 q 326 1139 376 1190 q 182 1088 275 1088 z "},"Î":{"ha":383,"x_min":-25,"x_max":403,"o":"m 89 1028 l 294 1028 l 294 0 l 89 0 l 89 1028 m 125 1296 l 267 1296 l 403 1099 l 283 1099 l 192 1204 l 94 1099 l -25 1099 l 125 1296 z "},"Ȉ":{"ha":383,"x_min":-131,"x_max":399,"o":"m 89 1028 l 294 1028 l 294 0 l 89 0 l 89 1028 m -131 1293 l 36 1293 l 150 1099 l 29 1099 l -131 1293 m 118 1293 l 283 1293 l 399 1099 l 276 1099 l 118 1293 z "},"Ï":{"ha":383,"x_min":-42,"x_max":406,"o":"m 89 1028 l 294 1028 l 294 0 l 89 0 l 89 1028 m -12 1107 q -33 1115 -25 1107 q -42 1136 -42 1122 l -42 1271 q -34 1293 -42 1285 q -12 1301 -26 1301 l 83 1301 q 103 1292 96 1301 q 111 1271 111 1283 l 111 1136 q 83 1107 111 1107 l -12 1107 m 282 1107 q 262 1115 269 1107 q 254 1136 254 1122 l 254 1271 q 261 1293 254 1285 q 282 1301 268 1301 l 378 1301 q 398 1292 390 1301 q 406 1271 406 1283 l 406 1136 q 378 1107 406 1107 l 282 1107 z "},"Ḯ":{"ha":383,"x_min":-42,"x_max":410,"o":"m 89 1028 l 294 1028 l 294 0 l 89 0 l 89 1028 m -12 1107 q -33 1115 -25 1107 q -42 1136 -42 1122 l -42 1271 q -34 1293 -42 1285 q -12 1301 -26 1301 l 83 1301 q 103 1292 96 1301 q 111 1271 111 1283 l 111 1136 q 83 1107 111 1107 l -12 1107 m 282 1107 q 262 1115 269 1107 q 254 1136 254 1122 l 254 1271 q 261 1293 254 1285 q 282 1301 268 1301 l 378 1301 q 398 1292 390 1301 q 406 1271 406 1283 l 406 1136 q 378 1107 406 1107 l 282 1107 m 244 1542 l 410 1542 l 250 1347 l 129 1347 l 244 1542 z "},"İ":{"ha":383,"x_min":89,"x_max":294,"o":"m 89 1028 l 294 1028 l 294 0 l 89 0 l 89 1028 m 140 1117 q 119 1124 128 1117 q 111 1146 111 1132 l 111 1281 q 119 1303 111 1294 q 140 1311 126 1311 l 236 1311 q 256 1302 249 1311 q 264 1281 264 1293 l 264 1146 q 236 1117 264 1117 l 140 1117 z "},"Ị":{"ha":383,"x_min":89,"x_max":294,"o":"m 89 1028 l 294 1028 l 294 0 l 89 0 l 89 1028 m 144 -314 q 124 -306 132 -314 q 115 -285 115 -299 l 115 -150 q 123 -128 115 -136 q 144 -119 131 -119 l 240 -119 q 260 -128 253 -119 q 268 -150 268 -137 l 268 -285 q 240 -314 268 -314 l 144 -314 z "},"Ì":{"ha":383,"x_min":-4,"x_max":294,"o":"m 89 1028 l 294 1028 l 294 0 l 89 0 l 89 1028 m -4 1293 l 163 1293 l 276 1099 l 156 1099 l -4 1293 z "},"Ỉ":{"ha":383,"x_min":89,"x_max":314,"o":"m 89 1028 l 294 1028 l 294 0 l 89 0 l 89 1028 m 150 1158 q 206 1214 206 1174 q 160 1253 206 1253 q 114 1244 144 1253 l 114 1325 q 186 1336 147 1336 q 282 1306 250 1336 q 314 1221 314 1276 q 274 1128 314 1165 q 150 1068 235 1092 l 150 1158 z "},"Ȋ":{"ha":383,"x_min":-1,"x_max":386,"o":"m 89 1028 l 294 1028 l 294 0 l 89 0 l 89 1028 m 193 1301 q 335 1249 285 1301 q 386 1092 386 1197 l 290 1092 q 263 1180 290 1153 q 193 1207 235 1207 q 96 1092 96 1207 l -1 1092 q 49 1250 -1 1199 q 193 1301 100 1301 z "},"Ī":{"ha":383,"x_min":-11,"x_max":379,"o":"m 89 1028 l 294 1028 l 294 0 l 89 0 l 89 1028 m -11 1243 l 379 1243 l 379 1121 l -11 1121 l -11 1243 z "},"Į":{"ha":383,"x_min":89,"x_max":321,"o":"m 89 1028 l 294 1028 l 294 0 l 89 0 l 89 1028 m 276 -267 q 165 -230 201 -267 q 128 -142 128 -193 q 221 0 128 -49 l 296 0 q 244 -44 260 -22 q 228 -94 228 -67 q 250 -147 228 -128 q 308 -165 272 -165 l 321 -165 l 321 -261 q 276 -267 308 -267 z "},"Ĩ":{"ha":383,"x_min":-69,"x_max":442,"o":"m 89 1028 l 294 1028 l 294 0 l 89 0 l 89 1028 m -69 1096 q -24 1233 -64 1190 q 76 1276 15 1276 q 138 1267 111 1276 q 197 1239 164 1257 q 244 1217 228 1224 q 279 1211 260 1211 q 322 1230 307 1211 q 339 1283 338 1249 l 442 1283 q 401 1144 438 1192 q 299 1097 364 1097 q 238 1107 265 1097 q 174 1135 210 1117 q 131 1156 149 1149 q 94 1163 113 1163 q 52 1144 68 1163 q 33 1096 36 1126 l -69 1096 z "},"J":{"ha":561,"x_min":36,"x_max":472,"o":"m 206 -8 q 117 0 163 -8 q 36 19 71 8 l 36 183 q 158 176 133 176 q 240 201 213 176 q 267 283 267 226 l 267 1028 l 472 1028 l 472 253 q 409 56 472 119 q 206 -8 346 -8 z "},"Ĵ":{"ha":561,"x_min":36,"x_max":581,"o":"m 206 -8 q 117 0 163 -8 q 36 19 71 8 l 36 183 q 158 176 133 176 q 240 201 213 176 q 267 283 267 226 l 267 1028 l 472 1028 l 472 253 q 409 56 472 119 q 206 -8 346 -8 m 303 1296 l 444 1296 l 581 1099 l 461 1099 l 369 1204 l 272 1099 l 153 1099 l 303 1296 z "},"K":{"ha":896,"x_min":89,"x_max":869,"o":"m 89 1028 l 294 1028 l 294 603 l 431 603 l 642 1028 l 861 1028 l 594 511 l 869 0 l 650 0 l 431 417 l 294 417 l 294 0 l 89 0 l 89 1028 z "},"Ķ":{"ha":896,"x_min":89,"x_max":869,"o":"m 89 1028 l 294 1028 l 294 603 l 431 603 l 642 1028 l 861 1028 l 594 511 l 869 0 l 650 0 l 431 417 l 294 417 l 294 0 l 89 0 l 89 1028 m 326 -215 l 364 -206 q 408 -190 393 -199 q 428 -160 422 -181 q 435 -101 435 -140 l 560 -101 q 525 -255 560 -210 q 399 -300 490 -300 l 326 -300 l 326 -215 z "},"L":{"ha":743,"x_min":89,"x_max":711,"o":"m 332 0 q 149 57 208 0 q 89 243 89 114 l 89 1028 l 294 1028 l 294 276 q 386 186 294 186 l 711 186 l 711 0 l 332 0 z "},"Ĺ":{"ha":743,"x_min":89,"x_max":711,"o":"m 332 0 q 149 57 208 0 q 89 243 89 114 l 89 1028 l 294 1028 l 294 276 q 386 186 294 186 l 711 186 l 711 0 l 332 0 m 254 1293 l 419 1293 l 260 1099 l 139 1099 l 254 1293 z "},"Ľ":{"ha":743,"x_min":89,"x_max":711,"o":"m 332 0 q 149 57 208 0 q 89 243 89 114 l 89 1028 l 294 1028 l 294 276 q 386 186 294 186 l 711 186 l 711 0 l 332 0 m 393 999 l 393 1088 l 579 1088 l 579 999 l 568 808 l 406 808 l 393 999 z "},"Ļ":{"ha":743,"x_min":89,"x_max":711,"o":"m 332 0 q 149 57 208 0 q 89 243 89 114 l 89 1028 l 294 1028 l 294 276 q 386 186 294 186 l 711 186 l 711 0 l 332 0 m 282 -215 l 319 -206 q 363 -190 349 -199 q 384 -160 378 -181 q 390 -101 390 -140 l 515 -101 q 481 -255 515 -210 q 354 -300 446 -300 l 282 -300 l 282 -215 z "},"Ŀ":{"ha":743,"x_min":89,"x_max":711,"o":"m 332 0 q 149 57 208 0 q 89 243 89 114 l 89 1028 l 294 1028 l 294 276 q 386 186 294 186 l 711 186 l 711 0 l 332 0 m 522 467 q 501 474 510 467 q 493 494 493 482 l 493 617 q 522 647 493 647 l 640 647 q 671 617 671 647 l 671 494 q 640 467 671 467 l 522 467 z "},"Ḷ":{"ha":743,"x_min":89,"x_max":711,"o":"m 332 0 q 149 57 208 0 q 89 243 89 114 l 89 1028 l 294 1028 l 294 276 q 386 186 294 186 l 711 186 l 711 0 l 332 0 m 354 -314 q 333 -306 342 -314 q 325 -285 325 -299 l 325 -150 q 333 -128 325 -136 q 354 -119 340 -119 l 450 -119 q 470 -128 463 -119 q 478 -150 478 -137 l 478 -285 q 450 -314 478 -314 l 354 -314 z "},"Ḻ":{"ha":743,"x_min":89,"x_max":711,"o":"m 332 0 q 149 57 208 0 q 89 243 89 114 l 89 1028 l 294 1028 l 294 276 q 386 186 294 186 l 711 186 l 711 0 l 332 0 m 208 -174 l 599 -174 l 599 -296 l 208 -296 l 208 -174 z "},"Ł":{"ha":743,"x_min":-6,"x_max":711,"o":"m 711 186 l 711 0 l 332 0 q 149 57 208 0 q 89 243 89 114 l 89 463 l -6 422 l -6 532 l 89 572 l 89 1028 l 294 1028 l 294 636 l 472 714 l 472 604 l 294 526 l 294 276 q 386 186 294 186 l 711 186 z "},"M":{"ha":1226,"x_min":61,"x_max":1165,"o":"m 967 0 l 888 672 l 708 0 l 515 0 l 336 664 l 260 0 l 61 0 l 181 1028 l 378 1028 l 614 240 l 849 1028 l 1044 1028 l 1165 0 l 967 0 z "},"Ṁ":{"ha":1226,"x_min":61,"x_max":1165,"o":"m 967 0 l 888 672 l 708 0 l 515 0 l 336 664 l 260 0 l 61 0 l 181 1028 l 378 1028 l 614 240 l 849 1028 l 1044 1028 l 1165 0 l 967 0 m 551 1117 q 531 1124 539 1117 q 522 1146 522 1132 l 522 1281 q 530 1303 522 1294 q 551 1311 538 1311 l 647 1311 q 667 1302 660 1311 q 675 1281 675 1293 l 675 1146 q 647 1117 675 1117 l 551 1117 z "},"Ṃ":{"ha":1226,"x_min":61,"x_max":1165,"o":"m 967 0 l 888 672 l 708 0 l 515 0 l 336 664 l 260 0 l 61 0 l 181 1028 l 378 1028 l 614 240 l 849 1028 l 1044 1028 l 1165 0 l 967 0 m 556 -314 q 535 -306 543 -314 q 526 -285 526 -299 l 526 -150 q 534 -128 526 -136 q 556 -119 542 -119 l 651 -119 q 672 -128 664 -119 q 679 -150 679 -137 l 679 -285 q 651 -314 679 -314 l 556 -314 z "},"N":{"ha":978,"x_min":96,"x_max":897,"o":"m 96 1028 l 261 1028 l 692 350 l 692 1028 l 897 1028 l 897 0 l 732 0 l 303 678 l 303 0 l 96 0 l 96 1028 z "},"Ń":{"ha":978,"x_min":96,"x_max":897,"o":"m 96 1028 l 261 1028 l 692 350 l 692 1028 l 897 1028 l 897 0 l 732 0 l 303 678 l 303 0 l 96 0 l 96 1028 m 538 1293 l 703 1293 l 543 1099 l 422 1099 l 538 1293 z "},"Ň":{"ha":978,"x_min":96,"x_max":897,"o":"m 96 1028 l 261 1028 l 692 350 l 692 1028 l 897 1028 l 897 0 l 732 0 l 303 678 l 303 0 l 96 0 l 96 1028 m 264 1296 l 383 1296 l 475 1190 l 572 1296 l 692 1296 l 542 1099 l 401 1099 l 264 1296 z "},"Ņ":{"ha":978,"x_min":96,"x_max":897,"o":"m 96 1028 l 261 1028 l 692 350 l 692 1028 l 897 1028 l 897 0 l 732 0 l 303 678 l 303 0 l 96 0 l 96 1028 m 356 -215 l 393 -206 q 437 -190 422 -199 q 458 -160 451 -181 q 464 -101 464 -140 l 589 -101 q 554 -255 589 -210 q 428 -300 519 -300 l 356 -300 l 356 -215 z "},"Ṅ":{"ha":978,"x_min":96,"x_max":897,"o":"m 96 1028 l 261 1028 l 692 350 l 692 1028 l 897 1028 l 897 0 l 732 0 l 303 678 l 303 0 l 96 0 l 96 1028 m 428 -314 q 407 -306 415 -314 q 399 -285 399 -299 l 399 -150 q 406 -128 399 -136 q 428 -119 414 -119 l 524 -119 q 544 -128 536 -119 q 551 -150 551 -137 l 551 -285 q 524 -314 551 -314 l 428 -314 z "},"Ṇ":{"ha":978,"x_min":96,"x_max":897,"o":"m 96 1028 l 261 1028 l 692 350 l 692 1028 l 897 1028 l 897 0 l 732 0 l 303 678 l 303 0 l 96 0 l 96 1028 m 428 -314 q 407 -306 415 -314 q 399 -285 399 -299 l 399 -150 q 406 -128 399 -136 q 428 -119 414 -119 l 524 -119 q 544 -128 536 -119 q 551 -150 551 -137 l 551 -285 q 524 -314 551 -314 l 428 -314 z "},"Ŋ":{"ha":968,"x_min":96,"x_max":897,"o":"m 897 1028 l 897 -76 q 832 -274 897 -210 q 624 -337 767 -337 q 535 -329 581 -337 q 454 -310 489 -321 l 454 -146 q 583 -153 554 -153 q 665 -128 638 -153 q 692 -47 692 -103 l 692 64 l 303 678 l 303 0 l 96 0 l 96 1028 l 261 1028 l 692 350 l 692 1028 l 897 1028 z "},"Ṉ":{"ha":978,"x_min":96,"x_max":897,"o":"m 96 1028 l 261 1028 l 692 350 l 692 1028 l 897 1028 l 897 0 l 732 0 l 303 678 l 303 0 l 96 0 l 96 1028 m 282 -174 l 672 -174 l 672 -296 l 282 -296 l 282 -174 z "},"Ñ":{"ha":978,"x_min":96,"x_max":897,"o":"m 96 1028 l 261 1028 l 692 350 l 692 1028 l 897 1028 l 897 0 l 732 0 l 303 678 l 303 0 l 96 0 l 96 1028 m 214 1096 q 259 1233 219 1190 q 360 1276 299 1276 q 421 1267 394 1276 q 481 1239 447 1257 q 527 1217 511 1224 q 563 1211 543 1211 q 606 1230 590 1211 q 622 1283 621 1249 l 725 1283 q 684 1144 721 1192 q 582 1097 647 1097 q 521 1107 549 1097 q 457 1135 493 1117 q 414 1156 432 1149 q 378 1163 396 1163 q 335 1144 351 1163 q 317 1096 319 1126 l 214 1096 z "},"O":{"ha":971,"x_min":63,"x_max":908,"o":"m 486 -8 q 244 32 335 -8 q 108 185 154 72 q 63 513 63 297 q 109 841 63 728 q 246 996 156 954 q 486 1038 336 1038 q 727 996 638 1038 q 863 841 817 954 q 908 513 908 728 q 863 185 908 297 q 727 32 817 72 q 486 -8 638 -8 m 486 176 q 619 202 574 176 q 683 299 664 228 q 703 513 703 371 q 683 731 703 660 q 619 828 664 803 q 486 853 574 853 q 355 828 400 853 q 289 731 310 803 q 268 513 268 658 q 288 299 268 369 q 352 202 307 228 q 486 176 397 176 z "},"Ó":{"ha":971,"x_min":63,"x_max":908,"o":"m 486 -8 q 244 32 335 -8 q 108 185 154 72 q 63 513 63 297 q 109 841 63 728 q 246 996 156 954 q 486 1038 336 1038 q 727 996 638 1038 q 863 841 817 954 q 908 513 908 728 q 863 185 908 297 q 727 32 817 72 q 486 -8 638 -8 m 486 176 q 619 202 574 176 q 683 299 664 228 q 703 513 703 371 q 683 731 703 660 q 619 828 664 803 q 486 853 574 853 q 355 828 400 853 q 289 731 310 803 q 268 513 268 658 q 288 299 268 369 q 352 202 307 228 q 486 176 397 176 m 549 1293 l 714 1293 l 554 1099 l 433 1099 l 549 1293 z "},"Ŏ":{"ha":971,"x_min":63,"x_max":908,"o":"m 486 -8 q 244 32 335 -8 q 108 185 154 72 q 63 513 63 297 q 109 841 63 728 q 246 996 156 954 q 486 1038 336 1038 q 727 996 638 1038 q 863 841 817 954 q 908 513 908 728 q 863 185 908 297 q 727 32 817 72 q 486 -8 638 -8 m 486 176 q 619 202 574 176 q 683 299 664 228 q 703 513 703 371 q 683 731 703 660 q 619 828 664 803 q 486 853 574 853 q 355 828 400 853 q 289 731 310 803 q 268 513 268 658 q 288 299 268 369 q 352 202 307 228 q 486 176 397 176 m 476 1088 q 334 1140 385 1088 q 283 1297 283 1192 l 379 1297 q 407 1209 379 1236 q 476 1182 435 1182 q 574 1297 574 1182 l 671 1297 q 620 1139 671 1190 q 476 1088 569 1088 z "},"Ô":{"ha":971,"x_min":63,"x_max":908,"o":"m 486 -8 q 244 32 335 -8 q 108 185 154 72 q 63 513 63 297 q 109 841 63 728 q 246 996 156 954 q 486 1038 336 1038 q 727 996 638 1038 q 863 841 817 954 q 908 513 908 728 q 863 185 908 297 q 727 32 817 72 q 486 -8 638 -8 m 486 176 q 619 202 574 176 q 683 299 664 228 q 703 513 703 371 q 683 731 703 660 q 619 828 664 803 q 486 853 574 853 q 355 828 400 853 q 289 731 310 803 q 268 513 268 658 q 288 299 268 369 q 352 202 307 228 q 486 176 397 176 m 419 1296 l 561 1296 l 697 1099 l 578 1099 l 486 1204 l 389 1099 l 269 1099 l 419 1296 z "},"Ố":{"ha":971,"x_min":63,"x_max":908,"o":"m 486 -8 q 244 32 335 -8 q 108 185 154 72 q 63 513 63 297 q 109 841 63 728 q 246 996 156 954 q 486 1038 336 1038 q 727 996 638 1038 q 863 841 817 954 q 908 513 908 728 q 863 185 908 297 q 727 32 817 72 q 486 -8 638 -8 m 486 176 q 619 202 574 176 q 683 299 664 228 q 703 513 703 371 q 683 731 703 660 q 619 828 664 803 q 486 853 574 853 q 355 828 400 853 q 289 731 310 803 q 268 513 268 658 q 288 299 268 369 q 352 202 307 228 q 486 176 397 176 m 846 1390 l 738 1217 l 617 1217 l 679 1390 l 846 1390 m 561 1250 l 697 1099 l 578 1099 l 488 1158 l 390 1099 l 269 1099 l 421 1250 l 561 1250 z "},"Ộ":{"ha":971,"x_min":63,"x_max":908,"o":"m 486 -8 q 244 32 335 -8 q 108 185 154 72 q 63 513 63 297 q 109 841 63 728 q 246 996 156 954 q 486 1038 336 1038 q 727 996 638 1038 q 863 841 817 954 q 908 513 908 728 q 863 185 908 297 q 727 32 817 72 q 486 -8 638 -8 m 486 176 q 619 202 574 176 q 683 299 664 228 q 703 513 703 371 q 683 731 703 660 q 619 828 664 803 q 486 853 574 853 q 355 828 400 853 q 289 731 310 803 q 268 513 268 658 q 288 299 268 369 q 352 202 307 228 q 486 176 397 176 m 419 1296 l 561 1296 l 697 1099 l 578 1099 l 486 1204 l 389 1099 l 269 1099 l 419 1296 m 439 -314 q 418 -306 426 -314 q 410 -285 410 -299 l 410 -150 q 417 -128 410 -136 q 439 -119 425 -119 l 535 -119 q 555 -128 547 -119 q 563 -150 563 -137 l 563 -285 q 535 -314 563 -314 l 439 -314 z "},"Ồ":{"ha":971,"x_min":63,"x_max":908,"o":"m 486 -8 q 244 32 335 -8 q 108 185 154 72 q 63 513 63 297 q 109 841 63 728 q 246 996 156 954 q 486 1038 336 1038 q 727 996 638 1038 q 863 841 817 954 q 908 513 908 728 q 863 185 908 297 q 727 32 817 72 q 486 -8 638 -8 m 486 176 q 619 202 574 176 q 683 299 664 228 q 703 513 703 371 q 683 731 703 660 q 619 828 664 803 q 486 853 574 853 q 355 828 400 853 q 289 731 310 803 q 268 513 268 658 q 288 299 268 369 q 352 202 307 228 q 486 176 397 176 m 294 1390 l 358 1217 l 238 1217 l 128 1390 l 294 1390 m 561 1250 l 697 1099 l 578 1099 l 488 1158 l 390 1099 l 269 1099 l 421 1250 l 561 1250 z "},"Ổ":{"ha":971,"x_min":63,"x_max":908,"o":"m 486 -8 q 244 32 335 -8 q 108 185 154 72 q 63 513 63 297 q 109 841 63 728 q 246 996 156 954 q 486 1038 336 1038 q 727 996 638 1038 q 863 841 817 954 q 908 513 908 728 q 863 185 908 297 q 727 32 817 72 q 486 -8 638 -8 m 486 176 q 619 202 574 176 q 683 299 664 228 q 703 513 703 371 q 683 731 703 660 q 619 828 664 803 q 486 853 574 853 q 355 828 400 853 q 289 731 310 803 q 268 513 268 658 q 288 299 268 369 q 352 202 307 228 q 486 176 397 176 m 650 1265 q 693 1311 693 1278 q 685 1335 693 1328 q 658 1343 678 1343 q 614 1335 635 1343 l 614 1406 q 686 1417 647 1417 q 764 1392 738 1417 q 790 1325 790 1368 q 757 1233 790 1269 q 650 1175 724 1196 l 650 1265 m 421 1250 l 561 1250 l 697 1099 l 578 1099 l 488 1158 l 390 1099 l 269 1099 l 421 1250 z "},"Ỗ":{"ha":971,"x_min":63,"x_max":908,"o":"m 486 -8 q 244 32 335 -8 q 108 185 154 72 q 63 513 63 297 q 109 841 63 728 q 246 996 156 954 q 486 1038 336 1038 q 727 996 638 1038 q 863 841 817 954 q 908 513 908 728 q 863 185 908 297 q 727 32 817 72 q 486 -8 638 -8 m 486 176 q 619 202 574 176 q 683 299 664 228 q 703 513 703 371 q 683 731 703 660 q 619 828 664 803 q 486 853 574 853 q 355 828 400 853 q 289 731 310 803 q 268 513 268 658 q 288 299 268 369 q 352 202 307 228 q 486 176 397 176 m 378 1447 q 474 1425 418 1447 q 501 1416 479 1424 q 542 1408 522 1408 q 582 1420 568 1408 q 596 1454 596 1432 l 699 1454 q 664 1341 692 1372 q 579 1310 636 1310 q 513 1320 547 1310 q 472 1332 479 1331 q 444 1341 468 1333 q 403 1349 419 1349 q 372 1337 383 1349 q 358 1307 361 1325 l 256 1307 q 294 1417 263 1388 q 378 1447 325 1447 m 697 1099 l 578 1099 l 488 1158 l 390 1099 l 269 1099 l 421 1250 l 561 1250 l 697 1099 z "},"Ȍ":{"ha":971,"x_min":63,"x_max":908,"o":"m 486 -8 q 244 32 335 -8 q 108 185 154 72 q 63 513 63 297 q 109 841 63 728 q 246 996 156 954 q 486 1038 336 1038 q 727 996 638 1038 q 863 841 817 954 q 908 513 908 728 q 863 185 908 297 q 727 32 817 72 q 486 -8 638 -8 m 486 176 q 619 202 574 176 q 683 299 664 228 q 703 513 703 371 q 683 731 703 660 q 619 828 664 803 q 486 853 574 853 q 355 828 400 853 q 289 731 310 803 q 268 513 268 658 q 288 299 268 369 q 352 202 307 228 q 486 176 397 176 m 164 1293 l 331 1293 l 444 1099 l 324 1099 l 164 1293 m 413 1293 l 578 1293 l 693 1099 l 571 1099 l 413 1293 z "},"Ö":{"ha":971,"x_min":63,"x_max":908,"o":"m 486 -8 q 244 32 335 -8 q 108 185 154 72 q 63 513 63 297 q 109 841 63 728 q 246 996 156 954 q 486 1038 336 1038 q 727 996 638 1038 q 863 841 817 954 q 908 513 908 728 q 863 185 908 297 q 727 32 817 72 q 486 -8 638 -8 m 486 176 q 619 202 574 176 q 683 299 664 228 q 703 513 703 371 q 683 731 703 660 q 619 828 664 803 q 486 853 574 853 q 355 828 400 853 q 289 731 310 803 q 268 513 268 658 q 288 299 268 369 q 352 202 307 228 q 486 176 397 176 m 282 1107 q 261 1115 269 1107 q 253 1136 253 1122 l 253 1271 q 260 1293 253 1285 q 282 1301 268 1301 l 378 1301 q 398 1292 390 1301 q 406 1271 406 1283 l 406 1136 q 378 1107 406 1107 l 282 1107 m 576 1107 q 556 1115 564 1107 q 549 1136 549 1122 l 549 1271 q 556 1293 549 1285 q 576 1301 563 1301 l 672 1301 q 692 1292 685 1301 q 700 1271 700 1283 l 700 1136 q 672 1107 700 1107 l 576 1107 z "},"Ȫ":{"ha":971,"x_min":63,"x_max":908,"o":"m 486 -8 q 244 32 335 -8 q 108 185 154 72 q 63 513 63 297 q 109 841 63 728 q 246 996 156 954 q 486 1038 336 1038 q 727 996 638 1038 q 863 841 817 954 q 908 513 908 728 q 863 185 908 297 q 727 32 817 72 q 486 -8 638 -8 m 486 176 q 619 202 574 176 q 683 299 664 228 q 703 513 703 371 q 683 731 703 660 q 619 828 664 803 q 486 853 574 853 q 355 828 400 853 q 289 731 310 803 q 268 513 268 658 q 288 299 268 369 q 352 202 307 228 q 486 176 397 176 m 289 1107 q 268 1115 276 1107 q 260 1136 260 1122 l 260 1271 q 267 1293 260 1285 q 289 1301 275 1301 l 385 1301 q 405 1292 397 1301 q 413 1271 413 1283 l 413 1136 q 385 1107 413 1107 l 289 1107 m 583 1107 q 563 1115 571 1107 q 556 1136 556 1122 l 556 1271 q 563 1293 556 1285 q 583 1301 569 1301 l 679 1301 q 699 1292 692 1301 q 707 1271 707 1283 l 707 1136 q 679 1107 707 1107 l 583 1107 m 290 1503 l 681 1503 l 681 1381 l 290 1381 l 290 1503 z "},"Ȱ":{"ha":971,"x_min":63,"x_max":908,"o":"m 486 -8 q 244 32 335 -8 q 108 185 154 72 q 63 513 63 297 q 109 841 63 728 q 246 996 156 954 q 486 1038 336 1038 q 727 996 638 1038 q 863 841 817 954 q 908 513 908 728 q 863 185 908 297 q 727 32 817 72 q 486 -8 638 -8 m 486 176 q 619 202 574 176 q 683 299 664 228 q 703 513 703 371 q 683 731 703 660 q 619 828 664 803 q 486 853 574 853 q 355 828 400 853 q 289 731 310 803 q 268 513 268 658 q 288 299 268 369 q 352 202 307 228 q 486 176 397 176 m 435 1117 q 414 1124 422 1117 q 406 1146 406 1132 l 406 1281 q 413 1303 406 1294 q 435 1311 421 1311 l 531 1311 q 551 1302 543 1311 q 558 1281 558 1293 l 558 1146 q 531 1117 558 1117 l 435 1117 m 283 1499 l 674 1499 l 674 1376 l 283 1376 l 283 1499 z "},"Ọ":{"ha":971,"x_min":63,"x_max":908,"o":"m 486 -8 q 244 32 335 -8 q 108 185 154 72 q 63 513 63 297 q 109 841 63 728 q 246 996 156 954 q 486 1038 336 1038 q 727 996 638 1038 q 863 841 817 954 q 908 513 908 728 q 863 185 908 297 q 727 32 817 72 q 486 -8 638 -8 m 486 176 q 619 202 574 176 q 683 299 664 228 q 703 513 703 371 q 683 731 703 660 q 619 828 664 803 q 486 853 574 853 q 355 828 400 853 q 289 731 310 803 q 268 513 268 658 q 288 299 268 369 q 352 202 307 228 q 486 176 397 176 m 439 -314 q 418 -306 426 -314 q 410 -285 410 -299 l 410 -150 q 417 -128 410 -136 q 439 -119 425 -119 l 535 -119 q 555 -128 547 -119 q 563 -150 563 -137 l 563 -285 q 535 -314 563 -314 l 439 -314 z "},"Ò":{"ha":971,"x_min":63,"x_max":908,"o":"m 486 -8 q 244 32 335 -8 q 108 185 154 72 q 63 513 63 297 q 109 841 63 728 q 246 996 156 954 q 486 1038 336 1038 q 727 996 638 1038 q 863 841 817 954 q 908 513 908 728 q 863 185 908 297 q 727 32 817 72 q 486 -8 638 -8 m 486 176 q 619 202 574 176 q 683 299 664 228 q 703 513 703 371 q 683 731 703 660 q 619 828 664 803 q 486 853 574 853 q 355 828 400 853 q 289 731 310 803 q 268 513 268 658 q 288 299 268 369 q 352 202 307 228 q 486 176 397 176 m 290 1293 l 457 1293 l 571 1099 l 450 1099 l 290 1293 z "},"Ỏ":{"ha":971,"x_min":63,"x_max":908,"o":"m 486 -8 q 244 32 335 -8 q 108 185 154 72 q 63 513 63 297 q 109 841 63 728 q 246 996 156 954 q 486 1038 336 1038 q 727 996 638 1038 q 863 841 817 954 q 908 513 908 728 q 863 185 908 297 q 727 32 817 72 q 486 -8 638 -8 m 486 176 q 619 202 574 176 q 683 299 664 228 q 703 513 703 371 q 683 731 703 660 q 619 828 664 803 q 486 853 574 853 q 355 828 400 853 q 289 731 310 803 q 268 513 268 658 q 288 299 268 369 q 352 202 307 228 q 486 176 397 176 m 444 1158 q 500 1214 500 1174 q 454 1253 500 1253 q 408 1244 439 1253 l 408 1325 q 481 1336 442 1336 q 576 1306 544 1336 q 608 1221 608 1276 q 569 1128 608 1165 q 444 1068 529 1092 l 444 1158 z "},"Ơ":{"ha":971,"x_min":63,"x_max":933,"o":"m 933 1181 q 901 1020 933 1083 q 810 932 868 957 q 884 771 860 872 q 908 513 908 669 q 863 185 908 297 q 727 32 817 72 q 486 -8 638 -8 q 244 32 335 -8 q 108 185 154 72 q 63 513 63 297 q 109 841 63 728 q 246 996 156 954 q 486 1038 336 1038 q 624 1028 565 1038 l 692 1028 q 766 1063 740 1028 q 792 1181 792 1099 l 933 1181 m 486 176 q 619 202 574 176 q 683 299 664 228 q 703 513 703 371 q 683 731 703 660 q 619 828 664 803 q 486 853 574 853 q 355 828 400 853 q 289 731 310 803 q 268 513 268 658 q 288 299 268 369 q 352 202 307 228 q 486 176 397 176 z "},"Ớ":{"ha":971,"x_min":63,"x_max":933,"o":"m 933 1181 q 901 1020 933 1083 q 810 932 868 957 q 884 771 860 872 q 908 513 908 669 q 863 185 908 297 q 727 32 817 72 q 486 -8 638 -8 q 244 32 335 -8 q 108 185 154 72 q 63 513 63 297 q 109 841 63 728 q 246 996 156 954 q 486 1038 336 1038 q 624 1028 565 1038 l 692 1028 q 766 1063 740 1028 q 792 1181 792 1099 l 933 1181 m 486 176 q 619 202 574 176 q 683 299 664 228 q 703 513 703 371 q 683 731 703 660 q 619 828 664 803 q 486 853 574 853 q 355 828 400 853 q 289 731 310 803 q 268 513 268 658 q 288 299 268 369 q 352 202 307 228 q 486 176 397 176 m 522 1293 l 688 1293 l 528 1099 l 407 1099 l 522 1293 z "},"Ợ":{"ha":971,"x_min":63,"x_max":933,"o":"m 933 1181 q 901 1020 933 1083 q 810 932 868 957 q 884 771 860 872 q 908 513 908 669 q 863 185 908 297 q 727 32 817 72 q 486 -8 638 -8 q 244 32 335 -8 q 108 185 154 72 q 63 513 63 297 q 109 841 63 728 q 246 996 156 954 q 486 1038 336 1038 q 624 1028 565 1038 l 692 1028 q 766 1063 740 1028 q 792 1181 792 1099 l 933 1181 m 486 176 q 619 202 574 176 q 683 299 664 228 q 703 513 703 371 q 683 731 703 660 q 619 828 664 803 q 486 853 574 853 q 355 828 400 853 q 289 731 310 803 q 268 513 268 658 q 288 299 268 369 q 352 202 307 228 q 486 176 397 176 m 446 -314 q 425 -306 433 -314 q 417 -285 417 -299 l 417 -150 q 424 -128 417 -136 q 446 -119 432 -119 l 542 -119 q 562 -128 554 -119 q 569 -150 569 -137 l 569 -285 q 542 -314 569 -314 l 446 -314 z "},"Ờ":{"ha":971,"x_min":63,"x_max":933,"o":"m 933 1181 q 901 1020 933 1083 q 810 932 868 957 q 884 771 860 872 q 908 513 908 669 q 863 185 908 297 q 727 32 817 72 q 486 -8 638 -8 q 244 32 335 -8 q 108 185 154 72 q 63 513 63 297 q 109 841 63 728 q 246 996 156 954 q 486 1038 336 1038 q 624 1028 565 1038 l 692 1028 q 766 1063 740 1028 q 792 1181 792 1099 l 933 1181 m 486 176 q 619 202 574 176 q 683 299 664 228 q 703 513 703 371 q 683 731 703 660 q 619 828 664 803 q 486 853 574 853 q 355 828 400 853 q 289 731 310 803 q 268 513 268 658 q 288 299 268 369 q 352 202 307 228 q 486 176 397 176 m 254 1293 l 421 1293 l 535 1099 l 414 1099 l 254 1293 z "},"Ở":{"ha":971,"x_min":63,"x_max":933,"o":"m 933 1181 q 901 1020 933 1083 q 810 932 868 957 q 884 771 860 872 q 908 513 908 669 q 863 185 908 297 q 727 32 817 72 q 486 -8 638 -8 q 244 32 335 -8 q 108 185 154 72 q 63 513 63 297 q 109 841 63 728 q 246 996 156 954 q 486 1038 336 1038 q 624 1028 565 1038 l 692 1028 q 766 1063 740 1028 q 792 1181 792 1099 l 933 1181 m 486 176 q 619 202 574 176 q 683 299 664 228 q 703 513 703 371 q 683 731 703 660 q 619 828 664 803 q 486 853 574 853 q 355 828 400 853 q 289 731 310 803 q 268 513 268 658 q 288 299 268 369 q 352 202 307 228 q 486 176 397 176 m 440 1158 q 496 1214 496 1174 q 450 1253 496 1253 q 404 1244 435 1253 l 404 1325 q 476 1336 438 1336 q 572 1306 540 1336 q 604 1221 604 1276 q 565 1128 604 1165 q 440 1068 525 1092 l 440 1158 z "},"Ỡ":{"ha":971,"x_min":63,"x_max":933,"o":"m 933 1181 q 901 1020 933 1083 q 810 932 868 957 q 884 771 860 872 q 908 513 908 669 q 863 185 908 297 q 727 32 817 72 q 486 -8 638 -8 q 244 32 335 -8 q 108 185 154 72 q 63 513 63 297 q 109 841 63 728 q 246 996 156 954 q 486 1038 336 1038 q 624 1028 565 1038 l 692 1028 q 766 1063 740 1028 q 792 1181 792 1099 l 933 1181 m 486 176 q 619 202 574 176 q 683 299 664 228 q 703 513 703 371 q 683 731 703 660 q 619 828 664 803 q 486 853 574 853 q 355 828 400 853 q 289 731 310 803 q 268 513 268 658 q 288 299 268 369 q 352 202 307 228 q 486 176 397 176 m 219 1096 q 265 1233 225 1190 q 365 1276 304 1276 q 426 1267 400 1276 q 486 1239 453 1257 q 533 1217 517 1224 q 568 1211 549 1211 q 611 1230 596 1211 q 628 1283 626 1249 l 731 1283 q 690 1144 726 1192 q 588 1097 653 1097 q 526 1107 554 1097 q 463 1135 499 1117 q 419 1156 438 1149 q 383 1163 401 1163 q 341 1144 357 1163 q 322 1096 325 1126 l 219 1096 z "},"Ő":{"ha":971,"x_min":63,"x_max":908,"o":"m 486 -8 q 244 32 335 -8 q 108 185 154 72 q 63 513 63 297 q 109 841 63 728 q 246 996 156 954 q 486 1038 336 1038 q 727 996 638 1038 q 863 841 817 954 q 908 513 908 728 q 863 185 908 297 q 727 32 817 72 q 486 -8 638 -8 m 486 176 q 619 202 574 176 q 683 299 664 228 q 703 513 703 371 q 683 731 703 660 q 619 828 664 803 q 486 853 574 853 q 355 828 400 853 q 289 731 310 803 q 268 513 268 658 q 288 299 268 369 q 352 202 307 228 q 486 176 397 176 m 399 1293 l 556 1293 l 415 1099 l 294 1099 l 399 1293 m 626 1293 l 782 1293 l 643 1099 l 522 1099 l 626 1293 z "},"Ȏ":{"ha":971,"x_min":63,"x_max":908,"o":"m 486 -8 q 244 32 335 -8 q 108 185 154 72 q 63 513 63 297 q 109 841 63 728 q 246 996 156 954 q 486 1038 336 1038 q 727 996 638 1038 q 863 841 817 954 q 908 513 908 728 q 863 185 908 297 q 727 32 817 72 q 486 -8 638 -8 m 486 176 q 619 202 574 176 q 683 299 664 228 q 703 513 703 371 q 683 731 703 660 q 619 828 664 803 q 486 853 574 853 q 355 828 400 853 q 289 731 310 803 q 268 513 268 658 q 288 299 268 369 q 352 202 307 228 q 486 176 397 176 m 488 1301 q 630 1249 579 1301 q 681 1092 681 1197 l 585 1092 q 557 1180 585 1153 q 488 1207 529 1207 q 390 1092 390 1207 l 293 1092 q 344 1250 293 1199 q 488 1301 394 1301 z "},"Ō":{"ha":971,"x_min":63,"x_max":908,"o":"m 486 -8 q 244 32 335 -8 q 108 185 154 72 q 63 513 63 297 q 109 841 63 728 q 246 996 156 954 q 486 1038 336 1038 q 727 996 638 1038 q 863 841 817 954 q 908 513 908 728 q 863 185 908 297 q 727 32 817 72 q 486 -8 638 -8 m 486 176 q 619 202 574 176 q 683 299 664 228 q 703 513 703 371 q 683 731 703 660 q 619 828 664 803 q 486 853 574 853 q 355 828 400 853 q 289 731 310 803 q 268 513 268 658 q 288 299 268 369 q 352 202 307 228 q 486 176 397 176 m 283 1243 l 674 1243 l 674 1121 l 283 1121 l 283 1243 z "},"Ṓ":{"ha":971,"x_min":63,"x_max":908,"o":"m 486 -8 q 244 32 335 -8 q 108 185 154 72 q 63 513 63 297 q 109 841 63 728 q 246 996 156 954 q 486 1038 336 1038 q 727 996 638 1038 q 863 841 817 954 q 908 513 908 728 q 863 185 908 297 q 727 32 817 72 q 486 -8 638 -8 m 486 176 q 619 202 574 176 q 683 299 664 228 q 703 513 703 371 q 683 731 703 660 q 619 828 664 803 q 486 853 574 853 q 355 828 400 853 q 289 731 310 803 q 268 513 268 658 q 288 299 268 369 q 352 202 307 228 q 486 176 397 176 m 283 1243 l 674 1243 l 674 1121 l 283 1121 l 283 1243 m 538 1500 l 703 1500 l 543 1306 l 422 1306 l 538 1500 z "},"Ṑ":{"ha":971,"x_min":63,"x_max":908,"o":"m 486 -8 q 244 32 335 -8 q 108 185 154 72 q 63 513 63 297 q 109 841 63 728 q 246 996 156 954 q 486 1038 336 1038 q 727 996 638 1038 q 863 841 817 954 q 908 513 908 728 q 863 185 908 297 q 727 32 817 72 q 486 -8 638 -8 m 486 176 q 619 202 574 176 q 683 299 664 228 q 703 513 703 371 q 683 731 703 660 q 619 828 664 803 q 486 853 574 853 q 355 828 400 853 q 289 731 310 803 q 268 513 268 658 q 288 299 268 369 q 352 202 307 228 q 486 176 397 176 m 283 1243 l 674 1243 l 674 1121 l 283 1121 l 283 1243 m 260 1500 l 426 1500 l 540 1306 l 419 1306 l 260 1500 z "},"Ǫ":{"ha":971,"x_min":63,"x_max":908,"o":"m 583 -4 q 537 -47 551 -25 q 522 -94 522 -68 q 544 -147 522 -128 q 603 -165 567 -165 l 615 -165 l 615 -261 q 571 -267 603 -267 q 459 -230 496 -267 q 422 -142 422 -193 q 501 -8 422 -57 l 486 -8 q 244 32 335 -8 q 108 185 154 72 q 63 513 63 297 q 109 841 63 728 q 246 996 156 954 q 486 1038 336 1038 q 727 996 638 1038 q 863 841 817 954 q 908 513 908 728 q 873 213 908 322 q 767 56 838 104 q 583 -4 697 7 m 268 513 q 288 299 268 369 q 352 202 307 228 q 486 176 397 176 q 619 202 574 176 q 683 299 664 228 q 703 513 703 371 q 683 731 703 660 q 619 828 664 803 q 486 853 574 853 q 355 828 400 853 q 289 731 310 803 q 268 513 268 658 z "},"Ø":{"ha":971,"x_min":63,"x_max":908,"o":"m 821 917 q 887 760 865 858 q 908 513 908 661 q 863 185 908 297 q 727 32 817 72 q 486 -8 638 -8 q 344 1 406 -8 q 238 36 283 11 l 214 0 l 78 0 l 150 110 q 84 267 106 169 q 63 513 63 364 q 109 841 63 728 q 246 996 156 954 q 486 1038 336 1038 q 627 1027 567 1038 q 735 992 688 1017 l 758 1028 l 894 1028 l 821 917 m 268 513 q 285 311 268 376 l 624 825 q 567 847 600 840 q 486 853 535 853 q 355 828 400 853 q 289 731 310 803 q 268 513 268 658 m 486 176 q 619 202 574 176 q 683 299 664 228 q 703 513 703 371 q 688 715 703 647 l 349 204 q 486 176 393 176 z "},"Ǿ":{"ha":971,"x_min":63,"x_max":908,"o":"m 821 917 q 887 760 865 858 q 908 513 908 661 q 863 185 908 297 q 727 32 817 72 q 486 -8 638 -8 q 344 1 406 -8 q 238 36 283 11 l 214 0 l 78 0 l 150 110 q 84 267 106 169 q 63 513 63 364 q 109 841 63 728 q 246 996 156 954 q 486 1038 336 1038 q 627 1027 567 1038 q 735 992 688 1017 l 758 1028 l 894 1028 l 821 917 m 268 513 q 285 311 268 376 l 624 825 q 567 847 600 840 q 486 853 535 853 q 355 828 400 853 q 289 731 310 803 q 268 513 268 658 m 486 176 q 619 202 574 176 q 683 299 664 228 q 703 513 703 371 q 688 715 703 647 l 349 204 q 486 176 393 176 m 549 1293 l 714 1293 l 554 1099 l 433 1099 l 549 1293 z "},"Õ":{"ha":971,"x_min":63,"x_max":908,"o":"m 486 -8 q 244 32 335 -8 q 108 185 154 72 q 63 513 63 297 q 109 841 63 728 q 246 996 156 954 q 486 1038 336 1038 q 727 996 638 1038 q 863 841 817 954 q 908 513 908 728 q 863 185 908 297 q 727 32 817 72 q 486 -8 638 -8 m 486 176 q 619 202 574 176 q 683 299 664 228 q 703 513 703 371 q 683 731 703 660 q 619 828 664 803 q 486 853 574 853 q 355 828 400 853 q 289 731 310 803 q 268 513 268 658 q 288 299 268 369 q 352 202 307 228 q 486 176 397 176 m 225 1096 q 270 1233 231 1190 q 371 1276 310 1276 q 432 1267 406 1276 q 492 1239 458 1257 q 538 1217 522 1224 q 574 1211 554 1211 q 617 1230 601 1211 q 633 1283 632 1249 l 736 1283 q 695 1144 732 1192 q 593 1097 658 1097 q 532 1107 560 1097 q 468 1135 504 1117 q 425 1156 443 1149 q 389 1163 407 1163 q 347 1144 363 1163 q 328 1096 331 1126 l 225 1096 z "},"Ṍ":{"ha":971,"x_min":63,"x_max":908,"o":"m 486 -8 q 244 32 335 -8 q 108 185 154 72 q 63 513 63 297 q 109 841 63 728 q 246 996 156 954 q 486 1038 336 1038 q 727 996 638 1038 q 863 841 817 954 q 908 513 908 728 q 863 185 908 297 q 727 32 817 72 q 486 -8 638 -8 m 486 176 q 619 202 574 176 q 683 299 664 228 q 703 513 703 371 q 683 731 703 660 q 619 828 664 803 q 486 853 574 853 q 355 828 400 853 q 289 731 310 803 q 268 513 268 658 q 288 299 268 369 q 352 202 307 228 q 486 176 397 176 m 225 1096 q 270 1233 231 1190 q 371 1276 310 1276 q 432 1267 406 1276 q 492 1239 458 1257 q 538 1217 522 1224 q 574 1211 554 1211 q 617 1230 601 1211 q 633 1283 632 1249 l 736 1283 q 695 1144 732 1192 q 593 1097 658 1097 q 532 1107 560 1097 q 468 1135 504 1117 q 425 1156 443 1149 q 389 1163 407 1163 q 347 1144 363 1163 q 328 1096 331 1126 l 225 1096 m 518 1522 l 683 1522 l 524 1328 l 403 1328 l 518 1522 z "},"Ṏ":{"ha":971,"x_min":63,"x_max":908,"o":"m 486 -8 q 244 32 335 -8 q 108 185 154 72 q 63 513 63 297 q 109 841 63 728 q 246 996 156 954 q 486 1038 336 1038 q 727 996 638 1038 q 863 841 817 954 q 908 513 908 728 q 863 185 908 297 q 727 32 817 72 q 486 -8 638 -8 m 486 176 q 619 202 574 176 q 683 299 664 228 q 703 513 703 371 q 683 731 703 660 q 619 828 664 803 q 486 853 574 853 q 355 828 400 853 q 289 731 310 803 q 268 513 268 658 q 288 299 268 369 q 352 202 307 228 q 486 176 397 176 m 225 1096 q 270 1233 231 1190 q 371 1276 310 1276 q 432 1267 406 1276 q 492 1239 458 1257 q 538 1217 522 1224 q 574 1211 554 1211 q 617 1230 601 1211 q 633 1283 632 1249 l 736 1283 q 695 1144 732 1192 q 593 1097 658 1097 q 532 1107 560 1097 q 468 1135 504 1117 q 425 1156 443 1149 q 389 1163 407 1163 q 347 1144 363 1163 q 328 1096 331 1126 l 225 1096 m 285 1336 q 264 1344 272 1336 q 256 1365 256 1351 l 256 1500 q 263 1522 256 1514 q 285 1531 271 1531 l 381 1531 q 401 1522 393 1531 q 408 1500 408 1513 l 408 1365 q 381 1336 408 1336 l 285 1336 m 579 1336 q 559 1344 567 1336 q 551 1365 551 1351 l 551 1500 q 558 1522 551 1514 q 579 1531 565 1531 l 675 1531 q 695 1522 688 1531 q 703 1500 703 1513 l 703 1365 q 675 1336 703 1336 l 579 1336 z "},"Ȭ":{"ha":971,"x_min":63,"x_max":908,"o":"m 486 -8 q 244 32 335 -8 q 108 185 154 72 q 63 513 63 297 q 109 841 63 728 q 246 996 156 954 q 486 1038 336 1038 q 727 996 638 1038 q 863 841 817 954 q 908 513 908 728 q 863 185 908 297 q 727 32 817 72 q 486 -8 638 -8 m 486 176 q 619 202 574 176 q 683 299 664 228 q 703 513 703 371 q 683 731 703 660 q 619 828 664 803 q 486 853 574 853 q 355 828 400 853 q 289 731 310 803 q 268 513 268 658 q 288 299 268 369 q 352 202 307 228 q 486 176 397 176 m 300 1472 l 690 1472 l 690 1350 l 300 1350 l 300 1472 m 225 1096 q 270 1233 231 1190 q 371 1276 310 1276 q 432 1267 406 1276 q 492 1239 458 1257 q 538 1217 522 1224 q 574 1211 554 1211 q 617 1230 601 1211 q 633 1283 632 1249 l 736 1283 q 695 1144 732 1192 q 593 1097 658 1097 q 532 1107 560 1097 q 468 1135 504 1117 q 425 1156 443 1149 q 389 1163 407 1163 q 347 1144 363 1163 q 328 1096 331 1126 l 225 1096 z "},"Œ":{"ha":1443,"x_min":63,"x_max":1382,"o":"m 999 838 q 908 753 908 838 l 908 604 l 1315 593 l 1315 431 l 908 419 l 908 278 q 994 186 908 186 l 1382 186 l 1382 14 q 953 -7 1197 -7 q 848 5 897 -7 q 761 51 799 17 q 645 5 713 18 q 486 -8 578 -8 q 244 32 335 -8 q 108 185 154 72 q 63 513 63 297 q 109 841 63 728 q 246 996 156 954 q 486 1038 336 1038 q 651 1022 582 1038 q 769 971 719 1007 q 938 1028 832 1028 q 1382 1010 1150 1028 l 1382 838 l 999 838 m 486 176 q 619 202 574 176 q 683 299 664 228 q 703 513 703 371 q 683 731 703 660 q 619 828 664 803 q 486 853 574 853 q 355 828 400 853 q 289 731 310 803 q 268 513 268 658 q 288 299 268 369 q 352 202 307 228 q 486 176 397 176 z "},"P":{"ha":863,"x_min":89,"x_max":818,"o":"m 89 1028 l 522 1028 q 735 956 651 1028 q 818 675 818 883 q 531 314 818 314 q 415 322 486 314 q 294 336 344 329 l 294 0 l 89 0 l 89 1028 m 499 499 q 583 540 554 499 q 611 674 611 582 q 503 843 611 843 l 294 843 l 294 499 l 499 499 z "},"Ṗ":{"ha":863,"x_min":89,"x_max":818,"o":"m 89 1028 l 522 1028 q 735 956 651 1028 q 818 675 818 883 q 531 314 818 314 q 415 322 486 314 q 294 336 344 329 l 294 0 l 89 0 l 89 1028 m 499 499 q 583 540 554 499 q 611 674 611 582 q 503 843 611 843 l 294 843 l 294 499 l 499 499 m 371 1117 q 350 1124 358 1117 q 342 1146 342 1132 l 342 1281 q 349 1303 342 1294 q 371 1311 357 1311 l 467 1311 q 487 1302 479 1311 q 494 1281 494 1293 l 494 1146 q 467 1117 494 1117 l 371 1117 z "},"Þ":{"ha":814,"x_min":89,"x_max":769,"o":"m 89 1028 l 294 1028 l 294 861 l 474 861 q 686 793 603 861 q 769 526 769 725 q 686 253 769 325 q 481 182 603 182 q 371 192 438 182 q 294 204 304 203 l 294 0 l 89 0 l 89 1028 m 450 367 q 534 404 506 367 q 563 525 563 442 q 453 676 563 676 l 294 676 l 294 367 l 450 367 z "},"Q":{"ha":971,"x_min":63,"x_max":908,"o":"m 486 -8 q 244 32 335 -8 q 108 185 154 72 q 63 513 63 297 q 109 841 63 728 q 246 996 156 954 q 486 1038 336 1038 q 727 996 638 1038 q 863 841 817 954 q 908 513 908 728 q 863 185 908 297 q 727 32 817 72 q 486 -8 638 -8 m 486 176 q 619 202 574 176 q 683 299 664 228 q 703 513 703 371 q 683 731 703 660 q 619 828 664 803 q 486 853 574 853 q 355 828 400 853 q 289 731 310 803 q 268 513 268 658 q 288 299 268 369 q 352 202 307 228 q 486 176 397 176 m 714 -274 q 584 -249 644 -274 q 484 -174 524 -225 q 442 -51 444 -124 l 583 -51 q 626 -108 592 -89 q 704 -126 660 -126 q 756 -120 729 -126 q 789 -112 782 -114 l 789 -264 q 758 -269 782 -265 q 714 -274 733 -274 z "},"R":{"ha":871,"x_min":89,"x_max":836,"o":"m 89 1028 l 514 1028 q 728 955 650 1028 q 807 699 807 882 q 763 507 807 569 q 644 413 719 444 l 836 0 l 626 0 l 461 381 q 294 383 394 381 l 294 0 l 89 0 l 89 1028 m 478 546 q 569 580 538 546 q 601 699 601 614 q 569 812 601 781 q 478 843 538 843 l 294 843 l 294 546 l 478 546 z "},"Ŕ":{"ha":871,"x_min":89,"x_max":836,"o":"m 89 1028 l 514 1028 q 728 955 650 1028 q 807 699 807 882 q 763 507 807 569 q 644 413 719 444 l 836 0 l 626 0 l 461 381 q 294 383 394 381 l 294 0 l 89 0 l 89 1028 m 478 546 q 569 580 538 546 q 601 699 601 614 q 569 812 601 781 q 478 843 538 843 l 294 843 l 294 546 l 478 546 m 479 1293 l 644 1293 l 485 1099 l 364 1099 l 479 1293 z "},"Ř":{"ha":871,"x_min":89,"x_max":836,"o":"m 89 1028 l 514 1028 q 728 955 650 1028 q 807 699 807 882 q 763 507 807 569 q 644 413 719 444 l 836 0 l 626 0 l 461 381 q 294 383 394 381 l 294 0 l 89 0 l 89 1028 m 478 546 q 569 580 538 546 q 601 699 601 614 q 569 812 601 781 q 478 843 538 843 l 294 843 l 294 546 l 478 546 m 206 1296 l 325 1296 l 417 1190 l 514 1296 l 633 1296 l 483 1099 l 343 1099 l 206 1296 z "},"Ŗ":{"ha":871,"x_min":89,"x_max":836,"o":"m 89 1028 l 514 1028 q 728 955 650 1028 q 807 699 807 882 q 763 507 807 569 q 644 413 719 444 l 836 0 l 626 0 l 461 381 q 294 383 394 381 l 294 0 l 89 0 l 89 1028 m 478 546 q 569 580 538 546 q 601 699 601 614 q 569 812 601 781 q 478 843 538 843 l 294 843 l 294 546 l 478 546 m 303 -215 l 340 -206 q 384 -190 369 -199 q 405 -160 399 -181 q 411 -101 411 -140 l 536 -101 q 501 -255 536 -210 q 375 -300 467 -300 l 303 -300 l 303 -215 z "},"Ȑ":{"ha":871,"x_min":89,"x_max":836,"o":"m 89 1028 l 514 1028 q 728 955 650 1028 q 807 699 807 882 q 763 507 807 569 q 644 413 719 444 l 836 0 l 626 0 l 461 381 q 294 383 394 381 l 294 0 l 89 0 l 89 1028 m 478 546 q 569 580 538 546 q 601 699 601 614 q 569 812 601 781 q 478 843 538 843 l 294 843 l 294 546 l 478 546 m 94 1293 l 261 1293 l 375 1099 l 254 1099 l 94 1293 m 343 1293 l 508 1293 l 624 1099 l 501 1099 l 343 1293 z "},"Ṛ":{"ha":871,"x_min":89,"x_max":836,"o":"m 89 1028 l 514 1028 q 728 955 650 1028 q 807 699 807 882 q 763 507 807 569 q 644 413 719 444 l 836 0 l 626 0 l 461 381 q 294 383 394 381 l 294 0 l 89 0 l 89 1028 m 478 546 q 569 580 538 546 q 601 699 601 614 q 569 812 601 781 q 478 843 538 843 l 294 843 l 294 546 l 478 546 m 375 -314 q 354 -306 363 -314 q 346 -285 346 -299 l 346 -150 q 353 -128 346 -136 q 375 -119 361 -119 l 471 -119 q 491 -128 483 -119 q 499 -150 499 -137 l 499 -285 q 471 -314 499 -314 l 375 -314 z "},"Ȓ":{"ha":871,"x_min":89,"x_max":836,"o":"m 89 1028 l 514 1028 q 728 955 650 1028 q 807 699 807 882 q 763 507 807 569 q 644 413 719 444 l 836 0 l 626 0 l 461 381 q 294 383 394 381 l 294 0 l 89 0 l 89 1028 m 478 546 q 569 580 538 546 q 601 699 601 614 q 569 812 601 781 q 478 843 538 843 l 294 843 l 294 546 l 478 546 m 418 1301 q 560 1249 510 1301 q 611 1092 611 1197 l 515 1092 q 488 1180 515 1153 q 418 1207 460 1207 q 321 1092 321 1207 l 224 1092 q 274 1250 224 1199 q 418 1301 325 1301 z "},"Ṟ":{"ha":871,"x_min":89,"x_max":836,"o":"m 89 1028 l 514 1028 q 728 955 650 1028 q 807 699 807 882 q 763 507 807 569 q 644 413 719 444 l 836 0 l 626 0 l 461 381 q 294 383 394 381 l 294 0 l 89 0 l 89 1028 m 478 546 q 569 580 538 546 q 601 699 601 614 q 569 812 601 781 q 478 843 538 843 l 294 843 l 294 546 l 478 546 m 229 -174 l 619 -174 l 619 -296 l 229 -296 l 229 -174 z "},"S":{"ha":818,"x_min":64,"x_max":756,"o":"m 399 -8 q 229 1 319 -8 q 76 26 139 11 l 76 189 q 389 176 200 176 q 517 199 474 176 q 560 281 560 222 l 560 318 q 533 388 560 364 q 456 413 506 413 l 368 413 q 140 479 215 413 q 64 697 64 546 l 64 747 q 396 1036 64 1036 q 557 1026 474 1036 q 707 1001 640 1015 l 707 839 q 419 851 517 851 q 300 827 340 851 q 260 738 260 803 l 260 710 q 290 633 260 657 q 381 608 319 608 l 482 608 q 685 535 615 608 q 756 344 756 463 l 756 286 q 713 105 756 169 q 592 16 669 40 q 399 -8 514 -8 z "},"Ś":{"ha":818,"x_min":64,"x_max":756,"o":"m 399 -8 q 229 1 319 -8 q 76 26 139 11 l 76 189 q 389 176 200 176 q 517 199 474 176 q 560 281 560 222 l 560 318 q 533 388 560 364 q 456 413 506 413 l 368 413 q 140 479 215 413 q 64 697 64 546 l 64 747 q 396 1036 64 1036 q 557 1026 474 1036 q 707 1001 640 1015 l 707 839 q 419 851 517 851 q 300 827 340 851 q 260 738 260 803 l 260 710 q 290 633 260 657 q 381 608 319 608 l 482 608 q 685 535 615 608 q 756 344 756 463 l 756 286 q 713 105 756 169 q 592 16 669 40 q 399 -8 514 -8 m 465 1293 l 631 1293 l 471 1099 l 350 1099 l 465 1293 z "},"Ṥ":{"ha":818,"x_min":64,"x_max":756,"o":"m 399 -8 q 229 1 319 -8 q 76 26 139 11 l 76 189 q 389 176 200 176 q 517 199 474 176 q 560 281 560 222 l 560 318 q 533 388 560 364 q 456 413 506 413 l 368 413 q 140 479 215 413 q 64 697 64 546 l 64 747 q 396 1036 64 1036 q 557 1026 474 1036 q 707 1001 640 1015 l 707 839 q 419 851 517 851 q 300 827 340 851 q 260 738 260 803 l 260 710 q 290 633 260 657 q 381 608 319 608 l 482 608 q 685 535 615 608 q 756 344 756 463 l 756 286 q 713 105 756 169 q 592 16 669 40 q 399 -8 514 -8 m 429 1293 l 594 1293 l 435 1099 l 314 1099 l 429 1293 m 413 1335 q 392 1342 400 1335 q 383 1364 383 1350 l 383 1499 q 391 1521 383 1513 q 413 1529 399 1529 l 508 1529 q 528 1520 521 1529 q 536 1499 536 1511 l 536 1364 q 508 1335 536 1335 l 413 1335 z "},"Š":{"ha":818,"x_min":64,"x_max":756,"o":"m 399 -8 q 229 1 319 -8 q 76 26 139 11 l 76 189 q 389 176 200 176 q 517 199 474 176 q 560 281 560 222 l 560 318 q 533 388 560 364 q 456 413 506 413 l 368 413 q 140 479 215 413 q 64 697 64 546 l 64 747 q 396 1036 64 1036 q 557 1026 474 1036 q 707 1001 640 1015 l 707 839 q 419 851 517 851 q 300 827 340 851 q 260 738 260 803 l 260 710 q 290 633 260 657 q 381 608 319 608 l 482 608 q 685 535 615 608 q 756 344 756 463 l 756 286 q 713 105 756 169 q 592 16 669 40 q 399 -8 514 -8 m 192 1296 l 311 1296 l 403 1190 l 500 1296 l 619 1296 l 469 1099 l 329 1099 l 192 1296 z "},"Ṧ":{"ha":818,"x_min":64,"x_max":756,"o":"m 399 -8 q 229 1 319 -8 q 76 26 139 11 l 76 189 q 389 176 200 176 q 517 199 474 176 q 560 281 560 222 l 560 318 q 533 388 560 364 q 456 413 506 413 l 368 413 q 140 479 215 413 q 64 697 64 546 l 64 747 q 396 1036 64 1036 q 557 1026 474 1036 q 707 1001 640 1015 l 707 839 q 419 851 517 851 q 300 827 340 851 q 260 738 260 803 l 260 710 q 290 633 260 657 q 381 608 319 608 l 482 608 q 685 535 615 608 q 756 344 756 463 l 756 286 q 713 105 756 169 q 592 16 669 40 q 399 -8 514 -8 m 192 1296 l 311 1296 l 403 1190 l 500 1296 l 619 1296 l 469 1099 l 329 1099 l 192 1296 m 351 1344 q 331 1352 339 1344 q 322 1374 322 1360 l 322 1508 q 330 1531 322 1522 q 351 1539 338 1539 l 447 1539 q 467 1530 460 1539 q 475 1508 475 1521 l 475 1374 q 447 1344 475 1344 l 351 1344 z "},"Ş":{"ha":818,"x_min":64,"x_max":756,"o":"m 482 608 q 685 535 615 608 q 756 344 756 463 l 756 286 q 681 68 756 133 q 461 -7 606 3 l 421 -71 q 489 -99 464 -75 q 514 -164 514 -122 q 476 -246 514 -217 q 365 -275 439 -275 l 299 -275 l 299 -190 l 324 -186 q 381 -139 381 -181 q 317 -89 381 -97 l 368 -8 q 211 3 290 -6 q 76 26 132 13 l 76 189 q 389 176 200 176 q 517 199 474 176 q 560 281 560 222 l 560 318 q 533 388 560 364 q 456 413 506 413 l 368 413 q 140 479 215 413 q 64 697 64 546 l 64 747 q 396 1036 64 1036 q 557 1026 474 1036 q 707 1001 640 1015 l 707 839 q 419 851 517 851 q 300 827 340 851 q 260 738 260 803 l 260 710 q 290 633 260 657 q 381 608 319 608 l 482 608 z "},"Ŝ":{"ha":818,"x_min":64,"x_max":756,"o":"m 399 -8 q 229 1 319 -8 q 76 26 139 11 l 76 189 q 389 176 200 176 q 517 199 474 176 q 560 281 560 222 l 560 318 q 533 388 560 364 q 456 413 506 413 l 368 413 q 140 479 215 413 q 64 697 64 546 l 64 747 q 396 1036 64 1036 q 557 1026 474 1036 q 707 1001 640 1015 l 707 839 q 419 851 517 851 q 300 827 340 851 q 260 738 260 803 l 260 710 q 290 633 260 657 q 381 608 319 608 l 482 608 q 685 535 615 608 q 756 344 756 463 l 756 286 q 713 105 756 169 q 592 16 669 40 q 399 -8 514 -8 m 336 1296 l 478 1296 l 614 1099 l 494 1099 l 403 1204 l 306 1099 l 186 1099 l 336 1296 z "},"Ș":{"ha":818,"x_min":64,"x_max":756,"o":"m 399 -8 q 229 1 319 -8 q 76 26 139 11 l 76 189 q 389 176 200 176 q 517 199 474 176 q 560 281 560 222 l 560 318 q 533 388 560 364 q 456 413 506 413 l 368 413 q 140 479 215 413 q 64 697 64 546 l 64 747 q 396 1036 64 1036 q 557 1026 474 1036 q 707 1001 640 1015 l 707 839 q 419 851 517 851 q 300 827 340 851 q 260 738 260 803 l 260 710 q 290 633 260 657 q 381 608 319 608 l 482 608 q 685 535 615 608 q 756 344 756 463 l 756 286 q 713 105 756 169 q 592 16 669 40 q 399 -8 514 -8 m 282 -215 l 319 -206 q 363 -190 349 -199 q 384 -160 378 -181 q 390 -101 390 -140 l 515 -101 q 481 -255 515 -210 q 354 -300 446 -300 l 282 -300 l 282 -215 z "},"Ṡ":{"ha":818,"x_min":64,"x_max":756,"o":"m 399 -8 q 229 1 319 -8 q 76 26 139 11 l 76 189 q 389 176 200 176 q 517 199 474 176 q 560 281 560 222 l 560 318 q 533 388 560 364 q 456 413 506 413 l 368 413 q 140 479 215 413 q 64 697 64 546 l 64 747 q 396 1036 64 1036 q 557 1026 474 1036 q 707 1001 640 1015 l 707 839 q 419 851 517 851 q 300 827 340 851 q 260 738 260 803 l 260 710 q 290 633 260 657 q 381 608 319 608 l 482 608 q 685 535 615 608 q 756 344 756 463 l 756 286 q 713 105 756 169 q 592 16 669 40 q 399 -8 514 -8 m 351 1117 q 331 1124 339 1117 q 322 1146 322 1132 l 322 1281 q 330 1303 322 1294 q 351 1311 338 1311 l 447 1311 q 467 1302 460 1311 q 475 1281 475 1293 l 475 1146 q 447 1117 475 1117 l 351 1117 z "},"Ṣ":{"ha":818,"x_min":64,"x_max":756,"o":"m 399 -8 q 229 1 319 -8 q 76 26 139 11 l 76 189 q 389 176 200 176 q 517 199 474 176 q 560 281 560 222 l 560 318 q 533 388 560 364 q 456 413 506 413 l 368 413 q 140 479 215 413 q 64 697 64 546 l 64 747 q 396 1036 64 1036 q 557 1026 474 1036 q 707 1001 640 1015 l 707 839 q 419 851 517 851 q 300 827 340 851 q 260 738 260 803 l 260 710 q 290 633 260 657 q 381 608 319 608 l 482 608 q 685 535 615 608 q 756 344 756 463 l 756 286 q 713 105 756 169 q 592 16 669 40 q 399 -8 514 -8 m 356 -314 q 335 -306 343 -314 q 326 -285 326 -299 l 326 -150 q 334 -128 326 -136 q 356 -119 342 -119 l 451 -119 q 472 -128 464 -119 q 479 -150 479 -137 l 479 -285 q 451 -314 479 -314 l 356 -314 z "},"Ṩ":{"ha":818,"x_min":64,"x_max":756,"o":"m 399 -8 q 229 1 319 -8 q 76 26 139 11 l 76 189 q 389 176 200 176 q 517 199 474 176 q 560 281 560 222 l 560 318 q 533 388 560 364 q 456 413 506 413 l 368 413 q 140 479 215 413 q 64 697 64 546 l 64 747 q 396 1036 64 1036 q 557 1026 474 1036 q 707 1001 640 1015 l 707 839 q 419 851 517 851 q 300 827 340 851 q 260 738 260 803 l 260 710 q 290 633 260 657 q 381 608 319 608 l 482 608 q 685 535 615 608 q 756 344 756 463 l 756 286 q 713 105 756 169 q 592 16 669 40 q 399 -8 514 -8 m 356 -314 q 335 -306 343 -314 q 326 -285 326 -299 l 326 -150 q 334 -128 326 -136 q 356 -119 342 -119 l 451 -119 q 472 -128 464 -119 q 479 -150 479 -137 l 479 -285 q 451 -314 479 -314 l 356 -314 m 351 1117 q 331 1124 339 1117 q 322 1146 322 1132 l 322 1281 q 330 1303 322 1294 q 351 1311 338 1311 l 447 1311 q 467 1302 460 1311 q 475 1281 475 1293 l 475 1146 q 447 1117 475 1117 l 351 1117 z "},"ẞ":{"ha":1004,"x_min":89,"x_max":940,"o":"m 667 572 q 869 510 797 572 q 940 326 940 449 l 940 268 q 901 98 940 158 q 790 15 861 38 q 614 -8 719 -8 q 499 -1 560 -8 q 392 17 438 6 l 392 179 q 583 178 449 178 q 697 200 658 178 q 735 281 735 222 l 735 313 q 705 385 735 364 q 610 407 675 407 l 440 407 l 440 572 l 590 572 l 525 696 l 647 843 l 399 843 q 321 818 347 843 q 294 747 294 793 l 294 0 l 89 0 l 89 744 q 173 960 89 892 q 390 1028 257 1028 q 875 1013 639 1028 l 869 1003 l 875 1007 l 792 731 l 658 572 l 667 572 z "},"Ə":{"ha":868,"x_min":54,"x_max":806,"o":"m 422 -8 q 149 101 243 -8 q 54 454 54 210 l 54 588 l 599 588 q 567 750 596 693 q 483 830 539 807 q 329 853 426 853 q 101 838 219 853 l 101 997 q 381 1038 217 1038 q 615 997 524 1038 q 756 846 706 957 q 806 531 806 735 q 758 200 806 318 q 628 37 711 82 q 422 -8 544 -8 m 424 176 q 546 230 503 176 q 594 422 589 283 l 263 422 q 281 278 265 331 q 330 201 296 225 q 424 176 364 176 z "},"T":{"ha":815,"x_min":22,"x_max":793,"o":"m 304 843 l 22 843 l 22 1028 l 793 1028 l 793 843 l 510 843 l 510 0 l 304 0 l 304 843 z "},"Ŧ":{"ha":815,"x_min":22,"x_max":793,"o":"m 510 843 l 510 585 l 744 585 l 744 481 l 510 481 l 510 0 l 304 0 l 304 481 l 69 481 l 69 585 l 304 585 l 304 843 l 22 843 l 22 1028 l 793 1028 l 793 843 l 510 843 z "},"Ť":{"ha":815,"x_min":22,"x_max":793,"o":"m 304 843 l 22 843 l 22 1028 l 793 1028 l 793 843 l 510 843 l 510 0 l 304 0 l 304 843 m 196 1296 l 315 1296 l 407 1190 l 504 1296 l 624 1296 l 474 1099 l 333 1099 l 196 1296 z "},"Ţ":{"ha":815,"x_min":22,"x_max":793,"o":"m 469 0 l 425 -71 q 493 -99 468 -75 q 518 -164 518 -122 q 481 -246 518 -217 q 369 -275 443 -275 l 303 -275 l 303 -190 l 328 -186 q 385 -139 385 -181 q 321 -89 385 -97 l 376 0 l 304 0 l 304 843 l 22 843 l 22 1028 l 793 1028 l 793 843 l 510 843 l 510 0 l 469 0 z "},"Ț":{"ha":815,"x_min":22,"x_max":793,"o":"m 304 843 l 22 843 l 22 1028 l 793 1028 l 793 843 l 510 843 l 510 0 l 304 0 l 304 843 m 243 -215 l 281 -206 q 324 -190 310 -199 q 345 -160 339 -181 q 351 -101 351 -140 l 476 -101 q 442 -255 476 -210 q 315 -300 407 -300 l 243 -300 l 243 -215 z "},"Ṫ":{"ha":815,"x_min":22,"x_max":793,"o":"m 304 843 l 22 843 l 22 1028 l 793 1028 l 793 843 l 510 843 l 510 0 l 304 0 l 304 843 m 356 1117 q 335 1124 343 1117 q 326 1146 326 1132 l 326 1281 q 334 1303 326 1294 q 356 1311 342 1311 l 451 1311 q 472 1302 464 1311 q 479 1281 479 1293 l 479 1146 q 451 1117 479 1117 l 356 1117 z "},"Ṭ":{"ha":815,"x_min":22,"x_max":793,"o":"m 304 843 l 22 843 l 22 1028 l 793 1028 l 793 843 l 510 843 l 510 0 l 304 0 l 304 843 m 360 -314 q 339 -306 347 -314 q 331 -285 331 -299 l 331 -150 q 338 -128 331 -136 q 360 -119 346 -119 l 456 -119 q 476 -128 468 -119 q 483 -150 483 -137 l 483 -285 q 456 -314 483 -314 l 360 -314 z "},"Ṯ":{"ha":815,"x_min":22,"x_max":793,"o":"m 304 843 l 22 843 l 22 1028 l 793 1028 l 793 843 l 510 843 l 510 0 l 304 0 l 304 843 m 214 -174 l 604 -174 l 604 -296 l 214 -296 l 214 -174 z "},"U":{"ha":953,"x_min":75,"x_max":878,"o":"m 476 -7 q 179 66 283 -7 q 75 331 75 139 l 75 1028 l 281 1028 l 281 332 q 330 214 281 250 q 476 178 379 178 q 622 214 574 178 q 671 332 671 250 l 671 1028 l 878 1028 l 878 331 q 773 66 878 139 q 476 -7 668 -7 z "},"Ú":{"ha":953,"x_min":75,"x_max":878,"o":"m 476 -7 q 179 66 283 -7 q 75 331 75 139 l 75 1028 l 281 1028 l 281 332 q 330 214 281 250 q 476 178 379 178 q 622 214 574 178 q 671 332 671 250 l 671 1028 l 878 1028 l 878 331 q 773 66 878 139 q 476 -7 668 -7 m 526 1293 l 692 1293 l 532 1099 l 411 1099 l 526 1293 z "},"Ŭ":{"ha":953,"x_min":75,"x_max":878,"o":"m 476 -7 q 179 66 283 -7 q 75 331 75 139 l 75 1028 l 281 1028 l 281 332 q 330 214 281 250 q 476 178 379 178 q 622 214 574 178 q 671 332 671 250 l 671 1028 l 878 1028 l 878 331 q 773 66 878 139 q 476 -7 668 -7 m 454 1088 q 312 1140 363 1088 q 261 1297 261 1192 l 357 1297 q 385 1209 357 1236 q 454 1182 413 1182 q 551 1297 551 1182 l 649 1297 q 598 1139 649 1190 q 454 1088 547 1088 z "},"Û":{"ha":953,"x_min":75,"x_max":878,"o":"m 476 -7 q 179 66 283 -7 q 75 331 75 139 l 75 1028 l 281 1028 l 281 332 q 330 214 281 250 q 476 178 379 178 q 622 214 574 178 q 671 332 671 250 l 671 1028 l 878 1028 l 878 331 q 773 66 878 139 q 476 -7 668 -7 m 397 1296 l 539 1296 l 675 1099 l 556 1099 l 464 1204 l 367 1099 l 247 1099 l 397 1296 z "},"Ȕ":{"ha":953,"x_min":75,"x_max":878,"o":"m 476 -7 q 179 66 283 -7 q 75 331 75 139 l 75 1028 l 281 1028 l 281 332 q 330 214 281 250 q 476 178 379 178 q 622 214 574 178 q 671 332 671 250 l 671 1028 l 878 1028 l 878 331 q 773 66 878 139 q 476 -7 668 -7 m 142 1293 l 308 1293 l 422 1099 l 301 1099 l 142 1293 m 390 1293 l 556 1293 l 671 1099 l 549 1099 l 390 1293 z "},"Ü":{"ha":953,"x_min":75,"x_max":878,"o":"m 476 -7 q 179 66 283 -7 q 75 331 75 139 l 75 1028 l 281 1028 l 281 332 q 330 214 281 250 q 476 178 379 178 q 622 214 574 178 q 671 332 671 250 l 671 1028 l 878 1028 l 878 331 q 773 66 878 139 q 476 -7 668 -7 m 260 1107 q 239 1115 247 1107 q 231 1136 231 1122 l 231 1271 q 238 1293 231 1285 q 260 1301 246 1301 l 356 1301 q 376 1292 368 1301 q 383 1271 383 1283 l 383 1136 q 356 1107 383 1107 l 260 1107 m 554 1107 q 534 1115 542 1107 q 526 1136 526 1122 l 526 1271 q 533 1293 526 1285 q 554 1301 540 1301 l 650 1301 q 670 1292 663 1301 q 678 1271 678 1283 l 678 1136 q 650 1107 678 1107 l 554 1107 z "},"Ụ":{"ha":953,"x_min":75,"x_max":878,"o":"m 476 -7 q 179 66 283 -7 q 75 331 75 139 l 75 1028 l 281 1028 l 281 332 q 330 214 281 250 q 476 178 379 178 q 622 214 574 178 q 671 332 671 250 l 671 1028 l 878 1028 l 878 331 q 773 66 878 139 q 476 -7 668 -7 m 417 -314 q 396 -306 404 -314 q 388 -285 388 -299 l 388 -150 q 395 -128 388 -136 q 417 -119 403 -119 l 513 -119 q 533 -128 525 -119 q 540 -150 540 -137 l 540 -285 q 513 -314 540 -314 l 417 -314 z "},"Ù":{"ha":953,"x_min":75,"x_max":878,"o":"m 476 -7 q 179 66 283 -7 q 75 331 75 139 l 75 1028 l 281 1028 l 281 332 q 330 214 281 250 q 476 178 379 178 q 622 214 574 178 q 671 332 671 250 l 671 1028 l 878 1028 l 878 331 q 773 66 878 139 q 476 -7 668 -7 m 268 1293 l 435 1293 l 549 1099 l 428 1099 l 268 1293 z "},"Ủ":{"ha":953,"x_min":75,"x_max":878,"o":"m 476 -7 q 179 66 283 -7 q 75 331 75 139 l 75 1028 l 281 1028 l 281 332 q 330 214 281 250 q 476 178 379 178 q 622 214 574 178 q 671 332 671 250 l 671 1028 l 878 1028 l 878 331 q 773 66 878 139 q 476 -7 668 -7 m 422 1158 q 478 1214 478 1174 q 432 1253 478 1253 q 386 1244 417 1253 l 386 1325 q 458 1336 419 1336 q 554 1306 522 1336 q 586 1221 586 1276 q 547 1128 586 1165 q 422 1068 507 1092 l 422 1158 z "},"Ư":{"ha":953,"x_min":75,"x_max":1001,"o":"m 1001 1181 q 969 1020 1001 1083 q 878 932 936 957 l 878 331 q 773 66 878 139 q 476 -7 668 -7 q 179 66 283 -7 q 75 331 75 139 l 75 1028 l 281 1028 l 281 332 q 330 214 281 250 q 476 178 379 178 q 622 214 574 178 q 671 332 671 250 l 671 1028 l 760 1028 q 833 1063 808 1028 q 858 1181 858 1099 l 1001 1181 z "},"Ứ":{"ha":953,"x_min":75,"x_max":1001,"o":"m 1001 1181 q 969 1020 1001 1083 q 878 932 936 957 l 878 331 q 773 66 878 139 q 476 -7 668 -7 q 179 66 283 -7 q 75 331 75 139 l 75 1028 l 281 1028 l 281 332 q 330 214 281 250 q 476 178 379 178 q 622 214 574 178 q 671 332 671 250 l 671 1028 l 760 1028 q 833 1063 808 1028 q 858 1181 858 1099 l 1001 1181 m 518 1293 l 683 1293 l 524 1099 l 403 1099 l 518 1293 z "},"Ự":{"ha":953,"x_min":75,"x_max":1001,"o":"m 1001 1181 q 969 1020 1001 1083 q 878 932 936 957 l 878 331 q 773 66 878 139 q 476 -7 668 -7 q 179 66 283 -7 q 75 331 75 139 l 75 1028 l 281 1028 l 281 332 q 330 214 281 250 q 476 178 379 178 q 622 214 574 178 q 671 332 671 250 l 671 1028 l 760 1028 q 833 1063 808 1028 q 858 1181 858 1099 l 1001 1181 m 411 -314 q 390 -306 399 -314 q 382 -285 382 -299 l 382 -150 q 390 -128 382 -136 q 411 -119 397 -119 l 507 -119 q 527 -128 519 -119 q 535 -150 535 -137 l 535 -285 q 507 -314 535 -314 l 411 -314 z "},"Ừ":{"ha":953,"x_min":75,"x_max":1001,"o":"m 1001 1181 q 969 1020 1001 1083 q 878 932 936 957 l 878 331 q 773 66 878 139 q 476 -7 668 -7 q 179 66 283 -7 q 75 331 75 139 l 75 1028 l 281 1028 l 281 332 q 330 214 281 250 q 476 178 379 178 q 622 214 574 178 q 671 332 671 250 l 671 1028 l 760 1028 q 833 1063 808 1028 q 858 1181 858 1099 l 1001 1181 m 268 1293 l 435 1293 l 549 1099 l 428 1099 l 268 1293 z "},"Ử":{"ha":953,"x_min":75,"x_max":1001,"o":"m 1001 1181 q 969 1020 1001 1083 q 878 932 936 957 l 878 331 q 773 66 878 139 q 476 -7 668 -7 q 179 66 283 -7 q 75 331 75 139 l 75 1028 l 281 1028 l 281 332 q 330 214 281 250 q 476 178 379 178 q 622 214 574 178 q 671 332 671 250 l 671 1028 l 760 1028 q 833 1063 808 1028 q 858 1181 858 1099 l 1001 1181 m 439 1158 q 494 1214 494 1174 q 449 1253 494 1253 q 403 1244 433 1253 l 403 1325 q 475 1336 436 1336 q 571 1306 539 1336 q 603 1221 603 1276 q 563 1128 603 1165 q 439 1068 524 1092 l 439 1158 z "},"Ữ":{"ha":953,"x_min":75,"x_max":1001,"o":"m 1001 1181 q 969 1020 1001 1083 q 878 932 936 957 l 878 331 q 773 66 878 139 q 476 -7 668 -7 q 179 66 283 -7 q 75 331 75 139 l 75 1028 l 281 1028 l 281 332 q 330 214 281 250 q 476 178 379 178 q 622 214 574 178 q 671 332 671 250 l 671 1028 l 760 1028 q 833 1063 808 1028 q 858 1181 858 1099 l 1001 1181 m 229 1096 q 274 1233 235 1190 q 375 1276 314 1276 q 436 1267 410 1276 q 496 1239 463 1257 q 542 1217 526 1224 q 578 1211 558 1211 q 621 1230 606 1211 q 638 1283 636 1249 l 740 1283 q 699 1144 736 1192 q 597 1097 663 1097 q 536 1107 564 1097 q 472 1135 508 1117 q 429 1156 447 1149 q 393 1163 411 1163 q 351 1144 367 1163 q 332 1096 335 1126 l 229 1096 z "},"Ű":{"ha":953,"x_min":75,"x_max":878,"o":"m 476 -7 q 179 66 283 -7 q 75 331 75 139 l 75 1028 l 281 1028 l 281 332 q 330 214 281 250 q 476 178 379 178 q 622 214 574 178 q 671 332 671 250 l 671 1028 l 878 1028 l 878 331 q 773 66 878 139 q 476 -7 668 -7 m 376 1293 l 533 1293 l 393 1099 l 272 1099 l 376 1293 m 604 1293 l 760 1293 l 621 1099 l 500 1099 l 604 1293 z "},"Ȗ":{"ha":953,"x_min":75,"x_max":878,"o":"m 476 -7 q 179 66 283 -7 q 75 331 75 139 l 75 1028 l 281 1028 l 281 332 q 330 214 281 250 q 476 178 379 178 q 622 214 574 178 q 671 332 671 250 l 671 1028 l 878 1028 l 878 331 q 773 66 878 139 q 476 -7 668 -7 m 465 1301 q 608 1249 557 1301 q 658 1092 658 1197 l 563 1092 q 535 1180 563 1153 q 465 1207 507 1207 q 368 1092 368 1207 l 271 1092 q 322 1250 271 1199 q 465 1301 372 1301 z "},"Ū":{"ha":953,"x_min":75,"x_max":878,"o":"m 476 -7 q 179 66 283 -7 q 75 331 75 139 l 75 1028 l 281 1028 l 281 332 q 330 214 281 250 q 476 178 379 178 q 622 214 574 178 q 671 332 671 250 l 671 1028 l 878 1028 l 878 331 q 773 66 878 139 q 476 -7 668 -7 m 261 1243 l 651 1243 l 651 1121 l 261 1121 l 261 1243 z "},"Ṻ":{"ha":953,"x_min":75,"x_max":878,"o":"m 476 -7 q 179 66 283 -7 q 75 331 75 139 l 75 1028 l 281 1028 l 281 332 q 330 214 281 250 q 476 178 379 178 q 622 214 574 178 q 671 332 671 250 l 671 1028 l 878 1028 l 878 331 q 773 66 878 139 q 476 -7 668 -7 m 261 1243 l 651 1243 l 651 1121 l 261 1121 l 261 1243 m 260 1304 q 239 1312 247 1304 q 231 1333 231 1319 l 231 1468 q 238 1490 231 1482 q 260 1499 246 1499 l 356 1499 q 376 1490 368 1499 q 383 1468 383 1481 l 383 1333 q 356 1304 383 1304 l 260 1304 m 554 1304 q 534 1312 542 1304 q 526 1333 526 1319 l 526 1468 q 533 1490 526 1482 q 554 1499 540 1499 l 650 1499 q 670 1490 663 1499 q 678 1468 678 1481 l 678 1333 q 650 1304 678 1304 l 554 1304 z "},"Ų":{"ha":953,"x_min":75,"x_max":878,"o":"m 878 1028 l 878 331 q 803 94 878 171 q 593 0 729 18 l 594 0 q 542 -44 558 -22 q 526 -94 526 -67 q 549 -147 526 -128 q 607 -165 571 -165 l 619 -165 l 619 -261 q 575 -267 607 -267 q 463 -230 500 -267 q 426 -142 426 -193 q 508 -7 426 -56 l 476 -7 q 179 66 283 -7 q 75 331 75 139 l 75 1028 l 281 1028 l 281 332 q 330 214 281 250 q 476 178 379 178 q 622 214 574 178 q 671 332 671 250 l 671 1028 l 878 1028 z "},"Ů":{"ha":953,"x_min":75,"x_max":878,"o":"m 476 -7 q 179 66 283 -7 q 75 331 75 139 l 75 1028 l 281 1028 l 281 332 q 330 214 281 250 q 476 178 379 178 q 622 214 574 178 q 671 332 671 250 l 671 1028 l 878 1028 l 878 331 q 773 66 878 139 q 476 -7 668 -7 m 465 1065 q 335 1101 378 1065 q 293 1222 293 1136 q 336 1344 293 1308 q 465 1381 379 1381 q 593 1344 551 1381 q 635 1222 635 1308 q 593 1101 635 1136 q 465 1065 551 1065 m 465 1142 q 523 1160 506 1142 q 540 1222 540 1178 q 522 1287 540 1268 q 465 1306 504 1306 q 406 1287 425 1306 q 388 1222 388 1268 q 406 1160 388 1178 q 465 1142 425 1142 z "},"Ũ":{"ha":953,"x_min":75,"x_max":878,"o":"m 476 -7 q 179 66 283 -7 q 75 331 75 139 l 75 1028 l 281 1028 l 281 332 q 330 214 281 250 q 476 178 379 178 q 622 214 574 178 q 671 332 671 250 l 671 1028 l 878 1028 l 878 331 q 773 66 878 139 q 476 -7 668 -7 m 203 1096 q 248 1233 208 1190 q 349 1276 288 1276 q 410 1267 383 1276 q 469 1239 436 1257 q 516 1217 500 1224 q 551 1211 532 1211 q 594 1230 579 1211 q 611 1283 610 1249 l 714 1283 q 673 1144 710 1192 q 571 1097 636 1097 q 510 1107 538 1097 q 446 1135 482 1117 q 403 1156 421 1149 q 367 1163 385 1163 q 324 1144 340 1163 q 306 1096 308 1126 l 203 1096 z "},"Ṹ":{"ha":953,"x_min":75,"x_max":878,"o":"m 476 -7 q 179 66 283 -7 q 75 331 75 139 l 75 1028 l 281 1028 l 281 332 q 330 214 281 250 q 476 178 379 178 q 622 214 574 178 q 671 332 671 250 l 671 1028 l 878 1028 l 878 331 q 773 66 878 139 q 476 -7 668 -7 m 203 1096 q 248 1233 208 1190 q 349 1276 288 1276 q 410 1267 383 1276 q 469 1239 436 1257 q 516 1217 500 1224 q 551 1211 532 1211 q 594 1230 579 1211 q 611 1283 610 1249 l 714 1283 q 673 1144 710 1192 q 571 1097 636 1097 q 510 1107 538 1097 q 446 1135 482 1117 q 403 1156 421 1149 q 367 1163 385 1163 q 324 1144 340 1163 q 306 1096 308 1126 l 203 1096 m 526 1501 l 692 1501 l 532 1307 l 411 1307 l 526 1501 z "},"V":{"ha":951,"x_min":24,"x_max":928,"o":"m 24 1028 l 236 1028 l 476 222 l 717 1028 l 928 1028 l 606 0 l 346 0 l 24 1028 z "},"W":{"ha":1376,"x_min":24,"x_max":1353,"o":"m 24 1028 l 236 1028 l 401 303 l 594 1028 l 783 1028 l 975 303 l 1140 1028 l 1353 1028 l 1107 0 l 897 0 l 689 725 l 479 0 l 269 0 l 24 1028 z "},"Ẃ":{"ha":1376,"x_min":24,"x_max":1353,"o":"m 24 1028 l 236 1028 l 401 303 l 594 1028 l 783 1028 l 975 303 l 1140 1028 l 1353 1028 l 1107 0 l 897 0 l 689 725 l 479 0 l 269 0 l 24 1028 m 789 1293 l 954 1293 l 794 1099 l 674 1099 l 789 1293 z "},"Ŵ":{"ha":1376,"x_min":24,"x_max":1353,"o":"m 24 1028 l 236 1028 l 401 303 l 594 1028 l 783 1028 l 975 303 l 1140 1028 l 1353 1028 l 1107 0 l 897 0 l 689 725 l 479 0 l 269 0 l 24 1028 m 660 1296 l 801 1296 l 938 1099 l 818 1099 l 726 1204 l 629 1099 l 510 1099 l 660 1296 z "},"Ẅ":{"ha":1376,"x_min":24,"x_max":1353,"o":"m 24 1028 l 236 1028 l 401 303 l 594 1028 l 783 1028 l 975 303 l 1140 1028 l 1353 1028 l 1107 0 l 897 0 l 689 725 l 479 0 l 269 0 l 24 1028 m 522 1107 q 501 1115 510 1107 q 493 1136 493 1122 l 493 1271 q 501 1293 493 1285 q 522 1301 508 1301 l 618 1301 q 638 1292 631 1301 q 646 1271 646 1283 l 646 1136 q 618 1107 646 1107 l 522 1107 m 817 1107 q 797 1115 804 1107 q 789 1136 789 1122 l 789 1271 q 796 1293 789 1285 q 817 1301 803 1301 l 913 1301 q 933 1292 925 1301 q 940 1271 940 1283 l 940 1136 q 913 1107 940 1107 l 817 1107 z "},"Ẁ":{"ha":1376,"x_min":24,"x_max":1353,"o":"m 24 1028 l 236 1028 l 401 303 l 594 1028 l 783 1028 l 975 303 l 1140 1028 l 1353 1028 l 1107 0 l 897 0 l 689 725 l 479 0 l 269 0 l 24 1028 m 531 1293 l 697 1293 l 811 1099 l 690 1099 l 531 1293 z "},"X":{"ha":921,"x_min":24,"x_max":897,"o":"m 578 504 l 893 0 l 665 0 l 451 342 l 256 0 l 28 0 l 344 515 l 24 1028 l 251 1028 l 471 676 l 671 1028 l 897 1028 l 578 504 z "},"Y":{"ha":872,"x_min":24,"x_max":847,"o":"m 333 311 l 24 1028 l 238 1028 l 440 521 l 642 1028 l 847 1028 l 539 311 l 539 0 l 333 0 l 333 311 z "},"Ý":{"ha":872,"x_min":24,"x_max":847,"o":"m 333 311 l 24 1028 l 238 1028 l 440 521 l 642 1028 l 847 1028 l 539 311 l 539 0 l 333 0 l 333 311 m 503 1293 l 668 1293 l 508 1099 l 388 1099 l 503 1293 z "},"Ŷ":{"ha":872,"x_min":24,"x_max":847,"o":"m 333 311 l 24 1028 l 238 1028 l 440 521 l 642 1028 l 847 1028 l 539 311 l 539 0 l 333 0 l 333 311 m 374 1296 l 515 1296 l 651 1099 l 532 1099 l 440 1204 l 343 1099 l 224 1099 l 374 1296 z "},"Ÿ":{"ha":872,"x_min":24,"x_max":847,"o":"m 333 311 l 24 1028 l 238 1028 l 440 521 l 642 1028 l 847 1028 l 539 311 l 539 0 l 333 0 l 333 311 m 236 1107 q 215 1115 224 1107 q 207 1136 207 1122 l 207 1271 q 215 1293 207 1285 q 236 1301 222 1301 l 332 1301 q 352 1292 344 1301 q 360 1271 360 1283 l 360 1136 q 332 1107 360 1107 l 236 1107 m 531 1107 q 510 1115 518 1107 q 503 1136 503 1122 l 503 1271 q 510 1293 503 1285 q 531 1301 517 1301 l 626 1301 q 647 1292 639 1301 q 654 1271 654 1283 l 654 1136 q 626 1107 654 1107 l 531 1107 z "},"Ẏ":{"ha":872,"x_min":24,"x_max":847,"o":"m 333 311 l 24 1028 l 238 1028 l 440 521 l 642 1028 l 847 1028 l 539 311 l 539 0 l 333 0 l 333 311 m 393 -314 q 372 -306 381 -314 q 364 -285 364 -299 l 364 -150 q 372 -128 364 -136 q 393 -119 379 -119 l 489 -119 q 509 -128 501 -119 q 517 -150 517 -137 l 517 -285 q 489 -314 517 -314 l 393 -314 z "},"Ỵ":{"ha":872,"x_min":24,"x_max":847,"o":"m 333 311 l 24 1028 l 238 1028 l 440 521 l 642 1028 l 847 1028 l 539 311 l 539 0 l 333 0 l 333 311 m 393 -314 q 372 -306 381 -314 q 364 -285 364 -299 l 364 -150 q 372 -128 364 -136 q 393 -119 379 -119 l 489 -119 q 509 -128 501 -119 q 517 -150 517 -137 l 517 -285 q 489 -314 517 -314 l 393 -314 z "},"Ỳ":{"ha":872,"x_min":24,"x_max":847,"o":"m 333 311 l 24 1028 l 238 1028 l 440 521 l 642 1028 l 847 1028 l 539 311 l 539 0 l 333 0 l 333 311 m 244 1293 l 411 1293 l 525 1099 l 404 1099 l 244 1293 z "},"Ỷ":{"ha":872,"x_min":24,"x_max":847,"o":"m 333 311 l 24 1028 l 238 1028 l 440 521 l 642 1028 l 847 1028 l 539 311 l 539 0 l 333 0 l 333 311 m 399 1158 q 454 1214 454 1174 q 408 1253 454 1253 q 363 1244 393 1253 l 363 1325 q 435 1336 396 1336 q 531 1306 499 1336 q 563 1221 563 1276 q 523 1128 563 1165 q 399 1068 483 1092 l 399 1158 z "},"Ȳ":{"ha":872,"x_min":24,"x_max":847,"o":"m 333 311 l 24 1028 l 238 1028 l 440 521 l 642 1028 l 847 1028 l 539 311 l 539 0 l 333 0 l 333 311 m 238 1243 l 628 1243 l 628 1121 l 238 1121 l 238 1243 z "},"Ỹ":{"ha":872,"x_min":24,"x_max":847,"o":"m 333 311 l 24 1028 l 238 1028 l 440 521 l 642 1028 l 847 1028 l 539 311 l 539 0 l 333 0 l 333 311 m 179 1096 q 224 1233 185 1190 q 325 1276 264 1276 q 386 1267 360 1276 q 446 1239 413 1257 q 492 1217 476 1224 q 528 1211 508 1211 q 571 1230 556 1211 q 588 1283 586 1249 l 690 1283 q 649 1144 686 1192 q 547 1097 613 1097 q 486 1107 514 1097 q 422 1135 458 1117 q 379 1156 397 1149 q 343 1163 361 1163 q 301 1144 317 1163 q 282 1096 285 1126 l 179 1096 z "},"Z":{"ha":797,"x_min":53,"x_max":747,"o":"m 53 165 l 496 843 l 53 843 l 53 1028 l 747 1028 l 747 864 l 304 185 l 747 185 l 747 0 l 53 0 l 53 165 z "},"Ź":{"ha":797,"x_min":53,"x_max":747,"o":"m 53 165 l 496 843 l 53 843 l 53 1028 l 747 1028 l 747 864 l 304 185 l 747 185 l 747 0 l 53 0 l 53 165 m 454 1293 l 619 1293 l 460 1099 l 339 1099 l 454 1293 z "},"Ž":{"ha":797,"x_min":53,"x_max":747,"o":"m 53 165 l 496 843 l 53 843 l 53 1028 l 747 1028 l 747 864 l 304 185 l 747 185 l 747 0 l 53 0 l 53 165 m 181 1296 l 300 1296 l 392 1190 l 489 1296 l 608 1296 l 458 1099 l 318 1099 l 181 1296 z "},"Ż":{"ha":797,"x_min":53,"x_max":747,"o":"m 53 165 l 496 843 l 53 843 l 53 1028 l 747 1028 l 747 864 l 304 185 l 747 185 l 747 0 l 53 0 l 53 165 m 340 1117 q 319 1124 328 1117 q 311 1146 311 1132 l 311 1281 q 319 1303 311 1294 q 340 1311 326 1311 l 436 1311 q 456 1302 449 1311 q 464 1281 464 1293 l 464 1146 q 436 1117 464 1117 l 340 1117 z "},"Ẓ":{"ha":797,"x_min":53,"x_max":747,"o":"m 53 165 l 496 843 l 53 843 l 53 1028 l 747 1028 l 747 864 l 304 185 l 747 185 l 747 0 l 53 0 l 53 165 m 344 -314 q 324 -306 332 -314 q 315 -285 315 -299 l 315 -150 q 323 -128 315 -136 q 344 -119 331 -119 l 440 -119 q 460 -128 453 -119 q 468 -150 468 -137 l 468 -285 q 440 -314 468 -314 l 344 -314 z "},"a":{"ha":764,"x_min":47,"x_max":689,"o":"m 238 -8 q 99 42 151 -8 q 47 181 47 93 l 47 247 q 109 389 47 336 q 293 442 171 442 l 483 442 l 483 493 q 471 552 483 531 q 424 584 458 574 q 321 594 389 594 l 97 594 l 97 714 q 396 756 235 756 q 616 700 543 756 q 689 507 689 644 l 689 0 l 526 0 l 493 79 q 439 43 478 64 q 347 7 400 22 q 238 -8 293 -8 m 344 135 q 424 149 376 135 q 483 171 471 164 l 483 344 l 358 336 q 253 244 253 328 l 253 214 q 344 135 253 135 z "},"á":{"ha":764,"x_min":47,"x_max":689,"o":"m 238 -8 q 99 42 151 -8 q 47 181 47 93 l 47 247 q 109 389 47 336 q 293 442 171 442 l 483 442 l 483 493 q 471 552 483 531 q 424 584 458 574 q 321 594 389 594 l 97 594 l 97 714 q 396 756 235 756 q 616 700 543 756 q 689 507 689 644 l 689 0 l 526 0 l 493 79 q 439 43 478 64 q 347 7 400 22 q 238 -8 293 -8 m 344 135 q 424 149 376 135 q 483 171 471 164 l 483 344 l 358 336 q 253 244 253 328 l 253 214 q 344 135 253 135 m 431 1071 l 596 1071 l 436 876 l 315 876 l 431 1071 z "},"ă":{"ha":764,"x_min":47,"x_max":689,"o":"m 238 -8 q 99 42 151 -8 q 47 181 47 93 l 47 247 q 109 389 47 336 q 293 442 171 442 l 483 442 l 483 493 q 471 552 483 531 q 424 584 458 574 q 321 594 389 594 l 97 594 l 97 714 q 396 756 235 756 q 616 700 543 756 q 689 507 689 644 l 689 0 l 526 0 l 493 79 q 439 43 478 64 q 347 7 400 22 q 238 -8 293 -8 m 344 135 q 424 149 376 135 q 483 171 471 164 l 483 344 l 358 336 q 253 244 253 328 l 253 214 q 344 135 253 135 m 365 865 q 223 917 274 865 q 172 1075 172 969 l 268 1075 q 296 987 268 1014 q 365 960 324 960 q 463 1075 463 960 l 560 1075 q 509 917 560 968 q 365 865 458 865 z "},"ắ":{"ha":764,"x_min":47,"x_max":689,"o":"m 238 -8 q 99 42 151 -8 q 47 181 47 93 l 47 247 q 109 389 47 336 q 293 442 171 442 l 483 442 l 483 493 q 471 552 483 531 q 424 584 458 574 q 321 594 389 594 l 97 594 l 97 714 q 396 756 235 756 q 616 700 543 756 q 689 507 689 644 l 689 0 l 526 0 l 493 79 q 439 43 478 64 q 347 7 400 22 q 238 -8 293 -8 m 344 135 q 424 149 376 135 q 483 171 471 164 l 483 344 l 358 336 q 253 244 253 328 l 253 214 q 344 135 253 135 m 421 1240 l 586 1240 l 426 1046 l 306 1046 l 421 1240 m 268 1014 q 295 949 268 968 q 365 929 322 929 q 463 1014 463 929 l 561 1014 q 510 887 561 928 q 365 846 460 846 q 222 888 272 846 q 172 1014 172 929 l 268 1014 z "},"ặ":{"ha":764,"x_min":47,"x_max":689,"o":"m 238 -8 q 99 42 151 -8 q 47 181 47 93 l 47 247 q 109 389 47 336 q 293 442 171 442 l 483 442 l 483 493 q 471 552 483 531 q 424 584 458 574 q 321 594 389 594 l 97 594 l 97 714 q 396 756 235 756 q 616 700 543 756 q 689 507 689 644 l 689 0 l 526 0 l 493 79 q 439 43 478 64 q 347 7 400 22 q 238 -8 293 -8 m 344 135 q 424 149 376 135 q 483 171 471 164 l 483 344 l 358 336 q 253 244 253 328 l 253 214 q 344 135 253 135 m 365 865 q 223 917 274 865 q 172 1075 172 969 l 268 1075 q 296 987 268 1014 q 365 960 324 960 q 463 1075 463 960 l 560 1075 q 509 917 560 968 q 365 865 458 865 m 321 -314 q 301 -306 308 -314 q 293 -285 293 -299 l 293 -150 q 321 -119 293 -119 l 417 -119 q 437 -128 429 -119 q 444 -150 444 -137 l 444 -285 q 417 -314 444 -314 l 321 -314 z "},"ằ":{"ha":764,"x_min":47,"x_max":689,"o":"m 238 -8 q 99 42 151 -8 q 47 181 47 93 l 47 247 q 109 389 47 336 q 293 442 171 442 l 483 442 l 483 493 q 471 552 483 531 q 424 584 458 574 q 321 594 389 594 l 97 594 l 97 714 q 396 756 235 756 q 616 700 543 756 q 689 507 689 644 l 689 0 l 526 0 l 493 79 q 439 43 478 64 q 347 7 400 22 q 238 -8 293 -8 m 344 135 q 424 149 376 135 q 483 171 471 164 l 483 344 l 358 336 q 253 244 253 328 l 253 214 q 344 135 253 135 m 156 1240 l 322 1240 l 436 1046 l 315 1046 l 156 1240 m 268 1014 q 295 949 268 968 q 365 929 322 929 q 463 1014 463 929 l 561 1014 q 510 887 561 928 q 365 846 460 846 q 222 888 272 846 q 172 1014 172 929 l 268 1014 z "},"ẳ":{"ha":764,"x_min":47,"x_max":689,"o":"m 238 -8 q 99 42 151 -8 q 47 181 47 93 l 47 247 q 109 389 47 336 q 293 442 171 442 l 483 442 l 483 493 q 471 552 483 531 q 424 584 458 574 q 321 594 389 594 l 97 594 l 97 714 q 396 756 235 756 q 616 700 543 756 q 689 507 689 644 l 689 0 l 526 0 l 493 79 q 439 43 478 64 q 347 7 400 22 q 238 -8 293 -8 m 344 135 q 424 149 376 135 q 483 171 471 164 l 483 344 l 358 336 q 253 244 253 328 l 253 214 q 344 135 253 135 m 336 1078 q 392 1133 392 1093 q 346 1172 392 1172 q 300 1164 331 1172 l 300 1244 q 372 1256 333 1256 q 468 1226 436 1256 q 500 1140 500 1196 q 460 1048 500 1085 q 336 988 421 1011 l 336 1078 m 365 846 q 222 888 272 846 q 172 1014 172 929 l 268 1014 q 295 949 268 968 q 365 929 322 929 q 463 1014 463 929 l 561 1014 q 510 887 561 928 q 365 846 460 846 z "},"ẵ":{"ha":764,"x_min":47,"x_max":689,"o":"m 238 -8 q 99 42 151 -8 q 47 181 47 93 l 47 247 q 109 389 47 336 q 293 442 171 442 l 483 442 l 483 493 q 471 552 483 531 q 424 584 458 574 q 321 594 389 594 l 97 594 l 97 714 q 396 756 235 756 q 616 700 543 756 q 689 507 689 644 l 689 0 l 526 0 l 493 79 q 439 43 478 64 q 347 7 400 22 q 238 -8 293 -8 m 344 135 q 424 149 376 135 q 483 171 471 164 l 483 344 l 358 336 q 253 244 253 328 l 253 214 q 344 135 253 135 m 267 1204 q 364 1182 306 1204 q 399 1170 381 1175 q 431 1165 417 1165 q 471 1177 457 1165 q 485 1211 485 1189 l 588 1211 q 553 1098 581 1129 q 468 1067 525 1067 q 405 1077 438 1067 q 368 1089 372 1088 q 341 1098 364 1090 q 303 1106 318 1106 q 265 1094 279 1106 q 247 1065 250 1083 l 144 1065 q 183 1175 151 1146 q 267 1204 214 1204 m 268 1014 q 295 949 268 968 q 365 929 322 929 q 463 1014 463 929 l 561 1014 q 510 887 561 928 q 365 846 460 846 q 222 888 272 846 q 172 1014 172 929 l 268 1014 z "},"â":{"ha":764,"x_min":47,"x_max":689,"o":"m 238 -8 q 99 42 151 -8 q 47 181 47 93 l 47 247 q 109 389 47 336 q 293 442 171 442 l 483 442 l 483 493 q 471 552 483 531 q 424 584 458 574 q 321 594 389 594 l 97 594 l 97 714 q 396 756 235 756 q 616 700 543 756 q 689 507 689 644 l 689 0 l 526 0 l 493 79 q 439 43 478 64 q 347 7 400 22 q 238 -8 293 -8 m 344 135 q 424 149 376 135 q 483 171 471 164 l 483 344 l 358 336 q 253 244 253 328 l 253 214 q 344 135 253 135 m 308 1074 l 450 1074 l 586 876 l 467 876 l 375 982 l 278 876 l 158 876 l 308 1074 z "},"ấ":{"ha":764,"x_min":47,"x_max":735,"o":"m 238 -8 q 99 42 151 -8 q 47 181 47 93 l 47 247 q 109 389 47 336 q 293 442 171 442 l 483 442 l 483 493 q 471 552 483 531 q 424 584 458 574 q 321 594 389 594 l 97 594 l 97 714 q 396 756 235 756 q 616 700 543 756 q 689 507 689 644 l 689 0 l 526 0 l 493 79 q 439 43 478 64 q 347 7 400 22 q 238 -8 293 -8 m 344 135 q 424 149 376 135 q 483 171 471 164 l 483 344 l 358 336 q 253 244 253 328 l 253 214 q 344 135 253 135 m 735 1168 l 626 994 l 506 994 l 568 1168 l 735 1168 m 450 1028 l 586 876 l 467 876 l 376 936 l 279 876 l 158 876 l 310 1028 l 450 1028 z "},"ậ":{"ha":764,"x_min":47,"x_max":689,"o":"m 238 -8 q 99 42 151 -8 q 47 181 47 93 l 47 247 q 109 389 47 336 q 293 442 171 442 l 483 442 l 483 493 q 471 552 483 531 q 424 584 458 574 q 321 594 389 594 l 97 594 l 97 714 q 396 756 235 756 q 616 700 543 756 q 689 507 689 644 l 689 0 l 526 0 l 493 79 q 439 43 478 64 q 347 7 400 22 q 238 -8 293 -8 m 344 135 q 424 149 376 135 q 483 171 471 164 l 483 344 l 358 336 q 253 244 253 328 l 253 214 q 344 135 253 135 m 308 1074 l 450 1074 l 586 876 l 467 876 l 375 982 l 278 876 l 158 876 l 308 1074 m 321 -314 q 301 -306 308 -314 q 293 -285 293 -299 l 293 -150 q 321 -119 293 -119 l 417 -119 q 437 -128 429 -119 q 444 -150 444 -137 l 444 -285 q 417 -314 444 -314 l 321 -314 z "},"ầ":{"ha":764,"x_min":17,"x_max":689,"o":"m 238 -8 q 99 42 151 -8 q 47 181 47 93 l 47 247 q 109 389 47 336 q 293 442 171 442 l 483 442 l 483 493 q 471 552 483 531 q 424 584 458 574 q 321 594 389 594 l 97 594 l 97 714 q 396 756 235 756 q 616 700 543 756 q 689 507 689 644 l 689 0 l 526 0 l 493 79 q 439 43 478 64 q 347 7 400 22 q 238 -8 293 -8 m 344 135 q 424 149 376 135 q 483 171 471 164 l 483 344 l 358 336 q 253 244 253 328 l 253 214 q 344 135 253 135 m 183 1168 l 247 994 l 126 994 l 17 1168 l 183 1168 m 450 1028 l 586 876 l 467 876 l 376 936 l 279 876 l 158 876 l 310 1028 l 450 1028 z "},"ẩ":{"ha":764,"x_min":47,"x_max":689,"o":"m 238 -8 q 99 42 151 -8 q 47 181 47 93 l 47 247 q 109 389 47 336 q 293 442 171 442 l 483 442 l 483 493 q 471 552 483 531 q 424 584 458 574 q 321 594 389 594 l 97 594 l 97 714 q 396 756 235 756 q 616 700 543 756 q 689 507 689 644 l 689 0 l 526 0 l 493 79 q 439 43 478 64 q 347 7 400 22 q 238 -8 293 -8 m 344 135 q 424 149 376 135 q 483 171 471 164 l 483 344 l 358 336 q 253 244 253 328 l 253 214 q 344 135 253 135 m 539 1043 q 582 1089 582 1056 q 574 1113 582 1106 q 547 1121 567 1121 q 503 1113 524 1121 l 503 1183 q 575 1194 536 1194 q 653 1170 626 1194 q 679 1103 679 1146 q 646 1010 679 1047 q 539 953 613 974 l 539 1043 m 310 1028 l 450 1028 l 586 876 l 467 876 l 376 936 l 279 876 l 158 876 l 310 1028 z "},"ẫ":{"ha":764,"x_min":47,"x_max":689,"o":"m 238 -8 q 99 42 151 -8 q 47 181 47 93 l 47 247 q 109 389 47 336 q 293 442 171 442 l 483 442 l 483 493 q 471 552 483 531 q 424 584 458 574 q 321 594 389 594 l 97 594 l 97 714 q 396 756 235 756 q 616 700 543 756 q 689 507 689 644 l 689 0 l 526 0 l 493 79 q 439 43 478 64 q 347 7 400 22 q 238 -8 293 -8 m 344 135 q 424 149 376 135 q 483 171 471 164 l 483 344 l 358 336 q 253 244 253 328 l 253 214 q 344 135 253 135 m 267 1225 q 363 1203 307 1225 q 390 1194 368 1201 q 431 1186 411 1186 q 471 1198 457 1186 q 485 1232 485 1210 l 588 1232 q 553 1119 581 1150 q 468 1088 525 1088 q 402 1098 436 1088 q 361 1110 368 1108 q 333 1119 357 1111 q 292 1126 308 1126 q 261 1115 272 1126 q 247 1085 250 1103 l 144 1085 q 183 1195 151 1165 q 267 1225 214 1225 m 586 876 l 467 876 l 376 936 l 279 876 l 158 876 l 310 1028 l 450 1028 l 586 876 z "},"ȁ":{"ha":764,"x_min":47,"x_max":689,"o":"m 238 -8 q 99 42 151 -8 q 47 181 47 93 l 47 247 q 109 389 47 336 q 293 442 171 442 l 483 442 l 483 493 q 471 552 483 531 q 424 584 458 574 q 321 594 389 594 l 97 594 l 97 714 q 396 756 235 756 q 616 700 543 756 q 689 507 689 644 l 689 0 l 526 0 l 493 79 q 439 43 478 64 q 347 7 400 22 q 238 -8 293 -8 m 344 135 q 424 149 376 135 q 483 171 471 164 l 483 344 l 358 336 q 253 244 253 328 l 253 214 q 344 135 253 135 m 56 1071 l 221 1071 l 336 876 l 215 876 l 56 1071 m 303 1071 l 469 1071 l 583 876 l 463 876 l 303 1071 z "},"ä":{"ha":764,"x_min":47,"x_max":689,"o":"m 238 -8 q 99 42 151 -8 q 47 181 47 93 l 47 247 q 109 389 47 336 q 293 442 171 442 l 483 442 l 483 493 q 471 552 483 531 q 424 584 458 574 q 321 594 389 594 l 97 594 l 97 714 q 396 756 235 756 q 616 700 543 756 q 689 507 689 644 l 689 0 l 526 0 l 493 79 q 439 43 478 64 q 347 7 400 22 q 238 -8 293 -8 m 344 135 q 424 149 376 135 q 483 171 471 164 l 483 344 l 358 336 q 253 244 253 328 l 253 214 q 344 135 253 135 m 186 885 q 165 892 174 885 q 157 914 157 900 l 157 1049 q 165 1071 157 1063 q 186 1079 172 1079 l 281 1079 q 301 1071 294 1079 q 308 1049 308 1063 l 308 914 q 281 885 308 885 l 186 885 m 458 885 q 438 892 446 885 q 429 914 429 900 l 429 1049 q 437 1071 429 1063 q 458 1079 444 1079 l 554 1079 q 574 1070 567 1079 q 582 1049 582 1061 l 582 914 q 554 885 582 885 l 458 885 z "},"ạ":{"ha":764,"x_min":47,"x_max":689,"o":"m 238 -8 q 99 42 151 -8 q 47 181 47 93 l 47 247 q 109 389 47 336 q 293 442 171 442 l 483 442 l 483 493 q 471 552 483 531 q 424 584 458 574 q 321 594 389 594 l 97 594 l 97 714 q 396 756 235 756 q 616 700 543 756 q 689 507 689 644 l 689 0 l 526 0 l 493 79 q 439 43 478 64 q 347 7 400 22 q 238 -8 293 -8 m 344 135 q 424 149 376 135 q 483 171 471 164 l 483 344 l 358 336 q 253 244 253 328 l 253 214 q 344 135 253 135 m 321 -314 q 301 -306 308 -314 q 293 -285 293 -299 l 293 -150 q 321 -119 293 -119 l 417 -119 q 437 -128 429 -119 q 444 -150 444 -137 l 444 -285 q 417 -314 444 -314 l 321 -314 z "},"à":{"ha":764,"x_min":47,"x_max":689,"o":"m 238 -8 q 99 42 151 -8 q 47 181 47 93 l 47 247 q 109 389 47 336 q 293 442 171 442 l 483 442 l 483 493 q 471 552 483 531 q 424 584 458 574 q 321 594 389 594 l 97 594 l 97 714 q 396 756 235 756 q 616 700 543 756 q 689 507 689 644 l 689 0 l 526 0 l 493 79 q 439 43 478 64 q 347 7 400 22 q 238 -8 293 -8 m 344 135 q 424 149 376 135 q 483 171 471 164 l 483 344 l 358 336 q 253 244 253 328 l 253 214 q 344 135 253 135 m 186 1071 l 353 1071 l 467 876 l 346 876 l 186 1071 z "},"ả":{"ha":764,"x_min":47,"x_max":689,"o":"m 238 -8 q 99 42 151 -8 q 47 181 47 93 l 47 247 q 109 389 47 336 q 293 442 171 442 l 483 442 l 483 493 q 471 552 483 531 q 424 584 458 574 q 321 594 389 594 l 97 594 l 97 714 q 396 756 235 756 q 616 700 543 756 q 689 507 689 644 l 689 0 l 526 0 l 493 79 q 439 43 478 64 q 347 7 400 22 q 238 -8 293 -8 m 344 135 q 424 149 376 135 q 483 171 471 164 l 483 344 l 358 336 q 253 244 253 328 l 253 214 q 344 135 253 135 m 336 915 q 392 971 392 931 q 346 1010 392 1010 q 300 1001 331 1010 l 300 1082 q 372 1093 333 1093 q 468 1063 436 1093 q 500 978 500 1033 q 460 885 500 922 q 336 825 421 849 l 336 915 z "},"ȃ":{"ha":764,"x_min":47,"x_max":689,"o":"m 238 -8 q 99 42 151 -8 q 47 181 47 93 l 47 247 q 109 389 47 336 q 293 442 171 442 l 483 442 l 483 493 q 471 552 483 531 q 424 584 458 574 q 321 594 389 594 l 97 594 l 97 714 q 396 756 235 756 q 616 700 543 756 q 689 507 689 644 l 689 0 l 526 0 l 493 79 q 439 43 478 64 q 347 7 400 22 q 238 -8 293 -8 m 344 135 q 424 149 376 135 q 483 171 471 164 l 483 344 l 358 336 q 253 244 253 328 l 253 214 q 344 135 253 135 m 378 1079 q 520 1027 469 1079 q 571 869 571 975 l 475 869 q 447 958 475 931 q 378 985 419 985 q 281 869 281 985 l 183 869 q 234 1028 183 976 q 378 1079 285 1079 z "},"ā":{"ha":764,"x_min":47,"x_max":689,"o":"m 238 -8 q 99 42 151 -8 q 47 181 47 93 l 47 247 q 109 389 47 336 q 293 442 171 442 l 483 442 l 483 493 q 471 552 483 531 q 424 584 458 574 q 321 594 389 594 l 97 594 l 97 714 q 396 756 235 756 q 616 700 543 756 q 689 507 689 644 l 689 0 l 526 0 l 493 79 q 439 43 478 64 q 347 7 400 22 q 238 -8 293 -8 m 344 135 q 424 149 376 135 q 483 171 471 164 l 483 344 l 358 336 q 253 244 253 328 l 253 214 q 344 135 253 135 m 175 1021 l 565 1021 l 565 899 l 175 899 l 175 1021 z "},"ą":{"ha":764,"x_min":47,"x_max":715,"o":"m 715 -165 l 715 -261 q 671 -267 703 -267 q 559 -230 596 -267 q 522 -142 522 -193 q 615 0 522 -49 l 526 0 l 493 79 q 439 43 478 64 q 347 7 400 22 q 238 -8 293 -8 q 99 42 151 -8 q 47 181 47 93 l 47 247 q 109 389 47 336 q 293 442 171 442 l 483 442 l 483 493 q 471 552 483 531 q 424 584 458 574 q 321 594 389 594 l 97 594 l 97 714 q 396 756 235 756 q 616 700 543 756 q 689 507 689 644 l 689 0 l 690 0 q 638 -44 654 -22 q 622 -94 622 -67 q 644 -147 622 -128 q 703 -165 667 -165 l 715 -165 m 483 344 l 358 336 q 253 244 253 328 l 253 214 q 344 135 253 135 q 424 149 376 135 q 483 171 471 164 l 483 344 z "},"å":{"ha":764,"x_min":47,"x_max":689,"o":"m 238 -8 q 99 42 151 -8 q 47 181 47 93 l 47 247 q 109 389 47 336 q 293 442 171 442 l 483 442 l 483 493 q 471 552 483 531 q 424 584 458 574 q 321 594 389 594 l 97 594 l 97 714 q 396 756 235 756 q 616 700 543 756 q 689 507 689 644 l 689 0 l 526 0 l 493 79 q 439 43 478 64 q 347 7 400 22 q 238 -8 293 -8 m 344 135 q 424 149 376 135 q 483 171 471 164 l 483 344 l 358 336 q 253 244 253 328 l 253 214 q 344 135 253 135 m 376 813 q 247 848 289 813 q 204 969 204 883 q 247 1092 204 1056 q 376 1128 290 1128 q 504 1092 463 1128 q 546 969 546 1056 q 504 848 546 883 q 376 813 463 813 m 376 889 q 434 907 417 889 q 451 969 451 925 q 433 1034 451 1015 q 376 1053 415 1053 q 317 1034 336 1053 q 299 969 299 1015 q 317 907 299 925 q 376 889 336 889 z "},"ǻ":{"ha":764,"x_min":47,"x_max":689,"o":"m 376 813 q 247 848 289 813 q 204 969 204 883 q 237 1081 204 1044 q 336 1125 269 1118 l 435 1293 l 600 1293 l 456 1118 q 524 1069 501 1104 q 546 969 546 1033 q 504 848 546 883 q 376 813 463 813 m 376 1053 q 317 1034 336 1053 q 299 969 299 1015 q 317 907 299 925 q 376 889 336 889 q 434 907 417 889 q 451 969 451 925 q 433 1034 451 1015 q 376 1053 415 1053 m 396 756 q 616 700 543 756 q 689 507 689 644 l 689 0 l 526 0 l 493 79 q 439 43 478 64 q 347 7 400 22 q 238 -8 293 -8 q 99 42 151 -8 q 47 181 47 93 l 47 247 q 109 389 47 336 q 293 442 171 442 l 483 442 l 483 493 q 471 552 483 531 q 424 584 458 574 q 321 594 389 594 l 97 594 l 97 714 q 396 756 235 756 m 483 344 l 358 336 q 253 244 253 328 l 253 214 q 344 135 253 135 q 424 149 376 135 q 483 171 471 164 l 483 344 z "},"ã":{"ha":764,"x_min":47,"x_max":689,"o":"m 238 -8 q 99 42 151 -8 q 47 181 47 93 l 47 247 q 109 389 47 336 q 293 442 171 442 l 483 442 l 483 493 q 471 552 483 531 q 424 584 458 574 q 321 594 389 594 l 97 594 l 97 714 q 396 756 235 756 q 616 700 543 756 q 689 507 689 644 l 689 0 l 526 0 l 493 79 q 439 43 478 64 q 347 7 400 22 q 238 -8 293 -8 m 344 135 q 424 149 376 135 q 483 171 471 164 l 483 344 l 358 336 q 253 244 253 328 l 253 214 q 344 135 253 135 m 126 874 q 172 1011 132 968 q 272 1054 211 1054 q 333 1044 307 1054 q 393 1017 360 1035 q 440 995 424 1001 q 475 989 456 989 q 518 1008 503 989 q 535 1061 533 1026 l 638 1061 q 597 922 633 969 q 494 875 560 875 q 433 885 461 875 q 369 913 406 894 q 326 933 344 926 q 290 940 308 940 q 248 922 264 940 q 229 874 232 904 l 126 874 z "},"æ":{"ha":1183,"x_min":50,"x_max":1117,"o":"m 247 -8 q 99 46 147 -8 q 50 183 50 100 l 50 244 q 111 385 50 332 q 297 439 172 439 l 488 439 l 488 497 q 454 572 488 549 q 340 594 421 594 l 101 594 l 101 714 q 226 745 167 735 q 361 756 285 756 q 502 732 440 756 q 596 668 564 708 q 826 757 669 757 q 994 733 932 757 q 1087 652 1057 710 q 1117 492 1117 594 q 1054 348 1117 390 q 864 306 992 306 l 688 306 q 712 206 688 240 q 779 158 736 171 q 893 146 822 146 l 1092 146 l 1092 25 q 792 -8 976 -8 q 640 26 707 -8 q 540 115 572 61 q 414 28 492 64 q 247 -8 336 -8 m 858 435 q 914 450 896 435 q 932 497 932 465 q 903 580 932 557 q 810 603 874 603 q 734 588 760 603 q 699 537 708 572 q 688 435 689 501 l 858 435 m 344 135 q 427 153 386 135 q 500 201 468 171 q 485 340 485 260 l 338 328 q 276 302 296 325 q 257 246 257 279 l 257 218 q 344 135 257 135 z "},"ǽ":{"ha":1183,"x_min":50,"x_max":1117,"o":"m 247 -8 q 99 46 147 -8 q 50 183 50 100 l 50 244 q 111 385 50 332 q 297 439 172 439 l 488 439 l 488 497 q 454 572 488 549 q 340 594 421 594 l 101 594 l 101 714 q 226 745 167 735 q 361 756 285 756 q 502 732 440 756 q 596 668 564 708 q 826 757 669 757 q 994 733 932 757 q 1087 652 1057 710 q 1117 492 1117 594 q 1054 348 1117 390 q 864 306 992 306 l 688 306 q 712 206 688 240 q 779 158 736 171 q 893 146 822 146 l 1092 146 l 1092 25 q 792 -8 976 -8 q 640 26 707 -8 q 540 115 572 61 q 414 28 492 64 q 247 -8 336 -8 m 858 435 q 914 450 896 435 q 932 497 932 465 q 903 580 932 557 q 810 603 874 603 q 734 588 760 603 q 699 537 708 572 q 688 435 689 501 l 858 435 m 344 135 q 427 153 386 135 q 500 201 468 171 q 485 340 485 260 l 338 328 q 276 302 296 325 q 257 246 257 279 l 257 218 q 344 135 257 135 m 650 1071 l 815 1071 l 656 876 l 535 876 l 650 1071 z "},"b":{"ha":813,"x_min":79,"x_max":756,"o":"m 501 -8 q 383 13 433 -8 q 285 71 332 33 l 251 0 l 79 0 l 79 1060 l 285 1060 l 285 694 q 389 739 333 721 q 492 757 444 757 q 645 717 588 757 q 729 592 703 678 q 756 365 756 507 q 693 84 756 176 q 501 -8 631 -8 m 425 160 q 517 208 485 160 q 550 375 550 257 q 533 513 550 465 q 490 576 517 561 q 425 592 463 592 q 285 550 357 592 l 285 196 q 425 160 351 160 z "},"ḃ":{"ha":813,"x_min":79,"x_max":756,"o":"m 501 -8 q 383 13 433 -8 q 285 71 332 33 l 251 0 l 79 0 l 79 1060 l 285 1060 l 285 694 q 389 739 333 721 q 492 757 444 757 q 645 717 588 757 q 729 592 703 678 q 756 365 756 507 q 693 84 756 176 q 501 -8 631 -8 m 425 160 q 517 208 485 160 q 550 375 550 257 q 533 513 550 465 q 490 576 517 561 q 425 592 463 592 q 285 550 357 592 l 285 196 q 425 160 351 160 m 132 1172 q 111 1180 119 1172 q 103 1201 103 1188 l 103 1336 q 110 1358 103 1350 q 132 1367 118 1367 l 228 1367 q 248 1358 240 1367 q 256 1336 256 1349 l 256 1201 q 228 1172 256 1172 l 132 1172 z "},"c":{"ha":681,"x_min":57,"x_max":646,"o":"m 369 -8 q 139 76 221 -8 q 57 369 57 161 q 93 603 57 518 q 199 722 129 688 q 375 757 268 757 q 635 722 510 757 l 635 604 l 439 604 q 335 585 372 604 q 280 515 297 565 q 263 371 263 465 q 280 230 263 278 q 335 165 297 182 q 442 147 372 147 l 646 147 l 646 31 q 517 3 593 14 q 369 -8 440 -8 z "},"ć":{"ha":681,"x_min":57,"x_max":646,"o":"m 369 -8 q 139 76 221 -8 q 57 369 57 161 q 93 603 57 518 q 199 722 129 688 q 375 757 268 757 q 635 722 510 757 l 635 604 l 439 604 q 335 585 372 604 q 280 515 297 565 q 263 371 263 465 q 280 230 263 278 q 335 165 297 182 q 442 147 372 147 l 646 147 l 646 31 q 517 3 593 14 q 369 -8 440 -8 m 431 1071 l 596 1071 l 436 876 l 315 876 l 431 1071 z "},"č":{"ha":681,"x_min":57,"x_max":646,"o":"m 369 -8 q 139 76 221 -8 q 57 369 57 161 q 93 603 57 518 q 199 722 129 688 q 375 757 268 757 q 635 722 510 757 l 635 604 l 439 604 q 335 585 372 604 q 280 515 297 565 q 263 371 263 465 q 280 230 263 278 q 335 165 297 182 q 442 147 372 147 l 646 147 l 646 31 q 517 3 593 14 q 369 -8 440 -8 m 164 1074 l 283 1074 l 375 968 l 472 1074 l 592 1074 l 442 876 l 301 876 l 164 1074 z "},"ç":{"ha":681,"x_min":57,"x_max":646,"o":"m 646 31 q 435 -6 549 0 l 393 -71 q 461 -99 436 -75 q 486 -164 486 -122 q 449 -246 486 -217 q 338 -275 411 -275 l 271 -275 l 271 -190 l 296 -186 q 353 -139 353 -181 q 289 -89 353 -97 l 340 -7 q 131 86 206 0 q 57 369 57 172 q 93 603 57 518 q 199 722 129 688 q 375 757 268 757 q 635 722 510 757 l 635 604 l 439 604 q 335 585 372 604 q 280 515 297 565 q 263 371 263 465 q 280 230 263 278 q 335 165 297 182 q 442 147 372 147 l 646 147 l 646 31 z "},"ḉ":{"ha":681,"x_min":57,"x_max":646,"o":"m 436 876 l 315 876 l 431 1071 l 596 1071 l 436 876 m 646 31 q 435 -6 549 0 l 393 -71 q 461 -99 436 -75 q 486 -164 486 -122 q 449 -246 486 -217 q 338 -275 411 -275 l 271 -275 l 271 -190 l 296 -186 q 353 -139 353 -181 q 289 -89 353 -97 l 340 -7 q 131 86 206 0 q 57 369 57 172 q 93 603 57 518 q 199 722 129 688 q 375 757 268 757 q 635 722 510 757 l 635 604 l 439 604 q 335 585 372 604 q 280 515 297 565 q 263 371 263 465 q 280 230 263 278 q 335 165 297 182 q 442 147 372 147 l 646 147 l 646 31 z "},"ĉ":{"ha":681,"x_min":57,"x_max":646,"o":"m 369 -8 q 139 76 221 -8 q 57 369 57 161 q 93 603 57 518 q 199 722 129 688 q 375 757 268 757 q 635 722 510 757 l 635 604 l 439 604 q 335 585 372 604 q 280 515 297 565 q 263 371 263 465 q 280 230 263 278 q 335 165 297 182 q 442 147 372 147 l 646 147 l 646 31 q 517 3 593 14 q 369 -8 440 -8 m 308 1074 l 450 1074 l 586 876 l 467 876 l 375 982 l 278 876 l 158 876 l 308 1074 z "},"ċ":{"ha":681,"x_min":57,"x_max":646,"o":"m 369 -8 q 139 76 221 -8 q 57 369 57 161 q 93 603 57 518 q 199 722 129 688 q 375 757 268 757 q 635 722 510 757 l 635 604 l 439 604 q 335 585 372 604 q 280 515 297 565 q 263 371 263 465 q 280 230 263 278 q 335 165 297 182 q 442 147 372 147 l 646 147 l 646 31 q 517 3 593 14 q 369 -8 440 -8 m 325 894 q 304 902 313 894 q 296 924 296 910 l 296 1058 q 303 1081 296 1072 q 325 1089 311 1089 l 421 1089 q 441 1080 433 1089 q 449 1058 449 1071 l 449 924 q 421 894 449 894 l 325 894 z "},"d":{"ha":810,"x_min":57,"x_max":735,"o":"m 324 -8 q 123 79 189 -8 q 57 365 57 167 q 83 592 57 507 q 169 717 108 676 q 338 757 231 757 q 528 722 429 757 l 528 1060 l 735 1060 l 735 0 l 561 0 l 528 71 q 433 15 489 38 q 324 -8 378 -8 m 396 157 q 528 199 463 157 l 528 574 q 463 595 492 588 q 404 603 435 603 q 320 584 350 603 q 276 516 290 565 q 263 375 263 467 q 276 241 263 288 q 317 176 289 194 q 396 157 346 157 z "},"ð":{"ha":799,"x_min":57,"x_max":742,"o":"m 603 918 q 708 708 675 839 q 742 375 742 576 q 708 143 742 225 q 601 27 675 61 q 399 -7 528 -7 q 199 28 272 -7 q 91 142 125 63 q 57 364 57 222 q 93 589 57 508 q 197 701 129 669 q 371 733 265 733 q 531 700 468 733 q 440 857 503 801 l 217 771 l 192 836 l 365 903 q 176 939 292 935 l 176 1063 q 388 1038 297 1060 q 542 971 478 1015 l 706 1035 l 732 968 l 603 918 m 399 157 q 481 171 453 157 q 522 229 508 185 q 536 365 536 274 q 522 501 536 457 q 481 558 508 544 q 399 572 453 572 q 318 558 346 572 q 276 501 290 544 q 263 365 263 457 q 276 229 263 274 q 318 171 290 185 q 399 157 346 157 z "},"ď":{"ha":810,"x_min":57,"x_max":992,"o":"m 324 -8 q 123 79 189 -8 q 57 365 57 167 q 83 592 57 507 q 169 717 108 676 q 338 757 231 757 q 528 722 429 757 l 528 1060 l 735 1060 l 735 0 l 561 0 l 528 71 q 433 15 489 38 q 324 -8 378 -8 m 396 157 q 528 199 463 157 l 528 574 q 463 595 492 588 q 404 603 435 603 q 320 584 350 603 q 276 516 290 565 q 263 375 263 467 q 276 241 263 288 q 317 176 289 194 q 396 157 346 157 m 806 999 l 806 1088 l 992 1088 l 992 999 l 981 808 l 818 808 l 806 999 z "},"đ":{"ha":810,"x_min":57,"x_max":815,"o":"m 815 854 l 735 854 l 735 0 l 561 0 l 528 71 q 433 15 489 38 q 324 -8 378 -8 q 123 79 189 -8 q 57 365 57 167 q 83 592 57 507 q 169 717 108 676 q 338 757 231 757 q 528 722 429 757 l 528 854 l 365 854 l 365 936 l 528 936 l 528 1060 l 735 1060 l 735 936 l 815 936 l 815 854 m 528 574 q 463 595 492 588 q 404 603 435 603 q 320 584 350 603 q 276 516 290 565 q 263 375 263 467 q 276 241 263 288 q 317 176 289 194 q 396 157 346 157 q 528 199 463 157 l 528 574 z "},"ḋ":{"ha":810,"x_min":57,"x_max":735,"o":"m 324 -8 q 123 79 189 -8 q 57 365 57 167 q 83 592 57 507 q 169 717 108 676 q 338 757 231 757 q 528 722 429 757 l 528 1060 l 735 1060 l 735 0 l 561 0 l 528 71 q 433 15 489 38 q 324 -8 378 -8 m 396 157 q 528 199 463 157 l 528 574 q 463 595 492 588 q 404 603 435 603 q 320 584 350 603 q 276 516 290 565 q 263 375 263 467 q 276 241 263 288 q 317 176 289 194 q 396 157 346 157 m 581 1172 q 560 1180 568 1172 q 551 1201 551 1188 l 551 1336 q 559 1358 551 1350 q 581 1367 567 1367 l 676 1367 q 697 1358 689 1367 q 704 1336 704 1349 l 704 1201 q 676 1172 704 1172 l 581 1172 z "},"ḍ":{"ha":810,"x_min":57,"x_max":735,"o":"m 324 -8 q 123 79 189 -8 q 57 365 57 167 q 83 592 57 507 q 169 717 108 676 q 338 757 231 757 q 528 722 429 757 l 528 1060 l 735 1060 l 735 0 l 561 0 l 528 71 q 433 15 489 38 q 324 -8 378 -8 m 396 157 q 528 199 463 157 l 528 574 q 463 595 492 588 q 404 603 435 603 q 320 584 350 603 q 276 516 290 565 q 263 375 263 467 q 276 241 263 288 q 317 176 289 194 q 396 157 346 157 m 339 -314 q 319 -306 326 -314 q 311 -285 311 -299 l 311 -150 q 339 -119 311 -119 l 435 -119 q 455 -128 447 -119 q 463 -150 463 -137 l 463 -285 q 435 -314 463 -314 l 339 -314 z "},"ḏ":{"ha":810,"x_min":57,"x_max":735,"o":"m 324 -8 q 123 79 189 -8 q 57 365 57 167 q 83 592 57 507 q 169 717 108 676 q 338 757 231 757 q 528 722 429 757 l 528 1060 l 735 1060 l 735 0 l 561 0 l 528 71 q 433 15 489 38 q 324 -8 378 -8 m 396 157 q 528 199 463 157 l 528 574 q 463 595 492 588 q 404 603 435 603 q 320 584 350 603 q 276 516 290 565 q 263 375 263 467 q 276 241 263 288 q 317 176 289 194 q 396 157 346 157 m 200 -174 l 590 -174 l 590 -296 l 200 -296 l 200 -174 z "},"e":{"ha":746,"x_min":57,"x_max":690,"o":"m 393 -7 q 194 26 267 -7 q 90 142 122 60 q 57 372 57 224 q 88 608 57 525 q 188 724 118 690 q 386 757 258 757 q 565 735 500 757 q 660 657 631 713 q 690 500 690 601 q 628 346 690 392 q 449 300 567 300 l 261 300 q 279 208 264 240 q 333 160 294 175 q 447 146 372 146 l 665 146 l 665 25 q 532 1 592 10 q 393 -7 472 -7 m 428 422 q 490 440 471 422 q 508 499 508 457 q 481 584 508 560 q 386 608 453 608 q 310 592 338 608 q 271 536 283 576 q 258 422 258 496 l 428 422 z "},"é":{"ha":746,"x_min":57,"x_max":690,"o":"m 393 -7 q 194 26 267 -7 q 90 142 122 60 q 57 372 57 224 q 88 608 57 525 q 188 724 118 690 q 386 757 258 757 q 565 735 500 757 q 660 657 631 713 q 690 500 690 601 q 628 346 690 392 q 449 300 567 300 l 261 300 q 279 208 264 240 q 333 160 294 175 q 447 146 372 146 l 665 146 l 665 25 q 532 1 592 10 q 393 -7 472 -7 m 428 422 q 490 440 471 422 q 508 499 508 457 q 481 584 508 560 q 386 608 453 608 q 310 592 338 608 q 271 536 283 576 q 258 422 258 496 l 428 422 m 431 1071 l 596 1071 l 436 876 l 315 876 l 431 1071 z "},"ĕ":{"ha":746,"x_min":57,"x_max":690,"o":"m 393 -7 q 194 26 267 -7 q 90 142 122 60 q 57 372 57 224 q 88 608 57 525 q 188 724 118 690 q 386 757 258 757 q 565 735 500 757 q 660 657 631 713 q 690 500 690 601 q 628 346 690 392 q 449 300 567 300 l 261 300 q 279 208 264 240 q 333 160 294 175 q 447 146 372 146 l 665 146 l 665 25 q 532 1 592 10 q 393 -7 472 -7 m 428 422 q 490 440 471 422 q 508 499 508 457 q 481 584 508 560 q 386 608 453 608 q 310 592 338 608 q 271 536 283 576 q 258 422 258 496 l 428 422 m 365 865 q 223 917 274 865 q 172 1075 172 969 l 268 1075 q 296 987 268 1014 q 365 960 324 960 q 463 1075 463 960 l 560 1075 q 509 917 560 968 q 365 865 458 865 z "},"ě":{"ha":746,"x_min":57,"x_max":690,"o":"m 393 -7 q 194 26 267 -7 q 90 142 122 60 q 57 372 57 224 q 88 608 57 525 q 188 724 118 690 q 386 757 258 757 q 565 735 500 757 q 660 657 631 713 q 690 500 690 601 q 628 346 690 392 q 449 300 567 300 l 261 300 q 279 208 264 240 q 333 160 294 175 q 447 146 372 146 l 665 146 l 665 25 q 532 1 592 10 q 393 -7 472 -7 m 428 422 q 490 440 471 422 q 508 499 508 457 q 481 584 508 560 q 386 608 453 608 q 310 592 338 608 q 271 536 283 576 q 258 422 258 496 l 428 422 m 164 1074 l 283 1074 l 375 968 l 472 1074 l 592 1074 l 442 876 l 301 876 l 164 1074 z "},"ḝ":{"ha":746,"x_min":57,"x_max":690,"o":"m 365 865 q 223 917 274 865 q 172 1075 172 969 l 268 1075 q 296 987 268 1014 q 365 960 324 960 q 463 1075 463 960 l 560 1075 q 509 917 560 968 q 365 865 458 865 m 261 300 q 279 208 264 240 q 333 160 294 175 q 447 146 372 146 l 665 146 l 665 25 q 552 4 604 13 q 433 -7 500 -4 l 393 -71 q 461 -99 436 -75 q 486 -164 486 -122 q 449 -246 486 -217 q 338 -275 411 -275 l 271 -275 l 271 -190 l 296 -186 q 353 -139 353 -181 q 289 -89 353 -97 l 342 -6 q 174 38 236 1 q 85 154 113 75 q 57 372 57 233 q 88 608 57 525 q 188 724 118 690 q 386 757 258 757 q 565 735 500 757 q 660 657 631 713 q 690 500 690 601 q 628 346 690 392 q 449 300 567 300 l 261 300 m 386 608 q 310 592 338 608 q 271 536 283 576 q 258 422 258 496 l 428 422 q 490 440 471 422 q 508 499 508 457 q 481 584 508 560 q 386 608 453 608 z "},"ê":{"ha":746,"x_min":57,"x_max":690,"o":"m 393 -7 q 194 26 267 -7 q 90 142 122 60 q 57 372 57 224 q 88 608 57 525 q 188 724 118 690 q 386 757 258 757 q 565 735 500 757 q 660 657 631 713 q 690 500 690 601 q 628 346 690 392 q 449 300 567 300 l 261 300 q 279 208 264 240 q 333 160 294 175 q 447 146 372 146 l 665 146 l 665 25 q 532 1 592 10 q 393 -7 472 -7 m 428 422 q 490 440 471 422 q 508 499 508 457 q 481 584 508 560 q 386 608 453 608 q 310 592 338 608 q 271 536 283 576 q 258 422 258 496 l 428 422 m 308 1074 l 450 1074 l 586 876 l 467 876 l 375 982 l 278 876 l 158 876 l 308 1074 z "},"ế":{"ha":746,"x_min":57,"x_max":735,"o":"m 393 -7 q 194 26 267 -7 q 90 142 122 60 q 57 372 57 224 q 88 608 57 525 q 188 724 118 690 q 386 757 258 757 q 565 735 500 757 q 660 657 631 713 q 690 500 690 601 q 628 346 690 392 q 449 300 567 300 l 261 300 q 279 208 264 240 q 333 160 294 175 q 447 146 372 146 l 665 146 l 665 25 q 532 1 592 10 q 393 -7 472 -7 m 428 422 q 490 440 471 422 q 508 499 508 457 q 481 584 508 560 q 386 608 453 608 q 310 592 338 608 q 271 536 283 576 q 258 422 258 496 l 428 422 m 735 1168 l 626 994 l 506 994 l 568 1168 l 735 1168 m 450 1028 l 586 876 l 467 876 l 376 936 l 279 876 l 158 876 l 310 1028 l 450 1028 z "},"ệ":{"ha":746,"x_min":57,"x_max":690,"o":"m 393 -7 q 194 26 267 -7 q 90 142 122 60 q 57 372 57 224 q 88 608 57 525 q 188 724 118 690 q 386 757 258 757 q 565 735 500 757 q 660 657 631 713 q 690 500 690 601 q 628 346 690 392 q 449 300 567 300 l 261 300 q 279 208 264 240 q 333 160 294 175 q 447 146 372 146 l 665 146 l 665 25 q 532 1 592 10 q 393 -7 472 -7 m 428 422 q 490 440 471 422 q 508 499 508 457 q 481 584 508 560 q 386 608 453 608 q 310 592 338 608 q 271 536 283 576 q 258 422 258 496 l 428 422 m 308 1074 l 450 1074 l 586 876 l 467 876 l 375 982 l 278 876 l 158 876 l 308 1074 m 321 -314 q 301 -306 308 -314 q 293 -285 293 -299 l 293 -150 q 321 -119 293 -119 l 417 -119 q 437 -128 429 -119 q 444 -150 444 -137 l 444 -285 q 417 -314 444 -314 l 321 -314 z "},"ề":{"ha":746,"x_min":17,"x_max":690,"o":"m 393 -7 q 194 26 267 -7 q 90 142 122 60 q 57 372 57 224 q 88 608 57 525 q 188 724 118 690 q 386 757 258 757 q 565 735 500 757 q 660 657 631 713 q 690 500 690 601 q 628 346 690 392 q 449 300 567 300 l 261 300 q 279 208 264 240 q 333 160 294 175 q 447 146 372 146 l 665 146 l 665 25 q 532 1 592 10 q 393 -7 472 -7 m 428 422 q 490 440 471 422 q 508 499 508 457 q 481 584 508 560 q 386 608 453 608 q 310 592 338 608 q 271 536 283 576 q 258 422 258 496 l 428 422 m 183 1168 l 247 994 l 126 994 l 17 1168 l 183 1168 m 450 1028 l 586 876 l 467 876 l 376 936 l 279 876 l 158 876 l 310 1028 l 450 1028 z "},"ể":{"ha":746,"x_min":57,"x_max":690,"o":"m 393 -7 q 194 26 267 -7 q 90 142 122 60 q 57 372 57 224 q 88 608 57 525 q 188 724 118 690 q 386 757 258 757 q 565 735 500 757 q 660 657 631 713 q 690 500 690 601 q 628 346 690 392 q 449 300 567 300 l 261 300 q 279 208 264 240 q 333 160 294 175 q 447 146 372 146 l 665 146 l 665 25 q 532 1 592 10 q 393 -7 472 -7 m 428 422 q 490 440 471 422 q 508 499 508 457 q 481 584 508 560 q 386 608 453 608 q 310 592 338 608 q 271 536 283 576 q 258 422 258 496 l 428 422 m 539 1043 q 582 1089 582 1056 q 574 1113 582 1106 q 547 1121 567 1121 q 503 1113 524 1121 l 503 1183 q 575 1194 536 1194 q 653 1170 626 1194 q 679 1103 679 1146 q 646 1010 679 1047 q 539 953 613 974 l 539 1043 m 310 1028 l 450 1028 l 586 876 l 467 876 l 376 936 l 279 876 l 158 876 l 310 1028 z "},"ễ":{"ha":746,"x_min":57,"x_max":690,"o":"m 393 -7 q 194 26 267 -7 q 90 142 122 60 q 57 372 57 224 q 88 608 57 525 q 188 724 118 690 q 386 757 258 757 q 565 735 500 757 q 660 657 631 713 q 690 500 690 601 q 628 346 690 392 q 449 300 567 300 l 261 300 q 279 208 264 240 q 333 160 294 175 q 447 146 372 146 l 665 146 l 665 25 q 532 1 592 10 q 393 -7 472 -7 m 428 422 q 490 440 471 422 q 508 499 508 457 q 481 584 508 560 q 386 608 453 608 q 310 592 338 608 q 271 536 283 576 q 258 422 258 496 l 428 422 m 267 1225 q 363 1203 307 1225 q 390 1194 368 1201 q 431 1186 411 1186 q 471 1198 457 1186 q 485 1232 485 1210 l 588 1232 q 553 1119 581 1150 q 468 1088 525 1088 q 402 1098 436 1088 q 361 1110 368 1108 q 333 1119 357 1111 q 292 1126 308 1126 q 261 1115 272 1126 q 247 1085 250 1103 l 144 1085 q 183 1195 151 1165 q 267 1225 214 1225 m 586 876 l 467 876 l 376 936 l 279 876 l 158 876 l 310 1028 l 450 1028 l 586 876 z "},"ȅ":{"ha":746,"x_min":56,"x_max":690,"o":"m 393 -7 q 194 26 267 -7 q 90 142 122 60 q 57 372 57 224 q 88 608 57 525 q 188 724 118 690 q 386 757 258 757 q 565 735 500 757 q 660 657 631 713 q 690 500 690 601 q 628 346 690 392 q 449 300 567 300 l 261 300 q 279 208 264 240 q 333 160 294 175 q 447 146 372 146 l 665 146 l 665 25 q 532 1 592 10 q 393 -7 472 -7 m 428 422 q 490 440 471 422 q 508 499 508 457 q 481 584 508 560 q 386 608 453 608 q 310 592 338 608 q 271 536 283 576 q 258 422 258 496 l 428 422 m 56 1071 l 221 1071 l 336 876 l 215 876 l 56 1071 m 303 1071 l 469 1071 l 583 876 l 463 876 l 303 1071 z "},"ë":{"ha":746,"x_min":57,"x_max":690,"o":"m 393 -7 q 194 26 267 -7 q 90 142 122 60 q 57 372 57 224 q 88 608 57 525 q 188 724 118 690 q 386 757 258 757 q 565 735 500 757 q 660 657 631 713 q 690 500 690 601 q 628 346 690 392 q 449 300 567 300 l 261 300 q 279 208 264 240 q 333 160 294 175 q 447 146 372 146 l 665 146 l 665 25 q 532 1 592 10 q 393 -7 472 -7 m 428 422 q 490 440 471 422 q 508 499 508 457 q 481 584 508 560 q 386 608 453 608 q 310 592 338 608 q 271 536 283 576 q 258 422 258 496 l 428 422 m 186 885 q 165 892 174 885 q 157 914 157 900 l 157 1049 q 165 1071 157 1063 q 186 1079 172 1079 l 281 1079 q 301 1071 294 1079 q 308 1049 308 1063 l 308 914 q 281 885 308 885 l 186 885 m 458 885 q 438 892 446 885 q 429 914 429 900 l 429 1049 q 437 1071 429 1063 q 458 1079 444 1079 l 554 1079 q 574 1070 567 1079 q 582 1049 582 1061 l 582 914 q 554 885 582 885 l 458 885 z "},"ė":{"ha":746,"x_min":57,"x_max":690,"o":"m 393 -7 q 194 26 267 -7 q 90 142 122 60 q 57 372 57 224 q 88 608 57 525 q 188 724 118 690 q 386 757 258 757 q 565 735 500 757 q 660 657 631 713 q 690 500 690 601 q 628 346 690 392 q 449 300 567 300 l 261 300 q 279 208 264 240 q 333 160 294 175 q 447 146 372 146 l 665 146 l 665 25 q 532 1 592 10 q 393 -7 472 -7 m 428 422 q 490 440 471 422 q 508 499 508 457 q 481 584 508 560 q 386 608 453 608 q 310 592 338 608 q 271 536 283 576 q 258 422 258 496 l 428 422 m 325 894 q 304 902 313 894 q 296 924 296 910 l 296 1058 q 303 1081 296 1072 q 325 1089 311 1089 l 421 1089 q 441 1080 433 1089 q 449 1058 449 1071 l 449 924 q 421 894 449 894 l 325 894 z "},"ẹ":{"ha":746,"x_min":57,"x_max":690,"o":"m 393 -7 q 194 26 267 -7 q 90 142 122 60 q 57 372 57 224 q 88 608 57 525 q 188 724 118 690 q 386 757 258 757 q 565 735 500 757 q 660 657 631 713 q 690 500 690 601 q 628 346 690 392 q 449 300 567 300 l 261 300 q 279 208 264 240 q 333 160 294 175 q 447 146 372 146 l 665 146 l 665 25 q 532 1 592 10 q 393 -7 472 -7 m 428 422 q 490 440 471 422 q 508 499 508 457 q 481 584 508 560 q 386 608 453 608 q 310 592 338 608 q 271 536 283 576 q 258 422 258 496 l 428 422 m 321 -314 q 301 -306 308 -314 q 293 -285 293 -299 l 293 -150 q 321 -119 293 -119 l 417 -119 q 437 -128 429 -119 q 444 -150 444 -137 l 444 -285 q 417 -314 444 -314 l 321 -314 z "},"è":{"ha":746,"x_min":57,"x_max":690,"o":"m 393 -7 q 194 26 267 -7 q 90 142 122 60 q 57 372 57 224 q 88 608 57 525 q 188 724 118 690 q 386 757 258 757 q 565 735 500 757 q 660 657 631 713 q 690 500 690 601 q 628 346 690 392 q 449 300 567 300 l 261 300 q 279 208 264 240 q 333 160 294 175 q 447 146 372 146 l 665 146 l 665 25 q 532 1 592 10 q 393 -7 472 -7 m 428 422 q 490 440 471 422 q 508 499 508 457 q 481 584 508 560 q 386 608 453 608 q 310 592 338 608 q 271 536 283 576 q 258 422 258 496 l 428 422 m 186 1071 l 353 1071 l 467 876 l 346 876 l 186 1071 z "},"ẻ":{"ha":746,"x_min":57,"x_max":690,"o":"m 393 -7 q 194 26 267 -7 q 90 142 122 60 q 57 372 57 224 q 88 608 57 525 q 188 724 118 690 q 386 757 258 757 q 565 735 500 757 q 660 657 631 713 q 690 500 690 601 q 628 346 690 392 q 449 300 567 300 l 261 300 q 279 208 264 240 q 333 160 294 175 q 447 146 372 146 l 665 146 l 665 25 q 532 1 592 10 q 393 -7 472 -7 m 428 422 q 490 440 471 422 q 508 499 508 457 q 481 584 508 560 q 386 608 453 608 q 310 592 338 608 q 271 536 283 576 q 258 422 258 496 l 428 422 m 336 915 q 392 971 392 931 q 346 1010 392 1010 q 300 1001 331 1010 l 300 1082 q 372 1093 333 1093 q 468 1063 436 1093 q 500 978 500 1033 q 460 885 500 922 q 336 825 421 849 l 336 915 z "},"ȇ":{"ha":746,"x_min":57,"x_max":690,"o":"m 393 -7 q 194 26 267 -7 q 90 142 122 60 q 57 372 57 224 q 88 608 57 525 q 188 724 118 690 q 386 757 258 757 q 565 735 500 757 q 660 657 631 713 q 690 500 690 601 q 628 346 690 392 q 449 300 567 300 l 261 300 q 279 208 264 240 q 333 160 294 175 q 447 146 372 146 l 665 146 l 665 25 q 532 1 592 10 q 393 -7 472 -7 m 428 422 q 490 440 471 422 q 508 499 508 457 q 481 584 508 560 q 386 608 453 608 q 310 592 338 608 q 271 536 283 576 q 258 422 258 496 l 428 422 m 378 1079 q 520 1027 469 1079 q 571 869 571 975 l 475 869 q 447 958 475 931 q 378 985 419 985 q 281 869 281 985 l 183 869 q 234 1028 183 976 q 378 1079 285 1079 z "},"ē":{"ha":746,"x_min":57,"x_max":690,"o":"m 393 -7 q 194 26 267 -7 q 90 142 122 60 q 57 372 57 224 q 88 608 57 525 q 188 724 118 690 q 386 757 258 757 q 565 735 500 757 q 660 657 631 713 q 690 500 690 601 q 628 346 690 392 q 449 300 567 300 l 261 300 q 279 208 264 240 q 333 160 294 175 q 447 146 372 146 l 665 146 l 665 25 q 532 1 592 10 q 393 -7 472 -7 m 428 422 q 490 440 471 422 q 508 499 508 457 q 481 584 508 560 q 386 608 453 608 q 310 592 338 608 q 271 536 283 576 q 258 422 258 496 l 428 422 m 175 1021 l 565 1021 l 565 899 l 175 899 l 175 1021 z "},"ḗ":{"ha":746,"x_min":57,"x_max":690,"o":"m 393 -7 q 194 26 267 -7 q 90 142 122 60 q 57 372 57 224 q 88 608 57 525 q 188 724 118 690 q 386 757 258 757 q 565 735 500 757 q 660 657 631 713 q 690 500 690 601 q 628 346 690 392 q 449 300 567 300 l 261 300 q 279 208 264 240 q 333 160 294 175 q 447 146 372 146 l 665 146 l 665 25 q 532 1 592 10 q 393 -7 472 -7 m 428 422 q 490 440 471 422 q 508 499 508 457 q 481 584 508 560 q 386 608 453 608 q 310 592 338 608 q 271 536 283 576 q 258 422 258 496 l 428 422 m 175 1021 l 565 1021 l 565 899 l 175 899 l 175 1021 m 421 1258 l 586 1258 l 426 1064 l 306 1064 l 421 1258 z "},"ḕ":{"ha":746,"x_min":57,"x_max":690,"o":"m 393 -7 q 194 26 267 -7 q 90 142 122 60 q 57 372 57 224 q 88 608 57 525 q 188 724 118 690 q 386 757 258 757 q 565 735 500 757 q 660 657 631 713 q 690 500 690 601 q 628 346 690 392 q 449 300 567 300 l 261 300 q 279 208 264 240 q 333 160 294 175 q 447 146 372 146 l 665 146 l 665 25 q 532 1 592 10 q 393 -7 472 -7 m 428 422 q 490 440 471 422 q 508 499 508 457 q 481 584 508 560 q 386 608 453 608 q 310 592 338 608 q 271 536 283 576 q 258 422 258 496 l 428 422 m 175 1021 l 565 1021 l 565 899 l 175 899 l 175 1021 m 156 1258 l 322 1258 l 436 1064 l 315 1064 l 156 1258 z "},"ę":{"ha":746,"x_min":57,"x_max":692,"o":"m 692 -132 l 692 -228 q 647 -233 679 -233 q 535 -197 572 -233 q 499 -108 499 -160 q 549 4 499 -42 q 393 -7 478 -7 q 194 26 267 -7 q 90 142 122 60 q 57 372 57 224 q 88 608 57 525 q 188 724 118 690 q 386 757 258 757 q 565 735 500 757 q 660 657 631 713 q 690 500 690 601 q 628 346 690 392 q 449 300 567 300 l 261 300 q 279 208 264 240 q 333 160 294 175 q 447 146 372 146 l 665 146 l 665 33 l 667 33 q 666 33 667 33 q 665 32 665 33 l 665 25 l 649 21 q 599 -61 599 -14 q 621 -113 599 -94 q 679 -132 643 -132 l 692 -132 m 386 608 q 310 592 338 608 q 271 536 283 576 q 258 422 258 496 l 428 422 q 490 440 471 422 q 508 499 508 457 q 481 584 508 560 q 386 608 453 608 z "},"ẽ":{"ha":746,"x_min":57,"x_max":690,"o":"m 393 -7 q 194 26 267 -7 q 90 142 122 60 q 57 372 57 224 q 88 608 57 525 q 188 724 118 690 q 386 757 258 757 q 565 735 500 757 q 660 657 631 713 q 690 500 690 601 q 628 346 690 392 q 449 300 567 300 l 261 300 q 279 208 264 240 q 333 160 294 175 q 447 146 372 146 l 665 146 l 665 25 q 532 1 592 10 q 393 -7 472 -7 m 428 422 q 490 440 471 422 q 508 499 508 457 q 481 584 508 560 q 386 608 453 608 q 310 592 338 608 q 271 536 283 576 q 258 422 258 496 l 428 422 m 126 874 q 172 1011 132 968 q 272 1054 211 1054 q 333 1044 307 1054 q 393 1017 360 1035 q 440 995 424 1001 q 475 989 456 989 q 518 1008 503 989 q 535 1061 533 1026 l 638 1061 q 597 922 633 969 q 494 875 560 875 q 433 885 461 875 q 369 913 406 894 q 326 933 344 926 q 290 940 308 940 q 248 922 264 940 q 229 874 232 904 l 126 874 z "},"ə":{"ha":746,"x_min":56,"x_max":689,"o":"m 353 756 q 551 722 479 756 q 656 607 624 689 q 689 376 689 525 q 658 141 689 224 q 558 25 628 58 q 360 -8 488 -8 q 181 14 246 -8 q 85 92 115 36 q 56 249 56 147 q 117 403 56 357 q 297 449 179 449 l 485 449 q 467 541 482 508 q 413 588 451 574 q 299 603 374 603 l 81 603 l 81 724 q 214 747 154 739 q 353 756 274 756 m 318 326 q 256 309 275 326 q 238 250 238 292 q 265 165 238 189 q 360 140 293 140 q 435 156 408 140 q 475 213 463 172 q 488 326 488 253 l 318 326 z "},"f":{"ha":546,"x_min":25,"x_max":533,"o":"m 131 581 l 25 581 l 25 713 l 131 746 l 131 796 q 189 1003 131 939 q 379 1068 247 1068 q 533 1047 458 1068 l 533 900 l 419 900 q 355 878 372 900 q 338 807 338 857 l 338 746 l 526 746 l 526 581 l 338 581 l 338 0 l 131 0 l 131 581 z "},"ḟ":{"ha":546,"x_min":25,"x_max":533,"o":"m 131 581 l 25 581 l 25 713 l 131 746 l 131 796 q 189 1003 131 939 q 379 1068 247 1068 q 533 1047 458 1068 l 533 900 l 419 900 q 355 878 372 900 q 338 807 338 857 l 338 746 l 526 746 l 526 581 l 338 581 l 338 0 l 131 0 l 131 581 m 328 1203 q 307 1210 315 1203 q 299 1232 299 1218 l 299 1367 q 306 1389 299 1381 q 328 1397 314 1397 l 424 1397 q 444 1388 436 1397 q 451 1367 451 1379 l 451 1232 q 424 1203 451 1203 l 328 1203 z "},"g":{"ha":808,"x_min":28,"x_max":783,"o":"m 783 633 l 669 613 q 710 551 694 586 q 725 457 725 517 q 660 291 725 353 q 456 229 594 229 l 324 229 q 239 178 239 229 q 258 146 239 156 q 304 136 276 136 l 510 136 q 711 83 643 136 q 779 -87 779 29 l 779 -108 q 708 -283 779 -221 q 496 -344 638 -344 l 272 -344 q 96 -297 164 -344 q 28 -165 28 -250 l 28 -143 q 58 -46 28 -87 q 140 19 89 -4 q 65 143 65 64 q 98 237 65 199 q 189 289 131 275 q 98 378 126 322 q 69 503 69 433 q 146 686 69 626 q 379 746 222 746 l 783 746 l 783 633 m 432 383 q 515 410 492 383 q 539 486 539 436 q 514 567 539 543 q 438 592 489 592 l 360 592 q 280 568 306 592 q 254 489 254 544 q 278 409 254 435 q 353 383 303 383 l 432 383 m 326 -18 q 251 -40 279 -18 q 222 -103 222 -62 l 222 -118 q 249 -179 222 -158 q 329 -200 276 -200 l 471 -200 q 554 -180 524 -200 q 585 -119 585 -160 l 585 -97 q 558 -39 585 -60 q 476 -18 531 -18 l 326 -18 z "},"ğ":{"ha":808,"x_min":28,"x_max":783,"o":"m 783 633 l 669 613 q 710 551 694 586 q 725 457 725 517 q 660 291 725 353 q 456 229 594 229 l 324 229 q 239 178 239 229 q 258 146 239 156 q 304 136 276 136 l 510 136 q 711 83 643 136 q 779 -87 779 29 l 779 -108 q 708 -283 779 -221 q 496 -344 638 -344 l 272 -344 q 96 -297 164 -344 q 28 -165 28 -250 l 28 -143 q 58 -46 28 -87 q 140 19 89 -4 q 65 143 65 64 q 98 237 65 199 q 189 289 131 275 q 98 378 126 322 q 69 503 69 433 q 146 686 69 626 q 379 746 222 746 l 783 746 l 783 633 m 432 383 q 515 410 492 383 q 539 486 539 436 q 514 567 539 543 q 438 592 489 592 l 360 592 q 280 568 306 592 q 254 489 254 544 q 278 409 254 435 q 353 383 303 383 l 432 383 m 326 -18 q 251 -40 279 -18 q 222 -103 222 -62 l 222 -118 q 249 -179 222 -158 q 329 -200 276 -200 l 471 -200 q 554 -180 524 -200 q 585 -119 585 -160 l 585 -97 q 558 -39 585 -60 q 476 -18 531 -18 l 326 -18 m 393 865 q 251 917 301 865 q 200 1075 200 969 l 296 1075 q 324 987 296 1014 q 393 960 351 960 q 490 1075 490 960 l 588 1075 q 537 917 588 968 q 393 865 486 865 z "},"ǧ":{"ha":808,"x_min":28,"x_max":783,"o":"m 783 633 l 669 613 q 710 551 694 586 q 725 457 725 517 q 660 291 725 353 q 456 229 594 229 l 324 229 q 239 178 239 229 q 258 146 239 156 q 304 136 276 136 l 510 136 q 711 83 643 136 q 779 -87 779 29 l 779 -108 q 708 -283 779 -221 q 496 -344 638 -344 l 272 -344 q 96 -297 164 -344 q 28 -165 28 -250 l 28 -143 q 58 -46 28 -87 q 140 19 89 -4 q 65 143 65 64 q 98 237 65 199 q 189 289 131 275 q 98 378 126 322 q 69 503 69 433 q 146 686 69 626 q 379 746 222 746 l 783 746 l 783 633 m 432 383 q 515 410 492 383 q 539 486 539 436 q 514 567 539 543 q 438 592 489 592 l 360 592 q 280 568 306 592 q 254 489 254 544 q 278 409 254 435 q 353 383 303 383 l 432 383 m 326 -18 q 251 -40 279 -18 q 222 -103 222 -62 l 222 -118 q 249 -179 222 -158 q 329 -200 276 -200 l 471 -200 q 554 -180 524 -200 q 585 -119 585 -160 l 585 -97 q 558 -39 585 -60 q 476 -18 531 -18 l 326 -18 m 192 1074 l 311 1074 l 403 968 l 500 1074 l 619 1074 l 469 876 l 329 876 l 192 1074 z "},"ĝ":{"ha":808,"x_min":28,"x_max":783,"o":"m 783 633 l 669 613 q 710 551 694 586 q 725 457 725 517 q 660 291 725 353 q 456 229 594 229 l 324 229 q 239 178 239 229 q 258 146 239 156 q 304 136 276 136 l 510 136 q 711 83 643 136 q 779 -87 779 29 l 779 -108 q 708 -283 779 -221 q 496 -344 638 -344 l 272 -344 q 96 -297 164 -344 q 28 -165 28 -250 l 28 -143 q 58 -46 28 -87 q 140 19 89 -4 q 65 143 65 64 q 98 237 65 199 q 189 289 131 275 q 98 378 126 322 q 69 503 69 433 q 146 686 69 626 q 379 746 222 746 l 783 746 l 783 633 m 432 383 q 515 410 492 383 q 539 486 539 436 q 514 567 539 543 q 438 592 489 592 l 360 592 q 280 568 306 592 q 254 489 254 544 q 278 409 254 435 q 353 383 303 383 l 432 383 m 326 -18 q 251 -40 279 -18 q 222 -103 222 -62 l 222 -118 q 249 -179 222 -158 q 329 -200 276 -200 l 471 -200 q 554 -180 524 -200 q 585 -119 585 -160 l 585 -97 q 558 -39 585 -60 q 476 -18 531 -18 l 326 -18 m 336 1074 l 478 1074 l 614 876 l 494 876 l 403 982 l 306 876 l 186 876 l 336 1074 z "},"ģ":{"ha":808,"x_min":28,"x_max":783,"o":"m 783 633 l 669 613 q 710 551 694 586 q 725 457 725 517 q 660 291 725 353 q 456 229 594 229 l 324 229 q 239 178 239 229 q 258 146 239 156 q 304 136 276 136 l 510 136 q 711 83 643 136 q 779 -87 779 29 l 779 -108 q 708 -283 779 -221 q 496 -344 638 -344 l 272 -344 q 96 -297 164 -344 q 28 -165 28 -250 l 28 -143 q 58 -46 28 -87 q 140 19 89 -4 q 65 143 65 64 q 98 237 65 199 q 189 289 131 275 q 98 378 126 322 q 69 503 69 433 q 146 686 69 626 q 379 746 222 746 l 783 746 l 783 633 m 432 383 q 515 410 492 383 q 539 486 539 436 q 514 567 539 543 q 438 592 489 592 l 360 592 q 280 568 306 592 q 254 489 254 544 q 278 409 254 435 q 353 383 303 383 l 432 383 m 326 -18 q 251 -40 279 -18 q 222 -103 222 -62 l 222 -118 q 249 -179 222 -158 q 329 -200 276 -200 l 471 -200 q 554 -180 524 -200 q 585 -119 585 -160 l 585 -97 q 558 -39 585 -60 q 476 -18 531 -18 l 326 -18 m 308 863 q 343 1016 308 971 q 469 1061 378 1061 l 542 1061 l 542 978 l 503 967 q 460 951 474 960 q 440 922 446 942 q 433 863 433 901 l 308 863 z "},"ġ":{"ha":808,"x_min":28,"x_max":783,"o":"m 783 633 l 669 613 q 710 551 694 586 q 725 457 725 517 q 660 291 725 353 q 456 229 594 229 l 324 229 q 239 178 239 229 q 258 146 239 156 q 304 136 276 136 l 510 136 q 711 83 643 136 q 779 -87 779 29 l 779 -108 q 708 -283 779 -221 q 496 -344 638 -344 l 272 -344 q 96 -297 164 -344 q 28 -165 28 -250 l 28 -143 q 58 -46 28 -87 q 140 19 89 -4 q 65 143 65 64 q 98 237 65 199 q 189 289 131 275 q 98 378 126 322 q 69 503 69 433 q 146 686 69 626 q 379 746 222 746 l 783 746 l 783 633 m 432 383 q 515 410 492 383 q 539 486 539 436 q 514 567 539 543 q 438 592 489 592 l 360 592 q 280 568 306 592 q 254 489 254 544 q 278 409 254 435 q 353 383 303 383 l 432 383 m 326 -18 q 251 -40 279 -18 q 222 -103 222 -62 l 222 -118 q 249 -179 222 -158 q 329 -200 276 -200 l 471 -200 q 554 -180 524 -200 q 585 -119 585 -160 l 585 -97 q 558 -39 585 -60 q 476 -18 531 -18 l 326 -18 m 353 894 q 332 902 340 894 q 324 924 324 910 l 324 1058 q 331 1081 324 1072 q 353 1089 339 1089 l 449 1089 q 469 1080 461 1089 q 476 1058 476 1071 l 476 924 q 449 894 476 894 l 353 894 z "},"ḡ":{"ha":808,"x_min":28,"x_max":783,"o":"m 783 633 l 669 613 q 710 551 694 586 q 725 457 725 517 q 660 291 725 353 q 456 229 594 229 l 324 229 q 239 178 239 229 q 258 146 239 156 q 304 136 276 136 l 510 136 q 711 83 643 136 q 779 -87 779 29 l 779 -108 q 708 -283 779 -221 q 496 -344 638 -344 l 272 -344 q 96 -297 164 -344 q 28 -165 28 -250 l 28 -143 q 58 -46 28 -87 q 140 19 89 -4 q 65 143 65 64 q 98 237 65 199 q 189 289 131 275 q 98 378 126 322 q 69 503 69 433 q 146 686 69 626 q 379 746 222 746 l 783 746 l 783 633 m 432 383 q 515 410 492 383 q 539 486 539 436 q 514 567 539 543 q 438 592 489 592 l 360 592 q 280 568 306 592 q 254 489 254 544 q 278 409 254 435 q 353 383 303 383 l 432 383 m 326 -18 q 251 -40 279 -18 q 222 -103 222 -62 l 222 -118 q 249 -179 222 -158 q 329 -200 276 -200 l 471 -200 q 554 -180 524 -200 q 585 -119 585 -160 l 585 -97 q 558 -39 585 -60 q 476 -18 531 -18 l 326 -18 m 203 1021 l 593 1021 l 593 899 l 203 899 l 203 1021 z "},"h":{"ha":826,"x_min":79,"x_max":751,"o":"m 79 1058 l 285 1058 l 285 669 q 392 732 326 706 q 522 758 458 758 q 751 493 751 758 l 751 0 l 546 0 l 546 467 q 517 546 546 518 q 439 574 488 574 q 285 518 363 574 l 285 0 l 79 0 l 79 1058 z "},"ħ":{"ha":826,"x_min":-7,"x_max":751,"o":"m 522 758 q 751 493 751 758 l 751 0 l 546 0 l 546 467 q 517 546 546 518 q 439 574 488 574 q 285 518 363 574 l 285 0 l 79 0 l 79 854 l -7 854 l -7 936 l 79 936 l 79 1058 l 285 1058 l 285 936 l 443 936 l 443 854 l 285 854 l 285 669 q 392 732 326 706 q 522 758 458 758 z "},"ḫ":{"ha":826,"x_min":79,"x_max":751,"o":"m 79 1058 l 285 1058 l 285 669 q 392 732 326 706 q 522 758 458 758 q 751 493 751 758 l 751 0 l 546 0 l 546 467 q 517 546 546 518 q 439 574 488 574 q 285 518 363 574 l 285 0 l 79 0 l 79 1058 m 414 -315 q 272 -263 322 -315 q 221 -106 221 -211 l 317 -106 q 344 -194 317 -167 q 414 -221 372 -221 q 511 -106 511 -221 l 608 -106 q 558 -264 608 -212 q 414 -315 507 -315 z "},"ĥ":{"ha":826,"x_min":-8,"x_max":751,"o":"m 79 1058 l 285 1058 l 285 669 q 392 732 326 706 q 522 758 458 758 q 751 493 751 758 l 751 0 l 546 0 l 546 467 q 517 546 546 518 q 439 574 488 574 q 285 518 363 574 l 285 0 l 79 0 l 79 1058 m 142 1340 l 283 1340 l 419 1143 l 300 1143 l 208 1249 l 111 1143 l -8 1143 l 142 1340 z "},"ḥ":{"ha":826,"x_min":79,"x_max":751,"o":"m 79 1058 l 285 1058 l 285 669 q 392 732 326 706 q 522 758 458 758 q 751 493 751 758 l 751 0 l 546 0 l 546 467 q 517 546 546 518 q 439 574 488 574 q 285 518 363 574 l 285 0 l 79 0 l 79 1058 m 358 -314 q 338 -306 346 -314 q 331 -285 331 -299 l 331 -150 q 358 -119 331 -119 l 454 -119 q 474 -128 467 -119 q 482 -150 482 -137 l 482 -285 q 454 -314 482 -314 l 358 -314 z "},"i":{"ha":364,"x_min":75,"x_max":289,"o":"m 104 856 q 83 863 90 856 q 75 883 75 871 l 75 1019 q 104 1049 75 1049 l 263 1049 q 282 1040 275 1049 q 289 1019 289 1032 l 289 883 q 263 856 289 856 l 104 856 m 79 746 l 285 746 l 285 0 l 79 0 l 79 746 z "},"ı":{"ha":363,"x_min":79,"x_max":285,"o":"m 79 746 l 285 746 l 285 0 l 79 0 l 79 746 z "},"í":{"ha":363,"x_min":79,"x_max":403,"o":"m 79 746 l 285 746 l 285 0 l 79 0 l 79 746 m 238 1071 l 403 1071 l 243 876 l 122 876 l 238 1071 z "},"ĭ":{"ha":363,"x_min":-21,"x_max":367,"o":"m 79 746 l 285 746 l 285 0 l 79 0 l 79 746 m 172 865 q 30 917 81 865 q -21 1075 -21 969 l 75 1075 q 103 987 75 1014 q 172 960 131 960 q 269 1075 269 960 l 367 1075 q 316 917 367 968 q 172 865 265 865 z "},"î":{"ha":363,"x_min":-35,"x_max":393,"o":"m 79 746 l 285 746 l 285 0 l 79 0 l 79 746 m 115 1074 l 257 1074 l 393 876 l 274 876 l 182 982 l 85 876 l -35 876 l 115 1074 z "},"ȉ":{"ha":363,"x_min":-137,"x_max":390,"o":"m 79 746 l 285 746 l 285 0 l 79 0 l 79 746 m -137 1071 l 28 1071 l 143 876 l 22 876 l -137 1071 m 110 1071 l 276 1071 l 390 876 l 269 876 l 110 1071 z "},"ï":{"ha":363,"x_min":-36,"x_max":389,"o":"m 79 746 l 285 746 l 285 0 l 79 0 l 79 746 m -7 885 q -28 892 -19 885 q -36 914 -36 900 l -36 1049 q -28 1071 -36 1063 q -7 1079 -21 1079 l 88 1079 q 108 1071 101 1079 q 115 1049 115 1063 l 115 914 q 88 885 115 885 l -7 885 m 265 885 q 244 892 253 885 q 236 914 236 900 l 236 1049 q 244 1071 236 1063 q 265 1079 251 1079 l 361 1079 q 381 1070 374 1079 q 389 1049 389 1061 l 389 914 q 361 885 389 885 l 265 885 z "},"ḯ":{"ha":363,"x_min":-36,"x_max":392,"o":"m 79 746 l 285 746 l 285 0 l 79 0 l 79 746 m -7 885 q -28 892 -19 885 q -36 914 -36 900 l -36 1049 q -28 1071 -36 1063 q -7 1079 -21 1079 l 88 1079 q 108 1071 101 1079 q 115 1049 115 1063 l 115 914 q 88 885 115 885 l -7 885 m 265 885 q 244 892 253 885 q 236 914 236 900 l 236 1049 q 244 1071 236 1063 q 265 1079 251 1079 l 361 1079 q 381 1070 374 1079 q 389 1049 389 1061 l 389 914 q 361 885 389 885 l 265 885 m 226 1331 l 392 1331 l 232 1136 l 111 1136 l 226 1331 z "},"ị":{"ha":364,"x_min":75,"x_max":289,"o":"m 104 856 q 83 863 90 856 q 75 883 75 871 l 75 1019 q 104 1049 75 1049 l 263 1049 q 282 1040 275 1049 q 289 1019 289 1032 l 289 883 q 263 856 289 856 l 104 856 m 79 746 l 285 746 l 285 0 l 79 0 l 79 746 m 128 -314 q 108 -306 115 -314 q 100 -285 100 -299 l 100 -150 q 128 -119 100 -119 l 224 -119 q 244 -128 236 -119 q 251 -150 251 -137 l 251 -285 q 224 -314 251 -314 l 128 -314 z "},"ì":{"ha":363,"x_min":-7,"x_max":285,"o":"m 79 746 l 285 746 l 285 0 l 79 0 l 79 746 m -7 1071 l 160 1071 l 274 876 l 153 876 l -7 1071 z "},"ỉ":{"ha":363,"x_min":79,"x_max":307,"o":"m 79 746 l 285 746 l 285 0 l 79 0 l 79 746 m 143 915 q 199 971 199 931 q 153 1010 199 1010 q 107 1001 138 1010 l 107 1082 q 179 1093 140 1093 q 275 1063 243 1093 q 307 978 307 1033 q 267 885 307 922 q 143 825 228 849 l 143 915 z "},"ȋ":{"ha":363,"x_min":-10,"x_max":378,"o":"m 79 746 l 285 746 l 285 0 l 79 0 l 79 746 m 185 1079 q 327 1027 276 1079 q 378 869 378 975 l 282 869 q 254 958 282 931 q 185 985 226 985 q 88 869 88 985 l -10 869 q 41 1028 -10 976 q 185 1079 92 1079 z "},"ī":{"ha":363,"x_min":-18,"x_max":372,"o":"m 79 746 l 285 746 l 285 0 l 79 0 l 79 746 m -18 1021 l 372 1021 l 372 899 l -18 899 l -18 1021 z "},"į":{"ha":364,"x_min":75,"x_max":310,"o":"m 104 856 q 83 863 90 856 q 75 883 75 871 l 75 1019 q 104 1049 75 1049 l 263 1049 q 282 1040 275 1049 q 289 1019 289 1032 l 289 883 q 263 856 289 856 l 104 856 m 79 746 l 285 746 l 285 0 l 79 0 l 79 746 m 265 -267 q 153 -230 190 -267 q 117 -142 117 -193 q 210 0 117 -49 l 285 0 q 233 -44 249 -22 q 217 -94 217 -67 q 239 -147 217 -128 q 297 -165 261 -165 l 310 -165 l 310 -261 q 265 -267 297 -267 z "},"ĩ":{"ha":363,"x_min":-67,"x_max":444,"o":"m 79 746 l 285 746 l 285 0 l 79 0 l 79 746 m -67 874 q -22 1011 -61 968 q 79 1054 18 1054 q 140 1044 114 1054 q 200 1017 167 1035 q 247 995 231 1001 q 282 989 263 989 q 325 1008 310 989 q 342 1061 340 1026 l 444 1061 q 403 922 440 969 q 301 875 367 875 q 240 885 268 875 q 176 913 213 894 q 133 933 151 926 q 97 940 115 940 q 55 922 71 940 q 36 874 39 904 l -67 874 z "},"j":{"ha":364,"x_min":74,"x_max":288,"o":"m 103 856 q 82 863 90 856 q 74 883 74 871 l 74 1019 q 103 1049 74 1049 l 261 1049 q 281 1040 274 1049 q 288 1019 288 1032 l 288 883 q 261 856 288 856 l 103 856 m 79 746 l 285 746 l 285 6 q 271 -174 285 -82 q 235 -329 257 -265 l 79 -329 l 79 746 z "},"ȷ":{"ha":364,"x_min":79,"x_max":285,"o":"m 79 746 l 285 746 l 285 6 q 271 -174 285 -82 q 235 -329 257 -265 l 79 -329 l 79 746 z "},"ĵ":{"ha":364,"x_min":-35,"x_max":393,"o":"m 79 746 l 285 746 l 285 6 q 271 -174 285 -82 q 235 -329 257 -265 l 79 -329 l 79 746 m 115 1074 l 257 1074 l 393 876 l 274 876 l 182 982 l 85 876 l -35 876 l 115 1074 z "},"k":{"ha":769,"x_min":79,"x_max":767,"o":"m 79 1060 l 285 1060 l 285 488 l 372 488 l 536 746 l 744 746 l 525 394 l 767 0 l 558 0 l 369 303 l 285 303 l 285 0 l 79 0 l 79 1060 z "},"ķ":{"ha":769,"x_min":79,"x_max":767,"o":"m 79 1060 l 285 1060 l 285 488 l 372 488 l 536 746 l 744 746 l 525 394 l 767 0 l 558 0 l 369 303 l 285 303 l 285 0 l 79 0 l 79 1060 m 264 -215 l 301 -206 q 345 -190 331 -199 q 366 -160 360 -181 q 372 -101 372 -140 l 497 -101 q 463 -255 497 -210 q 336 -300 428 -300 l 264 -300 l 264 -215 z "},"ĸ":{"ha":769,"x_min":79,"x_max":767,"o":"m 79 750 l 285 750 l 285 472 l 365 472 l 529 746 l 744 746 l 525 381 l 767 0 l 557 0 l 371 288 l 285 288 l 285 0 l 79 0 l 79 750 z "},"l":{"ha":435,"x_min":79,"x_max":419,"o":"m 313 -3 q 137 56 194 -3 q 79 240 79 115 l 79 1060 l 285 1060 l 285 271 q 303 185 285 211 q 363 154 321 160 l 419 146 l 419 -3 l 313 -3 z "},"ĺ":{"ha":435,"x_min":79,"x_max":419,"o":"m 313 -3 q 137 56 194 -3 q 79 240 79 115 l 79 1060 l 285 1060 l 285 271 q 303 185 285 211 q 363 154 321 160 l 419 146 l 419 -3 l 313 -3 m 238 1367 l 403 1367 l 243 1172 l 122 1172 l 238 1367 z "},"ľ":{"ha":435,"x_min":79,"x_max":542,"o":"m 313 -3 q 137 56 194 -3 q 79 240 79 115 l 79 1060 l 285 1060 l 285 271 q 303 185 285 211 q 363 154 321 160 l 419 146 l 419 -3 l 313 -3 m 356 999 l 356 1088 l 542 1088 l 542 999 l 531 808 l 368 808 l 356 999 z "},"ļ":{"ha":435,"x_min":79,"x_max":419,"o":"m 313 -3 q 137 56 194 -3 q 79 240 79 115 l 79 1060 l 285 1060 l 285 271 q 303 185 285 211 q 363 154 321 160 l 419 146 l 419 -3 l 313 -3 m 138 -215 l 175 -206 q 219 -190 204 -199 q 240 -160 233 -181 q 246 -101 246 -140 l 371 -101 q 336 -255 371 -210 q 210 -300 301 -300 l 138 -300 l 138 -215 z "},"ŀ":{"ha":522,"x_min":79,"x_max":536,"o":"m 313 -3 q 137 56 194 -3 q 79 240 79 115 l 79 1060 l 285 1060 l 285 271 q 303 185 285 211 q 363 154 321 160 l 419 146 l 419 -3 l 313 -3 m 388 426 q 367 434 375 426 q 358 454 358 442 l 358 576 q 388 607 358 607 l 506 607 q 536 576 536 607 l 536 454 q 506 426 536 426 l 388 426 z "},"ḷ":{"ha":435,"x_min":79,"x_max":419,"o":"m 313 -3 q 137 56 194 -3 q 79 240 79 115 l 79 1060 l 285 1060 l 285 271 q 303 185 285 211 q 363 154 321 160 l 419 146 l 419 -3 l 313 -3 m 203 -314 q 183 -306 190 -314 q 175 -285 175 -299 l 175 -150 q 203 -119 175 -119 l 299 -119 q 319 -128 311 -119 q 326 -150 326 -137 l 326 -285 q 299 -314 326 -314 l 203 -314 z "},"ḻ":{"ha":435,"x_min":64,"x_max":454,"o":"m 313 -3 q 137 56 194 -3 q 79 240 79 115 l 79 1060 l 285 1060 l 285 271 q 303 185 285 211 q 363 154 321 160 l 419 146 l 419 -3 l 313 -3 m 64 -174 l 454 -174 l 454 -296 l 64 -296 l 64 -174 z "},"ł":{"ha":435,"x_min":-4,"x_max":419,"o":"m 419 146 l 419 -3 l 313 -3 q 137 56 194 -3 q 79 240 79 115 l 79 503 l -4 469 l -4 581 l 79 614 l 79 1060 l 285 1060 l 285 681 l 407 729 l 407 618 l 285 571 l 285 271 q 303 185 285 211 q 363 154 321 160 l 419 146 z "},"m":{"ha":1293,"x_min":79,"x_max":1218,"o":"m 79 746 l 249 746 l 285 669 q 399 735 342 713 q 533 758 456 758 q 649 730 601 758 q 721 653 696 701 q 847 727 778 696 q 982 758 917 758 q 1164 688 1110 758 q 1218 483 1218 617 l 1218 0 l 1013 0 l 1013 465 q 984 546 1013 518 q 906 574 956 574 q 823 557 865 574 q 746 515 781 540 q 751 461 751 479 l 751 0 l 546 0 l 546 465 q 517 546 546 518 q 439 574 489 574 q 285 518 363 574 l 285 0 l 79 0 l 79 746 z "},"ṁ":{"ha":1293,"x_min":79,"x_max":1218,"o":"m 79 746 l 249 746 l 285 669 q 399 735 342 713 q 533 758 456 758 q 649 730 601 758 q 721 653 696 701 q 847 727 778 696 q 982 758 917 758 q 1164 688 1110 758 q 1218 483 1218 617 l 1218 0 l 1013 0 l 1013 465 q 984 546 1013 518 q 906 574 956 574 q 823 557 865 574 q 746 515 781 540 q 751 461 751 479 l 751 0 l 546 0 l 546 465 q 517 546 546 518 q 439 574 489 574 q 285 518 363 574 l 285 0 l 79 0 l 79 746 m 618 894 q 597 902 606 894 q 589 924 589 910 l 589 1058 q 597 1081 589 1072 q 618 1089 604 1089 l 714 1089 q 734 1080 726 1089 q 742 1058 742 1071 l 742 924 q 714 894 742 894 l 618 894 z "},"ṃ":{"ha":1293,"x_min":79,"x_max":1218,"o":"m 79 746 l 249 746 l 285 669 q 399 735 342 713 q 533 758 456 758 q 649 730 601 758 q 721 653 696 701 q 847 727 778 696 q 982 758 917 758 q 1164 688 1110 758 q 1218 483 1218 617 l 1218 0 l 1013 0 l 1013 465 q 984 546 1013 518 q 906 574 956 574 q 823 557 865 574 q 746 515 781 540 q 751 461 751 479 l 751 0 l 546 0 l 546 465 q 517 546 546 518 q 439 574 489 574 q 285 518 363 574 l 285 0 l 79 0 l 79 746 m 593 -314 q 573 -306 581 -314 q 565 -285 565 -299 l 565 -150 q 593 -119 565 -119 l 689 -119 q 709 -128 701 -119 q 717 -150 717 -137 l 717 -285 q 689 -314 717 -314 l 593 -314 z "},"n":{"ha":826,"x_min":79,"x_max":751,"o":"m 79 746 l 249 746 l 285 669 q 394 733 331 707 q 519 758 458 758 q 699 686 646 758 q 751 492 751 614 l 751 0 l 546 0 l 546 465 q 517 546 546 518 q 439 574 489 574 q 285 518 363 574 l 285 0 l 79 0 l 79 746 z "},"ń":{"ha":826,"x_min":79,"x_max":751,"o":"m 79 746 l 249 746 l 285 669 q 394 733 331 707 q 519 758 458 758 q 699 686 646 758 q 751 492 751 614 l 751 0 l 546 0 l 546 465 q 517 546 546 518 q 439 574 489 574 q 285 518 363 574 l 285 0 l 79 0 l 79 746 m 468 1071 l 633 1071 l 474 876 l 353 876 l 468 1071 z "},"ň":{"ha":826,"x_min":79,"x_max":751,"o":"m 79 746 l 249 746 l 285 669 q 394 733 331 707 q 519 758 458 758 q 699 686 646 758 q 751 492 751 614 l 751 0 l 546 0 l 546 465 q 517 546 546 518 q 439 574 489 574 q 285 518 363 574 l 285 0 l 79 0 l 79 746 m 201 1074 l 321 1074 l 413 968 l 510 1074 l 629 1074 l 479 876 l 339 876 l 201 1074 z "},"ņ":{"ha":826,"x_min":79,"x_max":751,"o":"m 79 746 l 249 746 l 285 669 q 394 733 331 707 q 519 758 458 758 q 699 686 646 758 q 751 492 751 614 l 751 0 l 546 0 l 546 465 q 517 546 546 518 q 439 574 489 574 q 285 518 363 574 l 285 0 l 79 0 l 79 746 m 293 -215 l 331 -206 q 374 -190 360 -199 q 395 -160 389 -181 q 401 -101 401 -140 l 526 -101 q 492 -255 526 -210 q 365 -300 457 -300 l 293 -300 l 293 -215 z "},"ṅ":{"ha":826,"x_min":79,"x_max":751,"o":"m 79 746 l 249 746 l 285 669 q 394 733 331 707 q 519 758 458 758 q 699 686 646 758 q 751 492 751 614 l 751 0 l 546 0 l 546 465 q 517 546 546 518 q 439 574 489 574 q 285 518 363 574 l 285 0 l 79 0 l 79 746 m 358 -314 q 338 -306 346 -314 q 331 -285 331 -299 l 331 -150 q 358 -119 331 -119 l 454 -119 q 474 -128 467 -119 q 482 -150 482 -137 l 482 -285 q 454 -314 482 -314 l 358 -314 z "},"ṇ":{"ha":826,"x_min":79,"x_max":751,"o":"m 79 746 l 249 746 l 285 669 q 394 733 331 707 q 519 758 458 758 q 699 686 646 758 q 751 492 751 614 l 751 0 l 546 0 l 546 465 q 517 546 546 518 q 439 574 489 574 q 285 518 363 574 l 285 0 l 79 0 l 79 746 m 358 -314 q 338 -306 346 -314 q 331 -285 331 -299 l 331 -150 q 358 -119 331 -119 l 454 -119 q 474 -128 467 -119 q 482 -150 482 -137 l 482 -285 q 454 -314 482 -314 l 358 -314 z "},"ŋ":{"ha":826,"x_min":79,"x_max":751,"o":"m 519 758 q 699 686 646 758 q 751 492 751 614 l 751 -39 q 708 -219 751 -147 q 594 -329 665 -292 l 431 -329 q 514 -217 482 -283 q 546 -43 546 -150 l 546 465 q 517 546 546 518 q 439 574 489 574 q 285 518 363 574 l 285 0 l 79 0 l 79 746 l 249 746 l 285 669 q 394 733 331 707 q 519 758 458 758 z "},"ṉ":{"ha":826,"x_min":79,"x_max":751,"o":"m 79 746 l 249 746 l 285 669 q 394 733 331 707 q 519 758 458 758 q 699 686 646 758 q 751 492 751 614 l 751 0 l 546 0 l 546 465 q 517 546 546 518 q 439 574 489 574 q 285 518 363 574 l 285 0 l 79 0 l 79 746 m 219 -174 l 610 -174 l 610 -296 l 219 -296 l 219 -174 z "},"ñ":{"ha":826,"x_min":79,"x_max":751,"o":"m 79 746 l 249 746 l 285 669 q 394 733 331 707 q 519 758 458 758 q 699 686 646 758 q 751 492 751 614 l 751 0 l 546 0 l 546 465 q 517 546 546 518 q 439 574 489 574 q 285 518 363 574 l 285 0 l 79 0 l 79 746 m 165 874 q 210 1011 171 968 q 311 1054 250 1054 q 372 1044 346 1054 q 432 1017 399 1035 q 478 995 463 1001 q 514 989 494 989 q 557 1008 542 989 q 574 1061 572 1026 l 676 1061 q 635 922 672 969 q 533 875 599 875 q 472 885 500 875 q 408 913 444 894 q 365 933 383 926 q 329 940 347 940 q 287 922 303 940 q 268 874 271 904 l 165 874 z "},"o":{"ha":799,"x_min":57,"x_max":742,"o":"m 399 -7 q 199 28 272 -7 q 91 147 125 64 q 57 375 57 229 q 91 609 57 526 q 199 724 125 692 q 399 757 272 757 q 600 723 526 757 q 708 606 674 689 q 742 375 742 524 q 708 144 742 226 q 601 27 675 61 q 399 -7 528 -7 m 399 157 q 481 172 453 157 q 522 233 508 186 q 536 375 536 279 q 522 517 536 471 q 481 578 508 564 q 399 593 453 593 q 318 578 346 593 q 276 517 290 564 q 263 375 263 471 q 276 233 263 279 q 318 172 290 186 q 399 157 346 157 z "},"ó":{"ha":799,"x_min":57,"x_max":742,"o":"m 399 -7 q 199 28 272 -7 q 91 147 125 64 q 57 375 57 229 q 91 609 57 526 q 199 724 125 692 q 399 757 272 757 q 600 723 526 757 q 708 606 674 689 q 742 375 742 524 q 708 144 742 226 q 601 27 675 61 q 399 -7 528 -7 m 399 157 q 481 172 453 157 q 522 233 508 186 q 536 375 536 279 q 522 517 536 471 q 481 578 508 564 q 399 593 453 593 q 318 578 346 593 q 276 517 290 564 q 263 375 263 471 q 276 233 263 279 q 318 172 290 186 q 399 157 346 157 m 454 1071 l 619 1071 l 460 876 l 339 876 l 454 1071 z "},"ŏ":{"ha":799,"x_min":57,"x_max":742,"o":"m 399 -7 q 199 28 272 -7 q 91 147 125 64 q 57 375 57 229 q 91 609 57 526 q 199 724 125 692 q 399 757 272 757 q 600 723 526 757 q 708 606 674 689 q 742 375 742 524 q 708 144 742 226 q 601 27 675 61 q 399 -7 528 -7 m 399 157 q 481 172 453 157 q 522 233 508 186 q 536 375 536 279 q 522 517 536 471 q 481 578 508 564 q 399 593 453 593 q 318 578 346 593 q 276 517 290 564 q 263 375 263 471 q 276 233 263 279 q 318 172 290 186 q 399 157 346 157 m 389 865 q 247 917 297 865 q 196 1075 196 969 l 292 1075 q 319 987 292 1014 q 389 960 347 960 q 486 1075 486 960 l 583 1075 q 533 917 583 968 q 389 865 482 865 z "},"ô":{"ha":799,"x_min":57,"x_max":742,"o":"m 399 -7 q 199 28 272 -7 q 91 147 125 64 q 57 375 57 229 q 91 609 57 526 q 199 724 125 692 q 399 757 272 757 q 600 723 526 757 q 708 606 674 689 q 742 375 742 524 q 708 144 742 226 q 601 27 675 61 q 399 -7 528 -7 m 399 157 q 481 172 453 157 q 522 233 508 186 q 536 375 536 279 q 522 517 536 471 q 481 578 508 564 q 399 593 453 593 q 318 578 346 593 q 276 517 290 564 q 263 375 263 471 q 276 233 263 279 q 318 172 290 186 q 399 157 346 157 m 332 1074 l 474 1074 l 610 876 l 490 876 l 399 982 l 301 876 l 182 876 l 332 1074 z "},"ố":{"ha":799,"x_min":57,"x_max":758,"o":"m 399 -7 q 199 28 272 -7 q 91 147 125 64 q 57 375 57 229 q 91 609 57 526 q 199 724 125 692 q 399 757 272 757 q 600 723 526 757 q 708 606 674 689 q 742 375 742 524 q 708 144 742 226 q 601 27 675 61 q 399 -7 528 -7 m 399 157 q 481 172 453 157 q 522 233 508 186 q 536 375 536 279 q 522 517 536 471 q 481 578 508 564 q 399 593 453 593 q 318 578 346 593 q 276 517 290 564 q 263 375 263 471 q 276 233 263 279 q 318 172 290 186 q 399 157 346 157 m 758 1168 l 650 994 l 529 994 l 592 1168 l 758 1168 m 474 1028 l 610 876 l 490 876 l 400 936 l 303 876 l 182 876 l 333 1028 l 474 1028 z "},"ộ":{"ha":799,"x_min":57,"x_max":742,"o":"m 399 -7 q 199 28 272 -7 q 91 147 125 64 q 57 375 57 229 q 91 609 57 526 q 199 724 125 692 q 399 757 272 757 q 600 723 526 757 q 708 606 674 689 q 742 375 742 524 q 708 144 742 226 q 601 27 675 61 q 399 -7 528 -7 m 399 157 q 481 172 453 157 q 522 233 508 186 q 536 375 536 279 q 522 517 536 471 q 481 578 508 564 q 399 593 453 593 q 318 578 346 593 q 276 517 290 564 q 263 375 263 471 q 276 233 263 279 q 318 172 290 186 q 399 157 346 157 m 332 1074 l 474 1074 l 610 876 l 490 876 l 399 982 l 301 876 l 182 876 l 332 1074 m 344 -314 q 324 -306 332 -314 q 317 -285 317 -299 l 317 -150 q 344 -119 317 -119 l 440 -119 q 460 -128 453 -119 q 468 -150 468 -137 l 468 -285 q 440 -314 468 -314 l 344 -314 z "},"ồ":{"ha":799,"x_min":40,"x_max":742,"o":"m 399 -7 q 199 28 272 -7 q 91 147 125 64 q 57 375 57 229 q 91 609 57 526 q 199 724 125 692 q 399 757 272 757 q 600 723 526 757 q 708 606 674 689 q 742 375 742 524 q 708 144 742 226 q 601 27 675 61 q 399 -7 528 -7 m 399 157 q 481 172 453 157 q 522 233 508 186 q 536 375 536 279 q 522 517 536 471 q 481 578 508 564 q 399 593 453 593 q 318 578 346 593 q 276 517 290 564 q 263 375 263 471 q 276 233 263 279 q 318 172 290 186 q 399 157 346 157 m 207 1168 l 271 994 l 150 994 l 40 1168 l 207 1168 m 474 1028 l 610 876 l 490 876 l 400 936 l 303 876 l 182 876 l 333 1028 l 474 1028 z "},"ổ":{"ha":799,"x_min":57,"x_max":742,"o":"m 399 -7 q 199 28 272 -7 q 91 147 125 64 q 57 375 57 229 q 91 609 57 526 q 199 724 125 692 q 399 757 272 757 q 600 723 526 757 q 708 606 674 689 q 742 375 742 524 q 708 144 742 226 q 601 27 675 61 q 399 -7 528 -7 m 399 157 q 481 172 453 157 q 522 233 508 186 q 536 375 536 279 q 522 517 536 471 q 481 578 508 564 q 399 593 453 593 q 318 578 346 593 q 276 517 290 564 q 263 375 263 471 q 276 233 263 279 q 318 172 290 186 q 399 157 346 157 m 563 1043 q 606 1089 606 1056 q 598 1113 606 1106 q 571 1121 590 1121 q 526 1113 547 1121 l 526 1183 q 599 1194 560 1194 q 676 1170 650 1194 q 703 1103 703 1146 q 669 1010 703 1047 q 563 953 636 974 l 563 1043 m 333 1028 l 474 1028 l 610 876 l 490 876 l 400 936 l 303 876 l 182 876 l 333 1028 z "},"ỗ":{"ha":799,"x_min":57,"x_max":742,"o":"m 399 -7 q 199 28 272 -7 q 91 147 125 64 q 57 375 57 229 q 91 609 57 526 q 199 724 125 692 q 399 757 272 757 q 600 723 526 757 q 708 606 674 689 q 742 375 742 524 q 708 144 742 226 q 601 27 675 61 q 399 -7 528 -7 m 399 157 q 481 172 453 157 q 522 233 508 186 q 536 375 536 279 q 522 517 536 471 q 481 578 508 564 q 399 593 453 593 q 318 578 346 593 q 276 517 290 564 q 263 375 263 471 q 276 233 263 279 q 318 172 290 186 q 399 157 346 157 m 290 1225 q 386 1203 331 1225 q 413 1194 392 1201 q 454 1186 435 1186 q 494 1198 481 1186 q 508 1232 508 1210 l 611 1232 q 576 1119 604 1150 q 492 1088 549 1088 q 426 1098 460 1088 q 385 1110 392 1108 q 356 1119 381 1111 q 315 1126 332 1126 q 285 1115 296 1126 q 271 1085 274 1103 l 168 1085 q 206 1195 175 1165 q 290 1225 238 1225 m 610 876 l 490 876 l 400 936 l 303 876 l 182 876 l 333 1028 l 474 1028 l 610 876 z "},"ȍ":{"ha":799,"x_min":57,"x_max":742,"o":"m 399 -7 q 199 28 272 -7 q 91 147 125 64 q 57 375 57 229 q 91 609 57 526 q 199 724 125 692 q 399 757 272 757 q 600 723 526 757 q 708 606 674 689 q 742 375 742 524 q 708 144 742 226 q 601 27 675 61 q 399 -7 528 -7 m 399 157 q 481 172 453 157 q 522 233 508 186 q 536 375 536 279 q 522 517 536 471 q 481 578 508 564 q 399 593 453 593 q 318 578 346 593 q 276 517 290 564 q 263 375 263 471 q 276 233 263 279 q 318 172 290 186 q 399 157 346 157 m 81 1071 l 246 1071 l 361 876 l 240 876 l 81 1071 m 328 1071 l 494 1071 l 608 876 l 488 876 l 328 1071 z "},"ö":{"ha":799,"x_min":57,"x_max":742,"o":"m 399 -7 q 199 28 272 -7 q 91 147 125 64 q 57 375 57 229 q 91 609 57 526 q 199 724 125 692 q 399 757 272 757 q 600 723 526 757 q 708 606 674 689 q 742 375 742 524 q 708 144 742 226 q 601 27 675 61 q 399 -7 528 -7 m 399 157 q 481 172 453 157 q 522 233 508 186 q 536 375 536 279 q 522 517 536 471 q 481 578 508 564 q 399 593 453 593 q 318 578 346 593 q 276 517 290 564 q 263 375 263 471 q 276 233 263 279 q 318 172 290 186 q 399 157 346 157 m 210 885 q 189 892 197 885 q 181 914 181 900 l 181 1049 q 188 1071 181 1063 q 210 1079 196 1079 l 304 1079 q 325 1071 318 1079 q 332 1049 332 1063 l 332 914 q 304 885 332 885 l 210 885 m 482 885 q 461 892 469 885 q 453 914 453 900 l 453 1049 q 460 1071 453 1063 q 482 1079 468 1079 l 578 1079 q 598 1070 590 1079 q 606 1049 606 1061 l 606 914 q 578 885 606 885 l 482 885 z "},"ȫ":{"ha":799,"x_min":57,"x_max":742,"o":"m 399 -7 q 199 28 272 -7 q 91 147 125 64 q 57 375 57 229 q 91 609 57 526 q 199 724 125 692 q 399 757 272 757 q 600 723 526 757 q 708 606 674 689 q 742 375 742 524 q 708 144 742 226 q 601 27 675 61 q 399 -7 528 -7 m 399 157 q 481 172 453 157 q 522 233 508 186 q 536 375 536 279 q 522 517 536 471 q 481 578 508 564 q 399 593 453 593 q 318 578 346 593 q 276 517 290 564 q 263 375 263 471 q 276 233 263 279 q 318 172 290 186 q 399 157 346 157 m 210 885 q 189 892 197 885 q 181 914 181 900 l 181 1049 q 188 1071 181 1063 q 210 1079 196 1079 l 304 1079 q 325 1071 318 1079 q 332 1049 332 1063 l 332 914 q 304 885 332 885 l 210 885 m 482 885 q 461 892 469 885 q 453 914 453 900 l 453 1049 q 460 1071 453 1063 q 482 1079 468 1079 l 578 1079 q 598 1070 590 1079 q 606 1049 606 1061 l 606 914 q 578 885 606 885 l 482 885 m 199 1281 l 589 1281 l 589 1158 l 199 1158 l 199 1281 z "},"ȱ":{"ha":799,"x_min":57,"x_max":742,"o":"m 399 -7 q 199 28 272 -7 q 91 147 125 64 q 57 375 57 229 q 91 609 57 526 q 199 724 125 692 q 399 757 272 757 q 600 723 526 757 q 708 606 674 689 q 742 375 742 524 q 708 144 742 226 q 601 27 675 61 q 399 -7 528 -7 m 399 157 q 481 172 453 157 q 522 233 508 186 q 536 375 536 279 q 522 517 536 471 q 481 578 508 564 q 399 593 453 593 q 318 578 346 593 q 276 517 290 564 q 263 375 263 471 q 276 233 263 279 q 318 172 290 186 q 399 157 346 157 m 349 894 q 328 902 336 894 q 319 924 319 910 l 319 1058 q 327 1081 319 1072 q 349 1089 335 1089 l 444 1089 q 465 1080 457 1089 q 472 1058 472 1071 l 472 924 q 444 894 472 894 l 349 894 m 199 1276 l 589 1276 l 589 1154 l 199 1154 l 199 1276 z "},"ọ":{"ha":799,"x_min":57,"x_max":742,"o":"m 399 -7 q 199 28 272 -7 q 91 147 125 64 q 57 375 57 229 q 91 609 57 526 q 199 724 125 692 q 399 757 272 757 q 600 723 526 757 q 708 606 674 689 q 742 375 742 524 q 708 144 742 226 q 601 27 675 61 q 399 -7 528 -7 m 399 157 q 481 172 453 157 q 522 233 508 186 q 536 375 536 279 q 522 517 536 471 q 481 578 508 564 q 399 593 453 593 q 318 578 346 593 q 276 517 290 564 q 263 375 263 471 q 276 233 263 279 q 318 172 290 186 q 399 157 346 157 m 344 -314 q 324 -306 332 -314 q 317 -285 317 -299 l 317 -150 q 344 -119 317 -119 l 440 -119 q 460 -128 453 -119 q 468 -150 468 -137 l 468 -285 q 440 -314 468 -314 l 344 -314 z "},"ò":{"ha":799,"x_min":57,"x_max":742,"o":"m 399 -7 q 199 28 272 -7 q 91 147 125 64 q 57 375 57 229 q 91 609 57 526 q 199 724 125 692 q 399 757 272 757 q 600 723 526 757 q 708 606 674 689 q 742 375 742 524 q 708 144 742 226 q 601 27 675 61 q 399 -7 528 -7 m 399 157 q 481 172 453 157 q 522 233 508 186 q 536 375 536 279 q 522 517 536 471 q 481 578 508 564 q 399 593 453 593 q 318 578 346 593 q 276 517 290 564 q 263 375 263 471 q 276 233 263 279 q 318 172 290 186 q 399 157 346 157 m 210 1071 l 376 1071 l 490 876 l 369 876 l 210 1071 z "},"ỏ":{"ha":799,"x_min":57,"x_max":742,"o":"m 399 -7 q 199 28 272 -7 q 91 147 125 64 q 57 375 57 229 q 91 609 57 526 q 199 724 125 692 q 399 757 272 757 q 600 723 526 757 q 708 606 674 689 q 742 375 742 524 q 708 144 742 226 q 601 27 675 61 q 399 -7 528 -7 m 399 157 q 481 172 453 157 q 522 233 508 186 q 536 375 536 279 q 522 517 536 471 q 481 578 508 564 q 399 593 453 593 q 318 578 346 593 q 276 517 290 564 q 263 375 263 471 q 276 233 263 279 q 318 172 290 186 q 399 157 346 157 m 360 915 q 415 971 415 931 q 369 1010 415 1010 q 324 1001 354 1010 l 324 1082 q 396 1093 357 1093 q 492 1063 460 1093 q 524 978 524 1033 q 484 885 524 922 q 360 825 444 849 l 360 915 z "},"ơ":{"ha":799,"x_min":57,"x_max":785,"o":"m 785 899 q 757 748 785 808 q 678 658 729 688 q 726 546 711 615 q 742 375 742 476 q 708 144 742 226 q 601 27 675 61 q 399 -7 528 -7 q 199 28 272 -7 q 91 147 125 64 q 57 375 57 229 q 91 609 57 526 q 199 724 125 692 q 399 757 272 757 q 529 746 479 757 l 543 746 q 617 781 592 746 q 642 899 642 815 l 785 899 m 399 157 q 481 172 453 157 q 522 233 508 186 q 536 375 536 279 q 522 517 536 471 q 481 578 508 564 q 399 593 453 593 q 318 578 346 593 q 276 517 290 564 q 263 375 263 471 q 276 233 263 279 q 318 172 290 186 q 399 157 346 157 z "},"ớ":{"ha":799,"x_min":57,"x_max":785,"o":"m 785 899 q 757 748 785 808 q 678 658 729 688 q 726 546 711 615 q 742 375 742 476 q 708 144 742 226 q 601 27 675 61 q 399 -7 528 -7 q 199 28 272 -7 q 91 147 125 64 q 57 375 57 229 q 91 609 57 526 q 199 724 125 692 q 399 757 272 757 q 529 746 479 757 l 543 746 q 617 781 592 746 q 642 899 642 815 l 785 899 m 399 157 q 481 172 453 157 q 522 233 508 186 q 536 375 536 279 q 522 517 536 471 q 481 578 508 564 q 399 593 453 593 q 318 578 346 593 q 276 517 290 564 q 263 375 263 471 q 276 233 263 279 q 318 172 290 186 q 399 157 346 157 m 436 1071 l 601 1071 l 442 876 l 321 876 l 436 1071 z "},"ợ":{"ha":799,"x_min":57,"x_max":785,"o":"m 785 899 q 757 748 785 808 q 678 658 729 688 q 726 546 711 615 q 742 375 742 476 q 708 144 742 226 q 601 27 675 61 q 399 -7 528 -7 q 199 28 272 -7 q 91 147 125 64 q 57 375 57 229 q 91 609 57 526 q 199 724 125 692 q 399 757 272 757 q 529 746 479 757 l 543 746 q 617 781 592 746 q 642 899 642 815 l 785 899 m 399 157 q 481 172 453 157 q 522 233 508 186 q 536 375 536 279 q 522 517 536 471 q 481 578 508 564 q 399 593 453 593 q 318 578 346 593 q 276 517 290 564 q 263 375 263 471 q 276 233 263 279 q 318 172 290 186 q 399 157 346 157 m 354 -314 q 334 -306 342 -314 q 326 -285 326 -299 l 326 -150 q 354 -119 326 -119 l 450 -119 q 470 -128 463 -119 q 478 -150 478 -137 l 478 -285 q 450 -314 478 -314 l 354 -314 z "},"ờ":{"ha":799,"x_min":57,"x_max":785,"o":"m 785 899 q 757 748 785 808 q 678 658 729 688 q 726 546 711 615 q 742 375 742 476 q 708 144 742 226 q 601 27 675 61 q 399 -7 528 -7 q 199 28 272 -7 q 91 147 125 64 q 57 375 57 229 q 91 609 57 526 q 199 724 125 692 q 399 757 272 757 q 529 746 479 757 l 543 746 q 617 781 592 746 q 642 899 642 815 l 785 899 m 399 157 q 481 172 453 157 q 522 233 508 186 q 536 375 536 279 q 522 517 536 471 q 481 578 508 564 q 399 593 453 593 q 318 578 346 593 q 276 517 290 564 q 263 375 263 471 q 276 233 263 279 q 318 172 290 186 q 399 157 346 157 m 185 1071 l 351 1071 l 465 876 l 344 876 l 185 1071 z "},"ở":{"ha":799,"x_min":57,"x_max":785,"o":"m 785 899 q 757 748 785 808 q 678 658 729 688 q 726 546 711 615 q 742 375 742 476 q 708 144 742 226 q 601 27 675 61 q 399 -7 528 -7 q 199 28 272 -7 q 91 147 125 64 q 57 375 57 229 q 91 609 57 526 q 199 724 125 692 q 399 757 272 757 q 529 746 479 757 l 543 746 q 617 781 592 746 q 642 899 642 815 l 785 899 m 399 157 q 481 172 453 157 q 522 233 508 186 q 536 375 536 279 q 522 517 536 471 q 481 578 508 564 q 399 593 453 593 q 318 578 346 593 q 276 517 290 564 q 263 375 263 471 q 276 233 263 279 q 318 172 290 186 q 399 157 346 157 m 364 915 q 419 971 419 931 q 374 1010 419 1010 q 328 1001 358 1010 l 328 1082 q 400 1093 361 1093 q 496 1063 464 1093 q 528 978 528 1033 q 488 885 528 922 q 364 825 449 849 l 364 915 z "},"ỡ":{"ha":799,"x_min":57,"x_max":785,"o":"m 785 899 q 757 748 785 808 q 678 658 729 688 q 726 546 711 615 q 742 375 742 476 q 708 144 742 226 q 601 27 675 61 q 399 -7 528 -7 q 199 28 272 -7 q 91 147 125 64 q 57 375 57 229 q 91 609 57 526 q 199 724 125 692 q 399 757 272 757 q 529 746 479 757 l 543 746 q 617 781 592 746 q 642 899 642 815 l 785 899 m 399 157 q 481 172 453 157 q 522 233 508 186 q 536 375 536 279 q 522 517 536 471 q 481 578 508 564 q 399 593 453 593 q 318 578 346 593 q 276 517 290 564 q 263 375 263 471 q 276 233 263 279 q 318 172 290 186 q 399 157 346 157 m 119 874 q 165 1011 125 968 q 265 1054 204 1054 q 326 1044 300 1054 q 386 1017 353 1035 q 433 995 417 1001 q 468 989 449 989 q 511 1008 496 989 q 528 1061 526 1026 l 631 1061 q 590 922 626 969 q 488 875 553 875 q 426 885 454 875 q 363 913 399 894 q 319 933 338 926 q 283 940 301 940 q 241 922 257 940 q 222 874 225 904 l 119 874 z "},"ő":{"ha":799,"x_min":57,"x_max":742,"o":"m 399 -7 q 199 28 272 -7 q 91 147 125 64 q 57 375 57 229 q 91 609 57 526 q 199 724 125 692 q 399 757 272 757 q 600 723 526 757 q 708 606 674 689 q 742 375 742 524 q 708 144 742 226 q 601 27 675 61 q 399 -7 528 -7 m 399 157 q 481 172 453 157 q 522 233 508 186 q 536 375 536 279 q 522 517 536 471 q 481 578 508 564 q 399 593 453 593 q 318 578 346 593 q 276 517 290 564 q 263 375 263 471 q 276 233 263 279 q 318 172 290 186 q 399 157 346 157 m 311 1071 l 468 1071 l 328 876 l 207 876 l 311 1071 m 539 1071 l 694 1071 l 556 876 l 435 876 l 539 1071 z "},"ȏ":{"ha":799,"x_min":57,"x_max":742,"o":"m 399 -7 q 199 28 272 -7 q 91 147 125 64 q 57 375 57 229 q 91 609 57 526 q 199 724 125 692 q 399 757 272 757 q 600 723 526 757 q 708 606 674 689 q 742 375 742 524 q 708 144 742 226 q 601 27 675 61 q 399 -7 528 -7 m 399 157 q 481 172 453 157 q 522 233 508 186 q 536 375 536 279 q 522 517 536 471 q 481 578 508 564 q 399 593 453 593 q 318 578 346 593 q 276 517 290 564 q 263 375 263 471 q 276 233 263 279 q 318 172 290 186 q 399 157 346 157 m 401 1079 q 544 1027 493 1079 q 594 869 594 975 l 499 869 q 471 958 499 931 q 401 985 443 985 q 304 869 304 985 l 207 869 q 258 1028 207 976 q 401 1079 308 1079 z "},"ō":{"ha":799,"x_min":57,"x_max":742,"o":"m 399 -7 q 199 28 272 -7 q 91 147 125 64 q 57 375 57 229 q 91 609 57 526 q 199 724 125 692 q 399 757 272 757 q 600 723 526 757 q 708 606 674 689 q 742 375 742 524 q 708 144 742 226 q 601 27 675 61 q 399 -7 528 -7 m 399 157 q 481 172 453 157 q 522 233 508 186 q 536 375 536 279 q 522 517 536 471 q 481 578 508 564 q 399 593 453 593 q 318 578 346 593 q 276 517 290 564 q 263 375 263 471 q 276 233 263 279 q 318 172 290 186 q 399 157 346 157 m 199 1021 l 589 1021 l 589 899 l 199 899 l 199 1021 z "},"ṓ":{"ha":799,"x_min":57,"x_max":742,"o":"m 399 -7 q 199 28 272 -7 q 91 147 125 64 q 57 375 57 229 q 91 609 57 526 q 199 724 125 692 q 399 757 272 757 q 600 723 526 757 q 708 606 674 689 q 742 375 742 524 q 708 144 742 226 q 601 27 675 61 q 399 -7 528 -7 m 399 157 q 481 172 453 157 q 522 233 508 186 q 536 375 536 279 q 522 517 536 471 q 481 578 508 564 q 399 593 453 593 q 318 578 346 593 q 276 517 290 564 q 263 375 263 471 q 276 233 263 279 q 318 172 290 186 q 399 157 346 157 m 199 1021 l 589 1021 l 589 899 l 199 899 l 199 1021 m 444 1258 l 610 1258 l 450 1064 l 329 1064 l 444 1258 z "},"ṑ":{"ha":799,"x_min":57,"x_max":742,"o":"m 399 -7 q 199 28 272 -7 q 91 147 125 64 q 57 375 57 229 q 91 609 57 526 q 199 724 125 692 q 399 757 272 757 q 600 723 526 757 q 708 606 674 689 q 742 375 742 524 q 708 144 742 226 q 601 27 675 61 q 399 -7 528 -7 m 399 157 q 481 172 453 157 q 522 233 508 186 q 536 375 536 279 q 522 517 536 471 q 481 578 508 564 q 399 593 453 593 q 318 578 346 593 q 276 517 290 564 q 263 375 263 471 q 276 233 263 279 q 318 172 290 186 q 399 157 346 157 m 199 1021 l 589 1021 l 589 899 l 199 899 l 199 1021 m 190 1258 l 357 1258 l 471 1064 l 350 1064 l 190 1258 z "},"ǫ":{"ha":799,"x_min":57,"x_max":742,"o":"m 483 -3 q 419 -94 419 -42 q 442 -147 419 -128 q 500 -165 464 -165 l 513 -165 l 513 -261 q 468 -267 500 -267 q 356 -230 393 -267 q 319 -142 319 -193 q 400 -7 319 -54 l 399 -7 q 199 28 272 -7 q 91 147 125 64 q 57 375 57 229 q 91 609 57 526 q 199 724 125 692 q 399 757 272 757 q 600 723 526 757 q 708 606 674 689 q 742 375 742 524 q 716 165 742 244 q 635 47 690 86 q 483 -3 579 7 m 263 375 q 276 233 263 279 q 318 172 290 186 q 399 157 346 157 q 481 172 453 157 q 522 233 508 186 q 536 375 536 279 q 522 517 536 471 q 481 578 508 564 q 399 593 453 593 q 318 578 346 593 q 276 517 290 564 q 263 375 263 471 z "},"ø":{"ha":799,"x_min":39,"x_max":760,"o":"m 682 653 q 727 542 713 610 q 742 375 742 474 q 708 144 742 226 q 601 27 675 61 q 399 -7 528 -7 q 172 44 247 -7 l 135 0 l 39 0 l 119 96 q 57 375 57 182 q 91 609 57 526 q 199 724 125 692 q 399 757 272 757 q 533 745 476 757 q 631 706 590 733 l 664 746 l 760 746 l 682 653 m 263 375 q 268 274 263 308 l 504 556 q 465 585 489 578 q 399 593 440 593 q 318 578 346 593 q 276 517 290 564 q 263 375 263 471 m 536 375 q 531 474 536 436 l 296 192 q 335 164 311 171 q 399 157 360 157 q 481 172 453 157 q 522 233 508 186 q 536 375 536 279 z "},"ǿ":{"ha":799,"x_min":39,"x_max":760,"o":"m 682 653 q 727 542 713 610 q 742 375 742 474 q 708 144 742 226 q 601 27 675 61 q 399 -7 528 -7 q 172 44 247 -7 l 135 0 l 39 0 l 119 96 q 57 375 57 182 q 91 609 57 526 q 199 724 125 692 q 399 757 272 757 q 533 745 476 757 q 631 706 590 733 l 664 746 l 760 746 l 682 653 m 263 375 q 268 274 263 308 l 504 556 q 465 585 489 578 q 399 593 440 593 q 318 578 346 593 q 276 517 290 564 q 263 375 263 471 m 536 375 q 531 474 536 436 l 296 192 q 335 164 311 171 q 399 157 360 157 q 481 172 453 157 q 522 233 508 186 q 536 375 536 279 m 454 1071 l 619 1071 l 460 876 l 339 876 l 454 1071 z "},"õ":{"ha":799,"x_min":57,"x_max":742,"o":"m 399 -7 q 199 28 272 -7 q 91 147 125 64 q 57 375 57 229 q 91 609 57 526 q 199 724 125 692 q 399 757 272 757 q 600 723 526 757 q 708 606 674 689 q 742 375 742 524 q 708 144 742 226 q 601 27 675 61 q 399 -7 528 -7 m 399 157 q 481 172 453 157 q 522 233 508 186 q 536 375 536 279 q 522 517 536 471 q 481 578 508 564 q 399 593 453 593 q 318 578 346 593 q 276 517 290 564 q 263 375 263 471 q 276 233 263 279 q 318 172 290 186 q 399 157 346 157 m 151 874 q 197 1011 157 968 q 297 1054 236 1054 q 358 1044 332 1054 q 418 1017 385 1035 q 465 995 449 1001 q 500 989 481 989 q 543 1008 528 989 q 560 1061 558 1026 l 663 1061 q 622 922 658 969 q 519 875 585 875 q 458 885 486 875 q 394 913 431 894 q 351 933 369 926 q 315 940 333 940 q 273 922 289 940 q 254 874 257 904 l 151 874 z "},"ṍ":{"ha":799,"x_min":57,"x_max":742,"o":"m 399 -7 q 199 28 272 -7 q 91 147 125 64 q 57 375 57 229 q 91 609 57 526 q 199 724 125 692 q 399 757 272 757 q 600 723 526 757 q 708 606 674 689 q 742 375 742 524 q 708 144 742 226 q 601 27 675 61 q 399 -7 528 -7 m 399 157 q 481 172 453 157 q 522 233 508 186 q 536 375 536 279 q 522 517 536 471 q 481 578 508 564 q 399 593 453 593 q 318 578 346 593 q 276 517 290 564 q 263 375 263 471 q 276 233 263 279 q 318 172 290 186 q 399 157 346 157 m 151 874 q 197 1011 157 968 q 297 1054 236 1054 q 358 1044 332 1054 q 418 1017 385 1035 q 465 995 449 1001 q 500 989 481 989 q 543 1008 528 989 q 560 1061 558 1026 l 663 1061 q 622 922 658 969 q 519 875 585 875 q 458 885 486 875 q 394 913 431 894 q 351 933 369 926 q 315 940 333 940 q 273 922 289 940 q 254 874 257 904 l 151 874 m 444 1289 l 610 1289 l 450 1094 l 329 1094 l 444 1289 z "},"ṏ":{"ha":799,"x_min":57,"x_max":742,"o":"m 399 -7 q 199 28 272 -7 q 91 147 125 64 q 57 375 57 229 q 91 609 57 526 q 199 724 125 692 q 399 757 272 757 q 600 723 526 757 q 708 606 674 689 q 742 375 742 524 q 708 144 742 226 q 601 27 675 61 q 399 -7 528 -7 m 399 157 q 481 172 453 157 q 522 233 508 186 q 536 375 536 279 q 522 517 536 471 q 481 578 508 564 q 399 593 453 593 q 318 578 346 593 q 276 517 290 564 q 263 375 263 471 q 276 233 263 279 q 318 172 290 186 q 399 157 346 157 m 151 874 q 197 1011 157 968 q 297 1054 236 1054 q 358 1044 332 1054 q 418 1017 385 1035 q 465 995 449 1001 q 500 989 481 989 q 543 1008 528 989 q 560 1061 558 1026 l 663 1061 q 622 922 658 969 q 519 875 585 875 q 458 885 486 875 q 394 913 431 894 q 351 933 369 926 q 315 940 333 940 q 273 922 289 940 q 254 874 257 904 l 151 874 m 224 1114 q 203 1122 211 1114 q 194 1143 194 1129 l 194 1278 q 202 1300 194 1292 q 224 1308 210 1308 l 318 1308 q 339 1300 332 1308 q 346 1278 346 1292 l 346 1143 q 318 1114 346 1114 l 224 1114 m 496 1114 q 475 1122 483 1114 q 467 1143 467 1129 l 467 1278 q 474 1300 467 1292 q 496 1308 482 1308 l 592 1308 q 612 1299 604 1308 q 619 1278 619 1290 l 619 1143 q 592 1114 619 1114 l 496 1114 z "},"ȭ":{"ha":799,"x_min":57,"x_max":742,"o":"m 399 -7 q 199 28 272 -7 q 91 147 125 64 q 57 375 57 229 q 91 609 57 526 q 199 724 125 692 q 399 757 272 757 q 600 723 526 757 q 708 606 674 689 q 742 375 742 524 q 708 144 742 226 q 601 27 675 61 q 399 -7 528 -7 m 399 157 q 481 172 453 157 q 522 233 508 186 q 536 375 536 279 q 522 517 536 471 q 481 578 508 564 q 399 593 453 593 q 318 578 346 593 q 276 517 290 564 q 263 375 263 471 q 276 233 263 279 q 318 172 290 186 q 399 157 346 157 m 199 1281 l 589 1281 l 589 1158 l 199 1158 l 199 1281 m 128 874 q 173 1011 133 968 q 274 1054 213 1054 q 335 1044 308 1054 q 394 1017 361 1035 q 441 995 425 1001 q 476 989 457 989 q 519 1008 504 989 q 536 1061 535 1026 l 639 1061 q 598 922 635 969 q 496 875 561 875 q 435 885 463 875 q 371 913 407 894 q 328 933 346 926 q 292 940 310 940 q 249 922 265 940 q 231 874 233 904 l 128 874 z "},"œ":{"ha":1217,"x_min":57,"x_max":1161,"o":"m 731 300 q 774 181 733 215 q 908 146 814 146 l 1136 146 l 1136 25 q 847 -7 990 -7 q 638 72 707 -7 q 544 11 601 29 q 397 -7 486 -7 q 198 28 271 -7 q 91 147 125 64 q 57 375 57 231 q 92 609 57 526 q 199 724 126 692 q 399 757 272 757 q 542 739 483 757 q 636 679 600 721 q 853 757 704 757 q 1034 734 968 757 q 1131 651 1100 711 q 1161 479 1161 592 q 1100 345 1161 390 q 942 300 1039 300 l 731 300 m 854 608 q 757 567 785 608 q 729 422 729 525 l 901 422 q 960 440 942 422 q 979 501 979 458 q 950 585 979 561 q 854 608 921 608 m 399 147 q 481 163 453 147 q 522 226 508 178 q 536 375 536 274 q 522 524 536 476 q 481 588 508 572 q 399 603 453 603 q 318 588 346 603 q 276 524 290 572 q 263 375 263 476 q 276 226 263 274 q 318 163 290 178 q 399 147 346 147 z "},"p":{"ha":813,"x_min":79,"x_max":756,"o":"m 79 746 l 251 746 l 285 675 q 492 757 389 757 q 691 657 626 757 q 756 372 756 557 q 697 85 756 181 q 492 -10 638 -10 q 384 3 439 -10 q 285 39 329 15 l 285 -329 l 79 -329 l 79 746 m 425 160 q 516 206 482 160 q 550 372 550 253 q 517 542 550 492 q 425 592 483 592 q 285 550 356 592 l 285 196 q 349 169 311 179 q 425 160 388 160 z "},"ṗ":{"ha":813,"x_min":79,"x_max":756,"o":"m 79 746 l 251 746 l 285 675 q 492 757 389 757 q 691 657 626 757 q 756 372 756 557 q 697 85 756 181 q 492 -10 638 -10 q 384 3 439 -10 q 285 39 329 15 l 285 -329 l 79 -329 l 79 746 m 425 160 q 516 206 482 160 q 550 372 550 253 q 517 542 550 492 q 425 592 483 592 q 285 550 356 592 l 285 196 q 349 169 311 179 q 425 160 388 160 m 342 894 q 321 902 329 894 q 313 924 313 910 l 313 1058 q 320 1081 313 1072 q 342 1089 328 1089 l 438 1089 q 458 1080 450 1089 q 465 1058 465 1071 l 465 924 q 438 894 465 894 l 342 894 z "},"þ":{"ha":813,"x_min":79,"x_max":756,"o":"m 79 1060 l 285 1060 l 285 675 q 492 757 389 757 q 688 656 621 757 q 756 372 756 554 q 693 88 756 185 q 492 -10 631 -10 q 384 3 439 -10 q 285 39 329 15 l 285 -329 l 79 -329 l 79 1060 m 425 160 q 550 363 550 160 q 517 539 550 486 q 425 592 483 592 q 285 550 356 592 l 285 196 q 349 169 311 179 q 425 160 388 160 z "},"q":{"ha":810,"x_min":57,"x_max":735,"o":"m 528 71 q 432 14 486 36 q 329 -8 378 -8 q 168 32 228 -8 q 83 155 108 72 q 57 372 57 238 q 88 599 57 514 q 180 720 118 683 q 342 757 242 757 q 543 748 435 757 q 735 728 651 739 l 735 -329 l 528 -329 l 528 71 m 389 157 q 460 169 421 157 q 528 199 500 182 l 528 603 l 404 603 q 294 550 326 603 q 263 379 263 497 q 275 242 263 290 q 315 176 288 194 q 389 157 342 157 z "},"r":{"ha":588,"x_min":79,"x_max":557,"o":"m 79 746 l 238 746 l 285 632 q 380 723 329 690 q 496 756 431 756 q 557 749 532 756 l 557 538 q 469 544 485 544 q 367 525 410 544 q 285 464 324 506 l 285 0 l 79 0 l 79 746 z "},"ŕ":{"ha":588,"x_min":79,"x_max":557,"o":"m 79 746 l 238 746 l 285 632 q 380 723 329 690 q 496 756 431 756 q 557 749 532 756 l 557 538 q 469 544 485 544 q 367 525 410 544 q 285 464 324 506 l 285 0 l 79 0 l 79 746 m 364 1071 l 529 1071 l 369 876 l 249 876 l 364 1071 z "},"ř":{"ha":588,"x_min":79,"x_max":557,"o":"m 79 746 l 238 746 l 285 632 q 380 723 329 690 q 496 756 431 756 q 557 749 532 756 l 557 538 q 469 544 485 544 q 367 525 410 544 q 285 464 324 506 l 285 0 l 79 0 l 79 746 m 97 1074 l 217 1074 l 308 968 l 406 1074 l 525 1074 l 375 876 l 235 876 l 97 1074 z "}}}
